font.ufo
<glyph name="exclam" format="1">
	<unicode hex="0021"/>
	<advance width="600"/>
	<outline>
		<contour>
			<point x="272" y="232" type="line"/>
			<point x="328" y="232" type="line"/>
			<point x="338" y="576" type="line"/>
			<point x="340" y="670" type="line"/>
			<point x="260" y="670" type="line"/>
			<point x="262" y="576" type="line"/>
		</contour>
		<contour>
			<point x="300" y="-12" type="curve" smooth="yes"/>
			<point x="340" y="-12"/>
			<point x="373" y="18"/>
			<point x="373" y="66" type="curve" smooth="yes"/>
			<point x="373" y="113"/>
			<point x="340" y="142"/>
			<point x="300" y="142" type="curve" smooth="yes"/>
			<point x="260" y="142"/>
			<point x="227" y="113"/>
			<point x="227" y="66" type="curve" smooth="yes"/>
			<point x="227" y="18"/>
			<point x="260" y="-12"/>
		</contour>
	</outline>
</glyph>
<glyph name="ampersand" format="1">
	<unicode hex="0026"/>
	<advance width="600"/>
	<outline>
		<contour>
			<point x="238" y="-12" type="curve" smooth="yes"/>
			<point x="326" y="-12"/>
			<point x="391" y="30"/>
			<point x="444" y="91" type="curve" smooth="yes"/>
			<point x="502" y="166"/>
			<point x="543" y="256"/>
			<point x="570" y="354" type="curve"/>
			<point x="494" y="354" type="line"/>
			<point x="471" y="264"/>
			<point x="436" y="189"/>
			<point x="387" y="131" type="curve" smooth="yes"/>
			<point x="347" y="85"/>
			<point x="299" y="54"/>
			<point x="248" y="54" type="curve" smooth="yes"/>
			<point x="178" y="54"/>
			<point x="122" y="102"/>
			<point x="122" y="175" type="curve" smooth="yes"/>
			<point x="122" y="322"/>
			<point x="392" y="375"/>
			<point x="392" y="538" type="curve" smooth="yes"/>
			<point x="392" y="615"/>
			<point x="346" y="668"/>
			<point x="265" y="668" type="curve" smooth="yes"/>
			<point x="178" y="668"/>
			<point x="121" y="600"/>
			<point x="121" y="513" type="curve" smooth="yes"/>
			<point x="121" y="378"/>
			<point x="255" y="191"/>
			<point x="396" y="79" type="curve" smooth="yes"/>
			<point x="452" y="33"/>
			<point x="505" y="3"/>
			<point x="554" y="-12" type="curve"/>
			<point x="577" y="56" type="line"/>
			<point x="537" y="69"/>
			<point x="492" y="95"/>
			<point x="445" y="134" type="curve" smooth="yes"/>
			<point x="323" y="228"/>
			<point x="192" y="391"/>
			<point x="192" y="514" type="curve" smooth="yes"/>
			<point x="192" y="568"/>
			<point x="219" y="609"/>
			<point x="265" y="609" type="curve" smooth="yes"/>
			<point x="309" y="609"/>
			<point x="325" y="575"/>
			<point x="325" y="537" type="curve" smooth="yes"/>
			<point x="325" y="396"/>
			<point x="42" y="359"/>
			<point x="42" y="170" type="curve" smooth="yes"/>
			<point x="42" y="64"/>
			<point x="122" y="-12"/>
		</contour>
	</outline>
</glyph>
<glyph name="quotesingle" format="1">
	<unicode hex="0027"/>
	<advance width="600"/>
	<outline>
		<contour>
			<point x="272" y="352" type="line"/>
			<point x="328" y="352" type="line"/>
			<point x="353" y="577" type="line"/>
			<point x="355" y="687" type="line"/>
			<point x="245" y="687" type="line"/>
			<point x="247" y="577" type="line"/>
		</contour>
	</outline>
</glyph>
<glyph name="parenright" format="1">
	<unicode hex="0029"/>
	<advance width="600"/>
	<outline>
		<contour>
			<point x="167" y="-176" type="line"/>
			<point x="306" y="-68"/>
			<point x="392" y="85"/>
			<point x="392" y="278" type="curve" smooth="yes"/>
			<point x="392" y="471"/>
			<point x="306" y="624"/>
			<point x="167" y="732" type="curve"/>
			<point x="122" y="690" type="line"/>
			<point x="256" y="577"/>
			<point x="318" y="446"/>
			<point x="318" y="278" type="curve" smooth="yes"/>
			<point x="318" y="110"/>
			<point x="256" y="-21"/>
			<point x="122" y="-134" type="curve"/>
		</contour>
	</outline>
</glyph>
<glyph name="plus" format="1">
	<unicode hex="002B"/>
	<advance width="600"/>
	<outline>
		<contour>
			<point x="267" y="104" type="line"/>
			<point x="333" y="104" type="line"/>
			<point x="333" y="299" type="line"/>
			<point x="515" y="299" type="line"/>
			<point x="515" y="361" type="line"/>
			<point x="333" y="361" type="line"/>
			<point x="333" y="556" type="line"/>
			<point x="267" y="556" type="line"/>
			<point x="267" y="361" type="line"/>
			<point x="85" y="361" type="line"/>
			<point x="85" y="299" type="line"/>
			<point x="267" y="299" type="line"/>
		</contour>
	</outline>
</glyph>
<glyph name="comma" format="1">
	<unicode hex="002C"/>
	<advance width="600"/>
	<outline>
		<contour>
			<point x="220" y="-213" type="line"/>
			<point x="330" y="-172"/>
			<point x="396" y="-90"/>
			<point x="396" y="27" type="curve" smooth="yes"/>
			<point x="396" y="105"/>
			<point x="365" y="155"/>
			<point x="306" y="155" type="curve" smooth="yes"/>
			<point x="263" y="155"/>
			<point x="226" y="128"/>
			<point x="226" y="79" type="curve" smooth="yes"/>
			<point x="226" y="29"/>
			<point x="261" y="4"/>
			<point x="304" y="4" type="curve" smooth="yes"/>
			<point x="324" y="4"/>
			<point x="344" y="9"/>
			<point x="360" y="27" type="curve"/>
			<point x="304" y="106" type="line"/>
			<point x="323" y="14" type="line"/>
			<point x="323" y="-69"/>
			<point x="282" y="-123"/>
			<point x="197" y="-161" type="curve"/>
		</contour>
	</outline>
</glyph>
<glyph name="period" format="1">
	<unicode hex="002E"/>
	<advance width="600"/>
	<outline>
		<contour>
			<point x="300" y="-12" type="curve" smooth="yes"/>
			<point x="345" y="-12"/>
			<point x="381" y="22"/>
			<point x="381" y="72" type="curve" smooth="yes"/>
			<point x="381" y="123"/>
			<point x="345" y="157"/>
			<point x="300" y="157" type="curve" smooth="yes"/>
			<point x="255" y="157"/>
			<point x="219" y="123"/>
			<point x="219" y="72" type="curve" smooth="yes"/>
			<point x="219" y="22"/>
			<point x="255" y="-12"/>
		</contour>
	</outline>
</glyph>
<glyph name="zero" format="1">
	<unicode hex="0030"/>
	<advance width="600"/>
	<outline>
		<contour>
			<point x="300" y="-12" type="curve" smooth="yes"/>
			<point x="442" y="-12"/>
			<point x="529" y="109"/>
			<point x="529" y="321" type="curve" smooth="yes"/>
			<point x="529" y="535"/>
			<point x="442" y="650"/>
			<point x="300" y="650" type="curve" smooth="yes"/>
			<point x="158" y="650"/>
			<point x="71" y="535"/>
			<point x="71" y="321" type="curve" smooth="yes"/>
			<point x="71" y="109"/>
			<point x="158" y="-12"/>
		</contour>
		<contour>
			<point x="300" y="54" type="curve" smooth="yes"/>
			<point x="211" y="54"/>
			<point x="148" y="138"/>
			<point x="148" y="321" type="curve" smooth="yes"/>
			<point x="148" y="505"/>
			<point x="211" y="584"/>
			<point x="300" y="584" type="curve" smooth="yes"/>
			<point x="389" y="584"/>
			<point x="452" y="505"/>
			<point x="452" y="321" type="curve" smooth="yes"/>
			<point x="452" y="138"/>
			<point x="389" y="54"/>
		</contour>
		<contour>
			<point x="300" y="261" type="curve" smooth="yes"/>
			<point x="333" y="261"/>
			<point x="362" y="286"/>
			<point x="362" y="328" type="curve" smooth="yes"/>
			<point x="362" y="369"/>
			<point x="333" y="394"/>
			<point x="300" y="394" type="curve" smooth="yes"/>
			<point x="267" y="394"/>
			<point x="238" y="369"/>
			<point x="238" y="328" type="curve" smooth="yes"/>
			<point x="238" y="286"/>
			<point x="267" y="261"/>
		</contour>
	</outline>
</glyph>
<glyph name="one" format="1">
	<unicode hex="0031"/>
	<advance width="600"/>
	<outline>
		<contour>
			<point x="99" y="0" type="line"/>
			<point x="527" y="0" type="line"/>
			<point x="527" y="68" type="line"/>
			<point x="361" y="68" type="line"/>
			<point x="361" y="638" type="line"/>
			<point x="300" y="638" type="line"/>
			<point x="260" y="617"/>
			<point x="210" y="601"/>
			<point x="142" y="591" type="curve"/>
			<point x="142" y="538" type="line"/>
			<point x="279" y="538" type="line"/>
			<point x="279" y="68" type="line"/>
			<point x="99" y="68" type="line"/>
		</contour>
	</outline>
</glyph>
<glyph name="two" format="1">
	<unicode hex="0032"/>
	<advance width="600"/>
	<outline>
		<contour>
			<point x="73" y="0" type="line"/>
			<point x="522" y="0" type="line"/>
			<point x="522" y="71" type="line"/>
			<point x="312" y="71" type="line" smooth="yes"/>
			<point x="274" y="71"/>
			<point x="233" y="68"/>
			<point x="193" y="65" type="curve"/>
			<point x="367" y="223"/>
			<point x="487" y="342"/>
			<point x="487" y="462" type="curve" smooth="yes"/>
			<point x="487" y="575"/>
			<point x="407" y="650"/>
			<point x="279" y="650" type="curve" smooth="yes"/>
			<point x="189" y="650"/>
			<point x="126" y="611"/>
			<point x="69" y="553" type="curve"/>
			<point x="116" y="506" type="line"/>
			<point x="157" y="549"/>
			<point x="209" y="583"/>
			<point x="269" y="583" type="curve" smooth="yes"/>
			<point x="363" y="583"/>
			<point x="408" y="531"/>
			<point x="408" y="458" type="curve" smooth="yes"/>
			<point x="408" y="352"/>
			<point x="289" y="240"/>
			<point x="73" y="49" type="curve"/>
		</contour>
	</outline>
</glyph>
<glyph name="three" format="1">
	<unicode hex="0033"/>
	<advance width="600"/>
	<outline>
		<contour>
			<point x="287" y="-12" type="curve" smooth="yes"/>
			<point x="414" y="-12"/>
			<point x="518" y="57"/>
			<point x="518" y="170" type="curve" smooth="yes"/>
			<point x="518" y="258"/>
			<point x="445" y="314"/>
			<point x="360" y="332" type="curve"/>
			<point x="360" y="336" type="line"/>
			<point x="439" y="362"/>
			<point x="496" y="411"/>
			<point x="496" y="488" type="curve" smooth="yes"/>
			<point x="496" y="591"/>
			<point x="405" y="650"/>
			<point x="285" y="650" type="curve" smooth="yes"/>
			<point x="203" y="650"/>
			<point x="134" y="616"/>
			<point x="81" y="570" type="curve"/>
			<point x="125" y="518" type="line"/>
			<point x="167" y="556"/>
			<point x="222" y="583"/>
			<point x="282" y="583" type="curve" smooth="yes"/>
			<point x="360" y="583"/>
			<point x="412" y="544"/>
			<point x="412" y="482" type="curve" smooth="yes"/>
			<point x="412" y="415"/>
			<point x="354" y="363"/>
			<point x="203" y="363" type="curve"/>
			<point x="203" y="300" type="line"/>
			<point x="371" y="300"/>
			<point x="435" y="249"/>
			<point x="435" y="173" type="curve" smooth="yes"/>
			<point x="435" y="102"/>
			<point x="369" y="56"/>
			<point x="282" y="56" type="curve" smooth="yes"/>
			<point x="200" y="56"/>
			<point x="141" y="92"/>
			<point x="99" y="132" type="curve"/>
			<point x="57" y="78" type="line"/>
			<point x="104" y="31"/>
			<point x="177" y="-12"/>
		</contour>
	</outline>
</glyph>
<glyph name="four" format="1">
	<unicode hex="0034"/>
	<advance width="600"/>
	<outline>
		<contour>
			<point x="368" y="0" type="line"/>
			<point x="446" y="0" type="line"/>
			<point x="446" y="638" type="line"/>
			<point x="358" y="638" type="line"/>
			<point x="39" y="231" type="line"/>
			<point x="39" y="176" type="line"/>
			<point x="545" y="176" type="line"/>
			<point x="545" y="242" type="line"/>
			<point x="130" y="242" type="line"/>
			<point x="303" y="460" type="line"/>
			<point x="324" y="491"/>
			<point x="348" y="522"/>
			<point x="368" y="553" type="curve"/>
			<point x="373" y="553" type="line"/>
			<point x="371" y="518"/>
			<point x="369" y="475"/>
			<point x="368" y="440" type="curve"/>
		</contour>
	</outline>
</glyph>
<glyph name="six" format="1">
	<unicode hex="0036"/>
	<advance width="600"/>
	<outline>
		<contour>
			<point x="321" y="-12" type="curve" smooth="yes"/>
			<point x="435" y="-12"/>
			<point x="534" y="71"/>
			<point x="534" y="193" type="curve" smooth="yes"/>
			<point x="534" y="324"/>
			<point x="453" y="390"/>
			<point x="335" y="390" type="curve" smooth="yes"/>
			<point x="269" y="390"/>
			<point x="202" y="356"/>
			<point x="150" y="303" type="curve"/>
			<point x="153" y="238" type="line"/>
			<point x="208" y="303"/>
			<point x="269" y="328"/>
			<point x="320" y="328" type="curve" smooth="yes"/>
			<point x="408" y="328"/>
			<point x="456" y="280"/>
			<point x="456" y="193" type="curve" smooth="yes"/>
			<point x="456" y="109"/>
			<point x="397" y="53"/>
			<point x="321" y="53" type="curve" smooth="yes"/>
			<point x="215" y="53"/>
			<point x="154" y="138"/>
			<point x="154" y="295" type="curve" smooth="yes"/>
			<point x="154" y="509"/>
			<point x="245" y="581"/>
			<point x="349" y="581" type="curve" smooth="yes"/>
			<point x="397" y="581"/>
			<point x="443" y="562"/>
			<point x="476" y="531" type="curve"/>
			<point x="522" y="582" type="line"/>
			<point x="480" y="621"/>
			<point x="422" y="650"/>
			<point x="344" y="650" type="curve" smooth="yes"/>
			<point x="205" y="650"/>
			<point x="77" y="551"/>
			<point x="77" y="295" type="curve" smooth="yes"/>
			<point x="77" y="90"/>
			<point x="182" y="-12"/>
		</contour>
	</outline>
</glyph>
<glyph name="G" format="1">
	<unicode hex="0047"/>
	<advance width="600"/>
	<outline>
		<contour>
			<point x="337" y="-12" type="curve" smooth="yes"/>
			<point x="422" y="-12"/>
			<point x="492" y="22"/>
			<point x="533" y="64" type="curve"/>
			<point x="533" y="340" type="line"/>
			<point x="325" y="340" type="line"/>
			<point x="325" y="271" type="line"/>
			<point x="456" y="271" type="line"/>
			<point x="456" y="100" type="line"/>
			<point x="431" y="76"/>
			<point x="388" y="61"/>
			<point x="342" y="61" type="curve" smooth="yes"/>
			<point x="213" y="61"/>
			<point x="140" y="165"/>
			<point x="140" y="330" type="curve" smooth="yes"/>
			<point x="140" y="493"/>
			<point x="221" y="595"/>
			<point x="344" y="595" type="curve" smooth="yes"/>
			<point x="407" y="595"/>
			<point x="446" y="569"/>
			<point x="478" y="535" type="curve"/>
			<point x="525" y="588" type="line"/>
			<point x="488" y="627"/>
			<point x="431" y="668"/>
			<point x="344" y="668" type="curve" smooth="yes"/>
			<point x="174" y="668"/>
			<point x="53" y="540"/>
			<point x="53" y="328" type="curve" smooth="yes"/>
			<point x="53" y="114"/>
			<point x="172" y="-12"/>
		</contour>
		<contour>
			<point name="aboveUC" x="330" y="676" type="move"/>
		</contour>
		<contour>
			<point name="belowLC" x="330" y="-20" type="move"/>
		</contour>
	</outline>
</glyph>
<glyph name="K" format="1">
  <advance width="600"/>
  <unicode hex="004B"/>
  <outline>
    <contour>
      <point x="98" y="0" type="line"/>
      <point x="182" y="0" type="line"/>
      <point x="182" y="209" type="line"/>
      <point x="556" y="656" type="line"/>
      <point x="461" y="656" type="line"/>
      <point x="185" y="327" type="line"/>
      <point x="182" y="327" type="line"/>
      <point x="182" y="656" type="line"/>
      <point x="98" y="656" type="line"/>
    </contour>
    <contour>
      <point x="486" y="0" type="line"/>
      <point x="580" y="0" type="line"/>
      <point x="334" y="432" type="line"/>
      <point x="283" y="366" type="line"/>
    </contour>
    <contour>
      <point x="326" y="676" type="move" name="aboveUC"/>
    </contour>
    <contour>
      <point x="338" y="-20" type="move" name="belowLC"/>
    </contour>
  </outline>
</glyph>
<glyph name="O" format="1">
  <advance width="600"/>
  <unicode hex="004F"/>
  <outline>
    <contour>
      <point x="300" y="-12" type="curve" smooth="yes"/>
      <point x="448" y="-12"/>
      <point x="552" y="116"/>
      <point x="552" y="331" type="curve" smooth="yes"/>
      <point x="552" y="543"/>
      <point x="448" y="668"/>
      <point x="300" y="668" type="curve" smooth="yes"/>
      <point x="152" y="668"/>
      <point x="48" y="543"/>
      <point x="48" y="331" type="curve" smooth="yes"/>
      <point x="48" y="116"/>
      <point x="152" y="-12"/>
    </contour>
    <contour>
      <point x="300" y="61" type="curve" smooth="yes"/>
      <point x="200" y="61"/>
      <point x="134" y="163"/>
      <point x="134" y="331" type="curve" smooth="yes"/>
      <point x="134" y="496"/>
      <point x="200" y="595"/>
      <point x="300" y="595" type="curve" smooth="yes"/>
      <point x="400" y="595"/>
      <point x="466" y="496"/>
      <point x="466" y="331" type="curve" smooth="yes"/>
      <point x="466" y="163"/>
      <point x="400" y="61"/>
    </contour>
    <contour>
      <point x="300" y="676" type="move" name="aboveUC"/>
    </contour>
    <contour>
      <point x="420" y="646" type="move" name="hornLC"/>
    </contour>
    <contour>
      <point x="300" y="0" type="move" name="ogonekUC"/>
    </contour>
    <contour>
      <point x="300" y="0" type="move" name="baseLC"/>
    </contour>
    <contour>
      <point x="300" y="-20" type="move" name="belowLC"/>
    </contour>
  </outline>
</glyph>
<glyph name="P" format="1">
	<unicode hex="0050"/>
	<advance width="600"/>
	<outline>
		<contour>
			<point x="102" y="0" type="line"/>
			<point x="185" y="0" type="line"/>
			<point x="185" y="260" type="line"/>
			<point x="300" y="260" type="line" smooth="yes"/>
			<point x="444" y="260"/>
			<point x="543" y="325"/>
			<point x="543" y="463" type="curve" smooth="yes"/>
			<point x="543" y="607"/>
			<point x="445" y="656"/>
			<point x="300" y="656" type="curve" smooth="yes"/>
			<point x="102" y="656" type="line"/>
		</contour>
		<contour>
			<point x="185" y="328" type="line"/>
			<point x="185" y="589" type="line"/>
			<point x="290" y="589" type="line" smooth="yes"/>
			<point x="403" y="589"/>
			<point x="459" y="558"/>
			<point x="459" y="463" type="curve" smooth="yes"/>
			<point x="459" y="370"/>
			<point x="405" y="328"/>
			<point x="290" y="328" type="curve" smooth="yes"/>
		</contour>
		<contour>
			<point name="aboveUC" x="320" y="676" type="move"/>
		</contour>
		<contour>
			<point name="belowLC" x="140" y="-20" type="move"/>
		</contour>
	</outline>
</glyph>
<glyph name="S" format="1">
	<unicode hex="0053"/>
	<advance width="600"/>
	<outline>
		<contour>
			<point x="305" y="-12" type="curve" smooth="yes"/>
			<point x="449" y="-12"/>
			<point x="537" y="71"/>
			<point x="537" y="175" type="curve" smooth="yes"/>
			<point x="537" y="272"/>
			<point x="473" y="317"/>
			<point x="392" y="350" type="curve" smooth="yes"/>
			<point x="300" y="390" type="line" smooth="yes"/>
			<point x="244" y="413"/>
			<point x="183" y="436"/>
			<point x="183" y="499" type="curve" smooth="yes"/>
			<point x="183" y="558"/>
			<point x="234" y="595"/>
			<point x="310" y="595" type="curve" smooth="yes"/>
			<point x="378" y="595"/>
			<point x="428" y="571"/>
			<point x="471" y="533" type="curve"/>
			<point x="515" y="587" type="line"/>
			<point x="467" y="635"/>
			<point x="395" y="668"/>
			<point x="313" y="668" type="curve" smooth="yes"/>
			<point x="188" y="668"/>
			<point x="98" y="594"/>
			<point x="98" y="494" type="curve" smooth="yes"/>
			<point x="98" y="398"/>
			<point x="174" y="351"/>
			<point x="240" y="325" type="curve" smooth="yes"/>
			<point x="334" y="284" type="line" smooth="yes"/>
			<point x="401" y="255"/>
			<point x="452" y="235"/>
			<point x="452" y="165" type="curve" smooth="yes"/>
			<point x="452" y="104"/>
			<point x="399" y="61"/>
			<point x="309" y="61" type="curve" smooth="yes"/>
			<point x="234" y="61"/>
			<point x="166" y="94"/>
			<point x="117" y="143" type="curve"/>
			<point x="67" y="85" type="line"/>
			<point x="126" y="26"/>
			<point x="209" y="-12"/>
		</contour>
		<contour>
			<point name="aboveUC" x="316" y="676" type="move"/>
		</contour>
		<contour>
			<point name="baseLC" x="319" y="0" type="move"/>
		</contour>
		<contour>
			<point name="belowLC" x="313" y="-20" type="move"/>
		</contour>
	</outline>
</glyph>
<glyph name="U" format="1">
  <advance width="600"/>
  <unicode hex="0055"/>
  <outline>
    <contour>
      <point x="301" y="-12" type="curve" smooth="yes"/>
      <point x="429" y="-12"/>
      <point x="521" y="60"/>
      <point x="521" y="248" type="curve" smooth="yes"/>
      <point x="521" y="656" type="line"/>
      <point x="440" y="656" type="line"/>
      <point x="440" y="246" type="line" smooth="yes"/>
      <point x="440" y="110"/>
      <point x="380" y="61"/>
      <point x="301" y="61" type="curve" smooth="yes"/>
      <point x="222" y="61"/>
      <point x="163" y="110"/>
      <point x="163" y="246" type="curve" smooth="yes"/>
      <point x="163" y="656" type="line"/>
      <point x="79" y="656" type="line"/>
      <point x="79" y="248" type="line" smooth="yes"/>
      <point x="79" y="60"/>
      <point x="172" y="-12"/>
    </contour>
    <contour>
      <point x="300" y="676" type="move" name="aboveUC"/>
    </contour>
    <contour>
      <point x="503" y="666" type="move" name="hornLC"/>
    </contour>
    <contour>
      <point x="300" y="0" type="move" name="ogonekUC"/>
    </contour>
    <contour>
      <point x="300" y="0" type="move" name="baseLC"/>
    </contour>
    <contour>
      <point x="300" y="-20" type="move" name="belowLC"/>
    </contour>
  </outline>
</glyph>
<glyph name="X" format="1">
	<unicode hex="0058"/>
	<advance width="600"/>
	<outline>
		<contour>
			<point x="54" y="0" type="line"/>
			<point x="142" y="0" type="line"/>
			<point x="240" y="177" type="line" smooth="yes"/>
			<point x="257" y="209"/>
			<point x="274" y="242"/>
			<point x="293" y="282" type="curve"/>
			<point x="297" y="282" type="line"/>
			<point x="319" y="242"/>
			<point x="337" y="209"/>
			<point x="355" y="177" type="curve" smooth="yes"/>
			<point x="454" y="0" type="line"/>
			<point x="546" y="0" type="line"/>
			<point x="350" y="335" type="line"/>
			<point x="533" y="656" type="line"/>
			<point x="445" y="656" type="line"/>
			<point x="355" y="488" type="line" smooth="yes"/>
			<point x="339" y="458"/>
			<point x="326" y="431"/>
			<point x="308" y="393" type="curve"/>
			<point x="304" y="393" type="line"/>
			<point x="283" y="431"/>
			<point x="268" y="458"/>
			<point x="251" y="488" type="curve" smooth="yes"/>
			<point x="159" y="656" type="line"/>
			<point x="67" y="656" type="line"/>
			<point x="250" y="339" type="line"/>
		</contour>
		<contour>
			<point name="aboveUC" x="300" y="676" type="move"/>
		</contour>
		<contour>
			<point name="baseLC" x="495" y="0" type="move"/>
		</contour>
		<contour>
			<point name="belowLC" x="300" y="-20" type="move"/>
		</contour>
	</outline>
</glyph>
<glyph name="Y" format="1">
	<unicode hex="0059"/>
	<advance width="600"/>
	<outline>
		<contour>
			<point x="258" y="0" type="line"/>
			<point x="342" y="0" type="line"/>
			<point x="342" y="234" type="line"/>
			<point x="562" y="656" type="line"/>
			<point x="476" y="656" type="line"/>
			<point x="381" y="462" type="line" smooth="yes"/>
			<point x="356" y="411"/>
			<point x="330" y="361"/>
			<point x="304" y="308" type="curve"/>
			<point x="300" y="308" type="line"/>
			<point x="273" y="361"/>
			<point x="250" y="411"/>
			<point x="225" y="461" type="curve" smooth="yes"/>
			<point x="126" y="656" type="line"/>
			<point x="38" y="656" type="line"/>
			<point x="258" y="234" type="line"/>
		</contour>
		<contour>
			<point name="aboveUC" x="300" y="676" type="move"/>
		</contour>
		<contour>
			<point name="ogonekUC" x="300" y="0" type="move"/>
		</contour>
		<contour>
			<point name="belowLC" x="300" y="-20" type="move"/>
		</contour>
	</outline>
</glyph>
<glyph name="backslash" format="1">
	<unicode hex="005C"/>
	<advance width="600"/>
	<outline>
		<contour>
			<point x="427" y="-160" type="line"/>
			<point x="501" y="-160" type="line"/>
			<point x="173" y="710" type="line"/>
			<point x="99" y="710" type="line"/>
		</contour>
	</outline>
</glyph>
<glyph name="a" format="1">
	<unicode hex="0061"/>
	<advance width="600"/>
	<outline>
		<contour>
			<point x="246" y="-12" type="curve" smooth="yes"/>
			<point x="315" y="-12"/>
			<point x="384" y="24"/>
			<point x="438" y="66" type="curve"/>
			<point x="441" y="66" type="line"/>
			<point x="448" y="0" type="line"/>
			<point x="515" y="0" type="line"/>
			<point x="515" y="298" type="line" smooth="yes"/>
			<point x="515" y="419"/>
			<point x="451" y="498"/>
			<point x="318" y="498" type="curve" smooth="yes"/>
			<point x="233" y="498"/>
			<point x="151" y="460"/>
			<point x="102" y="428" type="curve"/>
			<point x="134" y="372" type="line"/>
			<point x="179" y="400"/>
			<point x="241" y="430"/>
			<point x="304" y="430" type="curve" smooth="yes"/>
			<point x="398" y="430"/>
			<point x="431" y="374"/>
			<point x="433" y="308" type="curve"/>
			<point x="182" y="288"/>
			<point x="81" y="235"/>
			<point x="81" y="126" type="curve" smooth="yes"/>
			<point x="81" y="39"/>
			<point x="155" y="-12"/>
		</contour>
		<contour>
			<point x="268" y="54" type="curve" smooth="yes"/>
			<point x="212" y="54"/>
			<point x="161" y="77"/>
			<point x="161" y="132" type="curve" smooth="yes"/>
			<point x="161" y="196"/>
			<point x="225" y="237"/>
			<point x="433" y="254" type="curve"/>
			<point x="433" y="126" type="line"/>
			<point x="378" y="80"/>
			<point x="323" y="54"/>
		</contour>
		<contour>
			<point name="ogonekCXT-ATH" x="312" y="0" type="move"/>
		</contour>
		<contour>
			<point name="ogonekLC" x="436" y="0" type="move"/>
		</contour>
		<contour>
			<point name="aboveLC" x="320" y="507" type="move"/>
		</contour>
		<contour>
			<point name="baseLC" x="473" y="0" type="move"/>
		</contour>
		<contour>
			<point name="belowLC" x="300" y="-20" type="move"/>
		</contour>
	</outline>
</glyph>
<glyph name="d" format="1">
  <advance width="600"/>
  <unicode hex="0064"/>
  <outline>
    <contour>
      <point x="271" y="-12" type="curve" smooth="yes"/>
      <point x="331" y="-12"/>
      <point x="389" y="23"/>
      <point x="429" y="64" type="curve"/>
      <point x="432" y="64" type="line"/>
      <point x="439" y="0" type="line"/>
      <point x="507" y="0" type="line"/>
      <point x="507" y="712" type="line"/>
      <point x="425" y="712" type="line"/>
      <point x="425" y="525" type="line"/>
      <point x="429" y="435" type="line"/>
      <point x="426" y="435" type="line"/>
      <point x="384" y="475"/>
      <point x="339" y="498"/>
      <point x="281" y="498" type="curve" smooth="yes"/>
      <point x="166" y="498"/>
      <point x="60" y="400"/>
      <point x="60" y="242" type="curve" smooth="yes"/>
      <point x="60" y="80"/>
      <point x="144" y="-12"/>
    </contour>
    <contour>
      <point x="288" y="57" type="curve" smooth="yes"/>
      <point x="198" y="57"/>
      <point x="145" y="127"/>
      <point x="145" y="243" type="curve" smooth="yes"/>
      <point x="145" y="354"/>
      <point x="213" y="429"/>
      <point x="297" y="429" type="curve" smooth="yes"/>
      <point x="339" y="429"/>
      <point x="381" y="413"/>
      <point x="425" y="372" type="curve"/>
      <point x="425" y="130" type="line"/>
      <point x="382" y="82"/>
      <point x="336" y="57"/>
    </contour>
    <contour>
      <point x="459" y="736" type="move" name="aboveUC"/>
    </contour>
    <contour>
      <point x="289" y="0" type="move" name="baseLC"/>
    </contour>
    <contour>
      <point x="304" y="-20" type="move" name="belowLC"/>
    </contour>
  </outline>
</glyph>
<glyph name="e" format="1">
  <advance width="600"/>
  <unicode hex="0065"/>
  <outline>
    <contour>
      <point x="330" y="-12" type="curve" smooth="yes"/>
      <point x="408" y="-12"/>
      <point x="470" y="14"/>
      <point x="518" y="46" type="curve"/>
      <point x="488" y="100" type="line"/>
      <point x="444" y="72"/>
      <point x="398" y="54"/>
      <point x="340" y="54" type="curve" smooth="yes"/>
      <point x="232" y="54"/>
      <point x="150" y="118"/>
      <point x="150" y="244" type="curve" smooth="yes"/>
      <point x="150" y="365"/>
      <point x="228" y="433"/>
      <point x="318" y="433" type="curve" smooth="yes"/>
      <point x="407" y="433"/>
      <point x="464" y="376"/>
      <point x="464" y="261" type="curve"/>
      <point x="485" y="284" type="line"/>
      <point x="123" y="284" type="line"/>
      <point x="123" y="220" type="line"/>
      <point x="534" y="220" type="line"/>
      <point x="536" y="233"/>
      <point x="538" y="251"/>
      <point x="538" y="270" type="curve" smooth="yes"/>
      <point x="538" y="407"/>
      <point x="456" y="498"/>
      <point x="316" y="498" type="curve" smooth="yes"/>
      <point x="186" y="498"/>
      <point x="68" y="402"/>
      <point x="68" y="244" type="curve" smooth="yes"/>
      <point x="68" y="82"/>
      <point x="184" y="-12"/>
    </contour>
    <contour>
      <point x="404" y="0" type="move" name="ogonekLC"/>
    </contour>
    <contour>
      <point x="316" y="507" type="move" name="aboveLC"/>
    </contour>
    <contour>
      <point x="316" y="0" type="move" name="baseLC"/>
    </contour>
    <contour>
      <point x="316" y="-20" type="move" name="belowLC"/>
    </contour>
  </outline>
</glyph>
<glyph name="g" format="1">
	<unicode hex="0067"/>
	<advance width="600"/>
	<outline>
		<contour>
			<point x="296" y="-224" type="curve" smooth="yes"/>
			<point x="461" y="-224"/>
			<point x="566" y="-145"/>
			<point x="566" y="-54" type="curve" smooth="yes"/>
			<point x="566" y="28"/>
			<point x="506" y="60"/>
			<point x="381" y="60" type="curve" smooth="yes"/>
			<point x="272" y="60" type="line"/>
			<point x="208" y="60"/>
			<point x="171" y="78"/>
			<point x="171" y="116" type="curve" smooth="yes"/>
			<point x="171" y="139"/>
			<point x="185" y="157"/>
			<point x="209" y="172" type="curve"/>
			<point x="236" y="160"/>
			<point x="266" y="154"/>
			<point x="291" y="154" type="curve" smooth="yes"/>
			<point x="396" y="154"/>
			<point x="479" y="217"/>
			<point x="479" y="321" type="curve" smooth="yes"/>
			<point x="479" y="360"/>
			<point x="460" y="396"/>
			<point x="438" y="419" type="curve"/>
			<point x="564" y="419" type="line"/>
			<point x="564" y="486" type="line"/>
			<point x="363" y="486" type="line"/>
			<point x="342" y="494"/>
			<point x="319" y="498"/>
			<point x="291" y="498" type="curve" smooth="yes"/>
			<point x="188" y="498"/>
			<point x="100" y="430"/>
			<point x="100" y="324" type="curve" smooth="yes"/>
			<point x="100" y="266"/>
			<point x="127" y="223"/>
			<point x="160" y="198" type="curve"/>
			<point x="160" y="194" type="line"/>
			<point x="123" y="169"/>
			<point x="102" y="134"/>
			<point x="102" y="103" type="curve" smooth="yes"/>
			<point x="102" y="62"/>
			<point x="126" y="37"/>
			<point x="152" y="23" type="curve"/>
			<point x="152" y="19" type="line"/>
			<point x="100" y="-11"/>
			<point x="72" y="-50"/>
			<point x="72" y="-89" type="curve" smooth="yes"/>
			<point x="72" y="-175"/>
			<point x="154" y="-224"/>
		</contour>
		<contour>
			<point x="291" y="209" type="curve" smooth="yes"/>
			<point x="230" y="209"/>
			<point x="179" y="254"/>
			<point x="179" y="324" type="curve" smooth="yes"/>
			<point x="179" y="392"/>
			<point x="230" y="438"/>
			<point x="291" y="438" type="curve" smooth="yes"/>
			<point x="353" y="438"/>
			<point x="403" y="392"/>
			<point x="403" y="324" type="curve" smooth="yes"/>
			<point x="403" y="254"/>
			<point x="353" y="209"/>
		</contour>
		<contour>
			<point x="302" y="-164" type="curve" smooth="yes"/>
			<point x="198" y="-164"/>
			<point x="143" y="-132"/>
			<point x="143" y="-81" type="curve" smooth="yes"/>
			<point x="143" y="-53"/>
			<point x="159" y="-25"/>
			<point x="205" y="0" type="curve"/>
			<point x="226" y="-6"/>
			<point x="251" y="-8"/>
			<point x="279" y="-8" type="curve" smooth="yes"/>
			<point x="374" y="-8" type="line"/>
			<point x="448" y="-8"/>
			<point x="485" y="-21"/>
			<point x="485" y="-67" type="curve" smooth="yes"/>
			<point x="485" y="-117"/>
			<point x="415" y="-164"/>
		</contour>
		<contour>
			<point name="aboveLC" x="307" y="507" type="move"/>
		</contour>
		<contour>
			<point name="belowLC" x="308" y="-219" type="move"/>
		</contour>
	</outline>
</glyph>
<glyph name="h" format="1">
  <advance width="600"/>
  <unicode hex="0068"/>
  <outline>
    <contour>
      <point x="93" y="0" type="line"/>
      <point x="175" y="0" type="line"/>
      <point x="175" y="339" type="line"/>
      <point x="232" y="398"/>
      <point x="271" y="427"/>
      <point x="329" y="427" type="curve" smooth="yes"/>
      <point x="409" y="427"/>
      <point x="441" y="383"/>
      <point x="441" y="291" type="curve" smooth="yes"/>
      <point x="441" y="0" type="line"/>
      <point x="523" y="0" type="line"/>
      <point x="523" y="302" type="line" smooth="yes"/>
      <point x="523" y="430"/>
      <point x="470" y="498"/>
      <point x="355" y="498" type="curve" smooth="yes"/>
      <point x="279" y="498"/>
      <point x="223" y="457"/>
      <point x="173" y="403" type="curve"/>
      <point x="170" y="403" type="line"/>
      <point x="175" y="518" type="line"/>
      <point x="175" y="712" type="line"/>
      <point x="93" y="712" type="line"/>
    </contour>
    <contour>
      <point x="131" y="736" type="move" name="aboveUC"/>
    </contour>
    <contour>
      <point x="130" y="0" type="move" name="baseLC"/>
    </contour>
    <contour>
      <point x="314" y="-20" type="move" name="belowLC"/>
    </contour>
  </outline>
</glyph>
<glyph name="j" format="1">
	<unicode hex="006A"/>
	<advance width="600"/>
	<outline>
		<component base="dotlessj"/>
		<component base="dotaccentcmb" xOffset="48"/>
		<contour>
			<point name="aboveUC" x="348" y="738" type="move"/>
		</contour>
		<contour>
			<point name="belowLC" x="237" y="-219" type="move"/>
		</contour>
	</outline>
</glyph>
<glyph name="l" format="1">
  <advance width="600"/>
  <unicode hex="006C"/>
  <outline>
    <contour>
      <point x="407" y="-12" type="curve" smooth="yes"/>
      <point x="460" y="-12"/>
      <point x="492" y="-2"/>
      <point x="537" y="17" type="curve"/>
      <point x="516" y="78" type="line"/>
      <point x="483" y="63"/>
      <point x="453" y="56"/>
      <point x="425" y="56" type="curve" smooth="yes"/>
      <point x="367" y="56"/>
      <point x="329" y="86"/>
      <point x="329" y="157" type="curve" smooth="yes"/>
      <point x="329" y="712" type="line"/>
      <point x="81" y="712" type="line"/>
      <point x="81" y="645" type="line"/>
      <point x="247" y="645" type="line"/>
      <point x="247" y="163" type="line" smooth="yes"/>
      <point x="247" y="48"/>
      <point x="304" y="-12"/>
    </contour>
    <contour>
      <point x="285" y="736" type="move" name="aboveUC"/>
    </contour>
    <contour>
      <point x="288" y="385" type="move" name="center"/>
    </contour>
    <contour>
      <point x="363" y="0" type="move" name="baseLC"/>
    </contour>
    <contour>
      <point x="385" y="-20" type="move" name="belowLC"/>
    </contour>
  </outline>
</glyph>
<glyph name="u" format="1">
	<unicode hex="0075"/>
	<advance width="600"/>
	<outline>
		<contour>
			<point x="246" y="-12" type="curve" smooth="yes"/>
			<point x="321" y="-12"/>
			<point x="378" y="28"/>
			<point x="427" y="85" type="curve"/>
			<point x="431" y="85" type="line"/>
			<point x="438" y="0" type="line"/>
			<point x="505" y="0" type="line"/>
			<point x="505" y="486" type="line"/>
			<point x="423" y="486" type="line"/>
			<point x="423" y="149" type="line"/>
			<point x="369" y="86"/>
			<point x="328" y="59"/>
			<point x="272" y="59" type="curve" smooth="yes"/>
			<point x="191" y="59"/>
			<point x="160" y="103"/>
			<point x="160" y="195" type="curve" smooth="yes"/>
			<point x="160" y="486" type="line"/>
			<point x="77" y="486" type="line"/>
			<point x="77" y="184" type="line" smooth="yes"/>
			<point x="77" y="56"/>
			<point x="130" y="-12"/>
		</contour>
		<contour>
			<point name="ogonekCXT-ATH" x="286" y="0" type="move"/>
		</contour>
		<contour>
			<point name="ogonekLC" x="426" y="0" type="move"/>
		</contour>
		<contour>
			<point name="aboveLC" x="295" y="507" type="move"/>
		</contour>
		<contour>
			<point name="baseLC" x="464" y="0" type="move"/>
		</contour>
		<contour>
			<point name="belowLC" x="300" y="-20" type="move"/>
		</contour>
	</outline>
</glyph>
<glyph name="w" format="1">
  <advance width="600"/>
  <unicode hex="0077"/>
  <outline>
    <contour>
      <point x="114" y="0" type="line"/>
      <point x="220" y="0" type="line"/>
      <point x="274" y="232" type="line" smooth="yes"/>
      <point x="282" y="266"/>
      <point x="290" y="314"/>
      <point x="298" y="376" type="curve"/>
      <point x="302" y="376" type="line"/>
      <point x="310" y="314"/>
      <point x="318" y="266"/>
      <point x="326" y="232" type="curve" smooth="yes"/>
      <point x="382" y="0" type="line"/>
      <point x="488" y="0" type="line"/>
      <point x="592" y="486" type="line"/>
      <point x="516" y="486" type="line"/>
      <point x="458" y="204" type="line" smooth="yes"/>
      <point x="449" y="158"/>
      <point x="444" y="116"/>
      <point x="436" y="70" type="curve"/>
      <point x="432" y="70" type="line"/>
      <point x="426" y="116"/>
      <point x="413" y="158"/>
      <point x="402" y="204" type="curve" smooth="yes"/>
      <point x="344" y="456" type="line"/>
      <point x="262" y="456" type="line"/>
      <point x="202" y="204" type="line"/>
      <point x="191" y="159"/>
      <point x="180" y="116"/>
      <point x="174" y="70" type="curve"/>
      <point x="170" y="70" type="line"/>
      <point x="164" y="116"/>
      <point x="157" y="158"/>
      <point x="148" y="204" type="curve" smooth="yes"/>
      <point x="90" y="486" type="line"/>
      <point x="8" y="486" type="line"/>
    </contour>
    <contour>
      <point x="300" y="507" type="move" name="aboveLC"/>
    </contour>
    <contour>
      <point x="300" y="-20" type="move" name="belowLC"/>
    </contour>
  </outline>
</glyph>
<glyph name="x" format="1">
	<unicode hex="0078"/>
	<advance width="600"/>
	<outline>
		<contour>
			<point x="64" y="0" type="line"/>
			<point x="152" y="0" type="line"/>
			<point x="232" y="112" type="line" smooth="yes"/>
			<point x="252" y="143"/>
			<point x="272" y="171"/>
			<point x="292" y="200" type="curve"/>
			<point x="296" y="200" type="line"/>
			<point x="317" y="172"/>
			<point x="340" y="140"/>
			<point x="360" y="112" type="curve" smooth="yes"/>
			<point x="445" y="0" type="line"/>
			<point x="535" y="0" type="line"/>
			<point x="349" y="245" type="line"/>
			<point x="522" y="486" type="line"/>
			<point x="435" y="486" type="line"/>
			<point x="362" y="381" type="line" smooth="yes"/>
			<point x="345" y="354"/>
			<point x="325" y="324"/>
			<point x="307" y="297" type="curve"/>
			<point x="303" y="297" type="line"/>
			<point x="283" y="324"/>
			<point x="263" y="353"/>
			<point x="246" y="379" type="curve" smooth="yes"/>
			<point x="169" y="486" type="line"/>
			<point x="78" y="486" type="line"/>
			<point x="249" y="252" type="line"/>
		</contour>
		<contour>
			<point name="aboveLC" x="300" y="507" type="move"/>
		</contour>
		<contour>
			<point name="baseLC" x="480" y="0" type="move"/>
		</contour>
		<contour>
			<point name="belowLC" x="300" y="-20" type="move"/>
		</contour>
	</outline>
</glyph>
<glyph name="braceleft" format="1">
	<unicode hex="007B"/>
	<advance width="600"/>
	<outline>
		<contour>
			<point x="441" y="-152" type="curve" smooth="yes"/>
			<point x="502" y="-152" type="line"/>
			<point x="502" y="-105" type="line"/>
			<point x="450" y="-105" type="line" smooth="yes"/>
			<point x="348" y="-105"/>
			<point x="326" y="-79"/>
			<point x="326" y="-14" type="curve" smooth="yes"/>
			<point x="326" y="47"/>
			<point x="332" y="99"/>
			<point x="332" y="167" type="curve" smooth="yes"/>
			<point x="332" y="232"/>
			<point x="310" y="264"/>
			<point x="241" y="276" type="curve"/>
			<point x="241" y="280" type="line"/>
			<point x="310" y="292"/>
			<point x="332" y="324"/>
			<point x="332" y="389" type="curve" smooth="yes"/>
			<point x="332" y="451"/>
			<point x="326" y="513"/>
			<point x="326" y="570" type="curve" smooth="yes"/>
			<point x="326" y="635"/>
			<point x="348" y="661"/>
			<point x="450" y="661" type="curve" smooth="yes"/>
			<point x="502" y="661" type="line"/>
			<point x="502" y="708" type="line"/>
			<point x="441" y="708" type="line" smooth="yes"/>
			<point x="315" y="708"/>
			<point x="256" y="678"/>
			<point x="256" y="575" type="curve" smooth="yes"/>
			<point x="256" y="506"/>
			<point x="265" y="445"/>
			<point x="265" y="382" type="curve" smooth="yes"/>
			<point x="265" y="343"/>
			<point x="238" y="305"/>
			<point x="120" y="304" type="curve"/>
			<point x="120" y="252" type="line"/>
			<point x="238" y="251"/>
			<point x="265" y="213"/>
			<point x="265" y="174" type="curve" smooth="yes"/>
			<point x="265" y="107"/>
			<point x="256" y="54"/>
			<point x="256" y="-19" type="curve" smooth="yes"/>
			<point x="256" y="-122"/>
			<point x="315" y="-152"/>
		</contour>
	</outline>
</glyph>
<glyph name="bar" format="1">
  <advance width="600"/>
  <unicode hex="007C"/>
  <outline>
    <contour>
      <point x="263" y="-250" type="line"/>
      <point x="337" y="-250" type="line"/>
      <point x="337" y="750" type="line"/>
      <point x="263" y="750" type="line"/>
    </contour>
  </outline>
</glyph>
<glyph name="exclamdown" format="1">
	<unicode hex="00A1"/>
	<advance width="600"/>
	<outline>
		<contour>
			<point x="260" y="-184" type="line"/>
			<point x="340" y="-184" type="line"/>
			<point x="338" y="-90" type="line"/>
			<point x="328" y="254" type="line"/>
			<point x="272" y="254" type="line"/>
			<point x="262" y="-90" type="line"/>
		</contour>
		<contour>
			<point x="300" y="344" type="curve" smooth="yes"/>
			<point x="340" y="344"/>
			<point x="373" y="373"/>
			<point x="373" y="421" type="curve" smooth="yes"/>
			<point x="373" y="468"/>
			<point x="340" y="498"/>
			<point x="300" y="498" type="curve" smooth="yes"/>
			<point x="260" y="498"/>
			<point x="227" y="468"/>
			<point x="227" y="421" type="curve" smooth="yes"/>
			<point x="227" y="373"/>
			<point x="260" y="344"/>
		</contour>
	</outline>
</glyph>
<glyph name="currency" format="1">
	<unicode hex="00A4"/>
	<advance width="600"/>
	<outline>
		<contour>
			<point x="102" y="83" type="line"/>
			<point x="189" y="172" type="line"/>
			<point x="221" y="147"/>
			<point x="259" y="134"/>
			<point x="300" y="134" type="curve" smooth="yes"/>
			<point x="340" y="134"/>
			<point x="379" y="147"/>
			<point x="410" y="172" type="curve"/>
			<point x="498" y="83" type="line"/>
			<point x="542" y="128" type="line"/>
			<point x="458" y="213" type="line"/>
			<point x="480" y="244"/>
			<point x="494" y="283"/>
			<point x="494" y="329" type="curve" smooth="yes"/>
			<point x="494" y="375"/>
			<point x="481" y="415"/>
			<point x="458" y="446" type="curve"/>
			<point x="542" y="532" type="line"/>
			<point x="498" y="577" type="line"/>
			<point x="411" y="487" type="line"/>
			<point x="379" y="511"/>
			<point x="340" y="524"/>
			<point x="300" y="524" type="curve" smooth="yes"/>
			<point x="259" y="524"/>
			<point x="220" y="511"/>
			<point x="189" y="487" type="curve"/>
			<point x="102" y="577" type="line"/>
			<point x="58" y="532" type="line"/>
			<point x="141" y="446" type="line"/>
			<point x="119" y="415"/>
			<point x="106" y="375"/>
			<point x="106" y="329" type="curve" smooth="yes"/>
			<point x="106" y="283"/>
			<point x="119" y="244"/>
			<point x="142" y="213" type="curve"/>
			<point x="58" y="128" type="line"/>
		</contour>
		<contour>
			<point x="300" y="195" type="curve" smooth="yes"/>
			<point x="235" y="195"/>
			<point x="182" y="249"/>
			<point x="182" y="329" type="curve" smooth="yes"/>
			<point x="182" y="409"/>
			<point x="235" y="463"/>
			<point x="300" y="463" type="curve" smooth="yes"/>
			<point x="365" y="463"/>
			<point x="418" y="409"/>
			<point x="418" y="329" type="curve" smooth="yes"/>
			<point x="418" y="249"/>
			<point x="365" y="195"/>
		</contour>
	</outline>
</glyph>
<glyph name="yen" format="1">
	<unicode hex="00A5"/>
	<advance width="600"/>
	<outline>
		<contour>
			<point x="258" y="0" type="line"/>
			<point x="340" y="0" type="line"/>
			<point x="340" y="158" type="line"/>
			<point x="523" y="158" type="line"/>
			<point x="523" y="206" type="line"/>
			<point x="340" y="206" type="line"/>
			<point x="340" y="271" type="line"/>
			<point x="523" y="271" type="line"/>
			<point x="523" y="318" type="line"/>
			<point x="361" y="318" type="line"/>
			<point x="547" y="638" type="line"/>
			<point x="465" y="638" type="line"/>
			<point x="373" y="467" type="line" smooth="yes"/>
			<point x="349" y="423"/>
			<point x="327" y="379"/>
			<point x="303" y="332" type="curve"/>
			<point x="299" y="332" type="line"/>
			<point x="274" y="379"/>
			<point x="253" y="423"/>
			<point x="230" y="467" type="curve" smooth="yes"/>
			<point x="138" y="638" type="line"/>
			<point x="53" y="638" type="line"/>
			<point x="238" y="318" type="line"/>
			<point x="77" y="318" type="line"/>
			<point x="77" y="271" type="line"/>
			<point x="258" y="271" type="line"/>
			<point x="258" y="206" type="line"/>
			<point x="77" y="206" type="line"/>
			<point x="77" y="158" type="line"/>
			<point x="258" y="158" type="line"/>
		</contour>
	</outline>
</glyph>
<glyph name="section" format="1">
	<unicode hex="00A7"/>
	<advance width="600"/>
	<outline>
		<contour>
			<point x="287" y="-64" type="curve" smooth="yes"/>
			<point x="382" y="-64"/>
			<point x="448" y="-6"/>
			<point x="448" y="73" type="curve" smooth="yes"/>
			<point x="448" y="243"/>
			<point x="162" y="214"/>
			<point x="162" y="348" type="curve" smooth="yes"/>
			<point x="162" y="394"/>
			<point x="195" y="421"/>
			<point x="245" y="443" type="curve"/>
			<point x="206" y="484" type="line"/>
			<point x="141" y="457"/>
			<point x="91" y="410"/>
			<point x="91" y="343" type="curve" smooth="yes"/>
			<point x="91" y="158"/>
			<point x="373" y="183"/>
			<point x="373" y="69" type="curve" smooth="yes"/>
			<point x="373" y="31"/>
			<point x="341" y="0"/>
			<point x="287" y="0" type="curve" smooth="yes"/>
			<point x="231" y="0"/>
			<point x="193" y="20"/>
			<point x="158" y="52" type="curve"/>
			<point x="108" y="7" type="line"/>
			<point x="150" y="-37"/>
			<point x="214" y="-64"/>
		</contour>
		<contour>
			<point x="348" y="183" type="curve"/>
			<point x="393" y="141" type="line"/>
			<point x="462" y="173"/>
			<point x="509" y="211"/>
			<point x="509" y="284" type="curve" smooth="yes"/>
			<point x="509" y="468"/>
			<point x="226" y="449"/>
			<point x="226" y="557" type="curve" smooth="yes"/>
			<point x="226" y="591"/>
			<point x="250" y="620"/>
			<point x="306" y="620" type="curve" smooth="yes"/>
			<point x="352" y="620"/>
			<point x="389" y="600"/>
			<point x="423" y="574" type="curve"/>
			<point x="463" y="627" type="line"/>
			<point x="423" y="658"/>
			<point x="368" y="684"/>
			<point x="302" y="684" type="curve" smooth="yes"/>
			<point x="202" y="684"/>
			<point x="151" y="623"/>
			<point x="151" y="554" type="curve" smooth="yes"/>
			<point x="151" y="387"/>
			<point x="438" y="416"/>
			<point x="438" y="278" type="curve" smooth="yes"/>
			<point x="438" y="226"/>
			<point x="406" y="204"/>
		</contour>
	</outline>
</glyph>
<glyph name="logicalnot" format="1">
	<unicode hex="00AC"/>
	<advance width="600"/>
	<outline>
		<contour>
			<point x="449" y="104" type="line"/>
			<point x="515" y="104" type="line"/>
			<point x="515" y="361" type="line"/>
			<point x="85" y="361" type="line"/>
			<point x="85" y="299" type="line"/>
			<point x="449" y="299" type="line"/>
		</contour>
	</outline>
</glyph>
<glyph name="Adieresis" format="1">
	<unicode hex="00C4"/>
	<advance width="600"/>
	<outline>
		<component base="A"/>
		<component base="dieresiscmb.cap"/>
		<contour>
			<point name="ogonekUC" x="504" y="0" type="move"/>
		</contour>
	</outline>
</glyph>
<glyph name="AE" format="1">
  <advance width="600"/>
  <unicode hex="00C6"/>
  <outline>
    <contour>
      <point x="-1" y="0" type="line"/>
      <point x="86" y="0" type="line"/>
      <point x="231" y="377" type="line" smooth="yes"/>
      <point x="258" y="448"/>
      <point x="287" y="518"/>
      <point x="314" y="590" type="curve"/>
      <point x="317" y="590" type="line"/>
      <point x="317" y="0" type="line"/>
      <point x="591" y="0" type="line"/>
      <point x="591" y="71" type="line"/>
      <point x="393" y="71" type="line"/>
      <point x="393" y="310" type="line"/>
      <point x="540" y="310" type="line"/>
      <point x="540" y="381" type="line"/>
      <point x="393" y="381" type="line"/>
      <point x="393" y="586" type="line"/>
      <point x="582" y="586" type="line"/>
      <point x="582" y="656" type="line"/>
      <point x="263" y="656" type="line"/>
    </contour>
    <contour>
      <point x="131" y="191" type="line"/>
      <point x="357" y="191" type="line"/>
      <point x="357" y="258" type="line"/>
      <point x="131" y="258" type="line"/>
    </contour>
    <contour>
      <point x="420" y="676" type="move" name="aboveUC"/>
    </contour>
    <contour>
      <point x="464" y="0" type="move" name="baseLC"/>
    </contour>
    <contour>
      <point x="336" y="-20" type="move" name="belowLC"/>
    </contour>
  </outline>
</glyph>
<glyph name="Eacute" format="1">
	<unicode hex="00C9"/>
	<advance width="600"/>
	<outline>
		<component base="E"/>
		<component base="acutecmb.cap" xOffset="31"/>
		<contour>
			<point name="ogonekUC" x="429" y="0" type="move"/>
		</contour>
	</outline>
</glyph>
<glyph name="multiply" format="1">
	<unicode hex="00D7"/>
	<advance width="600"/>
	<outline>
		<contour>
			<point x="146" y="126" type="line"/>
			<point x="300" y="286" type="line"/>
			<point x="454" y="126" type="line"/>
			<point x="498" y="171" type="line"/>
			<point x="344" y="330" type="line"/>
			<point x="498" y="488" type="line"/>
			<point x="454" y="533" type="line"/>
			<point x="300" y="374" type="line"/>
			<point x="146" y="533" type="line"/>
			<point x="102" y="488" type="line"/>
			<point x="256" y="330" type="line"/>
			<point x="102" y="171" type="line"/>
		</contour>
	</outline>
</glyph>
<glyph name="Oslash" format="1">
  <advance width="600"/>
  <unicode hex="00D8"/>
  <outline>
    <contour>
      <point x="36" y="4" type="line"/>
      <point x="92" y="-32" type="line"/>
      <point x="560" y="652" type="line"/>
      <point x="504" y="688" type="line"/>
    </contour>
    <component base="O"/>
    <contour>
      <point x="300" y="676" type="move" name="aboveUC"/>
    </contour>
    <contour>
      <point x="300" y="0" type="move" name="baseLC"/>
    </contour>
  </outline>
</glyph>
<glyph name="Thorn" format="1">
	<unicode hex="00DE"/>
	<advance width="600"/>
	<outline>
		<contour>
			<point x="101" y="0" type="line"/>
			<point x="185" y="0" type="line"/>
			<point x="185" y="150" type="line"/>
			<point x="303" y="150" type="line" smooth="yes"/>
			<point x="446" y="150"/>
			<point x="545" y="214"/>
			<point x="545" y="353" type="curve" smooth="yes"/>
			<point x="545" y="496"/>
			<point x="448" y="546"/>
			<point x="303" y="546" type="curve" smooth="yes"/>
			<point x="185" y="546" type="line"/>
			<point x="185" y="656" type="line"/>
			<point x="101" y="656" type="line"/>
		</contour>
		<contour>
			<point x="185" y="218" type="line"/>
			<point x="185" y="478" type="line"/>
			<point x="292" y="478" type="line" smooth="yes"/>
			<point x="405" y="478"/>
			<point x="462" y="447"/>
			<point x="462" y="353" type="curve" smooth="yes"/>
			<point x="462" y="259"/>
			<point x="407" y="218"/>
			<point x="292" y="218" type="curve" smooth="yes"/>
		</contour>
	</outline>
</glyph>
<glyph name="aring" format="1">
	<unicode hex="00E5"/>
	<advance width="600"/>
	<outline>
		<component base="a"/>
		<component base="ringcmb" xOffset="20"/>
		<contour>
			<point name="ogonekLC" x="436" y="0" type="move"/>
		</contour>
	</outline>
</glyph>
<glyph name="ae" format="1">
  <advance width="600"/>
  <unicode hex="00E6"/>
  <outline>
    <contour>
      <point x="145" y="-12" type="curve" smooth="yes"/>
      <point x="211" y="-12"/>
      <point x="270" y="29"/>
      <point x="322" y="97" type="curve"/>
      <point x="294" y="139" type="line"/>
      <point x="258" y="84"/>
      <point x="208" y="54"/>
      <point x="167" y="54" type="curve" smooth="yes"/>
      <point x="123" y="54"/>
      <point x="93" y="81"/>
      <point x="93" y="128" type="curve" smooth="yes"/>
      <point x="93" y="190"/>
      <point x="134" y="233"/>
      <point x="285" y="251" type="curve"/>
      <point x="285" y="304" type="line"/>
      <point x="95" y="284"/>
      <point x="17" y="222"/>
      <point x="17" y="120" type="curve" smooth="yes"/>
      <point x="17" y="38"/>
      <point x="71" y="-12"/>
    </contour>
    <contour>
      <point x="454" y="-12" type="curve" smooth="yes"/>
      <point x="504" y="-12"/>
      <point x="549" y="7"/>
      <point x="582" y="31" type="curve"/>
      <point x="552" y="87" type="line"/>
      <point x="526" y="69"/>
      <point x="494" y="55"/>
      <point x="457" y="55" type="curve" smooth="yes"/>
      <point x="375" y="55"/>
      <point x="331" y="128"/>
      <point x="331" y="244" type="curve" smooth="yes"/>
      <point x="331" y="382"/>
      <point x="387" y="433"/>
      <point x="443" y="433" type="curve" smooth="yes"/>
      <point x="503" y="433"/>
      <point x="530" y="377"/>
      <point x="530" y="264" type="curve"/>
      <point x="545" y="284" type="line"/>
      <point x="308" y="284" type="line"/>
      <point x="308" y="220" type="line"/>
      <point x="593" y="220" type="line"/>
      <point x="595" y="237"/>
      <point x="597" y="257"/>
      <point x="597" y="276" type="curve" smooth="yes"/>
      <point x="597" y="395"/>
      <point x="549" y="498"/>
      <point x="448" y="498" type="curve" smooth="yes"/>
      <point x="386" y="498"/>
      <point x="326" y="460"/>
      <point x="296" y="366" type="curve"/>
      <point x="317" y="366" type="line"/>
      <point x="296" y="460"/>
      <point x="251" y="498"/>
      <point x="185" y="498" type="curve" smooth="yes"/>
      <point x="128" y="498"/>
      <point x="73" y="472"/>
      <point x="33" y="446" type="curve"/>
      <point x="64" y="390" type="line"/>
      <point x="95" y="411"/>
      <point x="138" y="430"/>
      <point x="178" y="430" type="curve" smooth="yes"/>
      <point x="231" y="430"/>
      <point x="266" y="395"/>
      <point x="266" y="291" type="curve" smooth="yes"/>
      <point x="266" y="242" type="line" smooth="yes"/>
      <point x="266" y="92"/>
      <point x="333" y="-12"/>
    </contour>
    <contour>
      <point x="316" y="507" type="move" name="aboveLC"/>
    </contour>
    <contour>
      <point x="449" y="0" type="move" name="baseLC"/>
    </contour>
    <contour>
      <point x="309" y="-20" type="move" name="belowLC"/>
    </contour>
  </outline>
</glyph>
<glyph name="eacute" format="1">
	<unicode hex="00E9"/>
	<advance width="600"/>
	<outline>
		<component base="e"/>
		<component base="acutecmb" xOffset="16"/>
		<contour>
			<point name="ogonekLC" x="404" y="0" type="move"/>
		</contour>
	</outline>
</glyph>
<glyph name="dcaron" format="1">
  <advance width="600"/>
  <unicode hex="010F"/>
  <outline>
    <contour>
      <point x="254" y="-12" type="curve" smooth="yes"/>
      <point x="312" y="-12"/>
      <point x="366" y="24"/>
      <point x="405" y="64" type="curve"/>
      <point x="408" y="64" type="line"/>
      <point x="415" y="0" type="line"/>
      <point x="479" y="0" type="line"/>
      <point x="479" y="712" type="line"/>
      <point x="400" y="712" type="line"/>
      <point x="400" y="525" type="line"/>
      <point x="405" y="435" type="line"/>
      <point x="402" y="435" type="line"/>
      <point x="360" y="474"/>
      <point x="319" y="498"/>
      <point x="264" y="498" type="curve" smooth="yes"/>
      <point x="154" y="498"/>
      <point x="54" y="400"/>
      <point x="54" y="242" type="curve" smooth="yes"/>
      <point x="54" y="80"/>
      <point x="134" y="-12"/>
    </contour>
    <contour>
      <point x="271" y="57" type="curve" smooth="yes"/>
      <point x="186" y="57"/>
      <point x="135" y="127"/>
      <point x="135" y="243" type="curve" smooth="yes"/>
      <point x="135" y="354"/>
      <point x="200" y="429"/>
      <point x="280" y="429" type="curve" smooth="yes"/>
      <point x="320" y="429"/>
      <point x="357" y="412"/>
      <point x="400" y="372" type="curve"/>
      <point x="400" y="130" type="line"/>
      <point x="358" y="82"/>
      <point x="316" y="57"/>
    </contour>
    <component base="caron.a" xOffset="290"/>
  </outline>
</glyph>
<glyph name="Dcroat" format="1">
	<unicode hex="0110"/>
	<advance width="600"/>
	<outline>
		<component base="Eth"/>
		<contour>
			<point name="aboveUC" x="299" y="676" type="move"/>
		</contour>
		<contour>
			<point name="belowLC" x="290" y="-20" type="move"/>
		</contour>
	</outline>
</glyph>
<glyph name="hbar" format="1">
	<unicode hex="0127"/>
	<advance width="600"/>
	<outline>
		<contour>
			<point x="93" y="0" type="line"/>
			<point x="175" y="0" type="line"/>
			<point x="175" y="319" type="line"/>
			<point x="232" y="378"/>
			<point x="271" y="407"/>
			<point x="329" y="407" type="curve" smooth="yes"/>
			<point x="409" y="407"/>
			<point x="441" y="363"/>
			<point x="441" y="271" type="curve" smooth="yes"/>
			<point x="441" y="0" type="line"/>
			<point x="523" y="0" type="line"/>
			<point x="523" y="282" type="line" smooth="yes"/>
			<point x="523" y="410"/>
			<point x="470" y="478"/>
			<point x="355" y="478" type="curve" smooth="yes"/>
			<point x="279" y="478"/>
			<point x="223" y="437"/>
			<point x="173" y="383" type="curve"/>
			<point x="170" y="383" type="line"/>
			<point x="175" y="498" type="line"/>
			<point x="175" y="712" type="line"/>
			<point x="93" y="712" type="line"/>
		</contour>
		<contour>
			<point x="20" y="562" type="line"/>
			<point x="388" y="562" type="line"/>
			<point x="388" y="626" type="line"/>
			<point x="98" y="626" type="line"/>
			<point x="20" y="620" type="line"/>
		</contour>
	</outline>
</glyph>
<glyph name="IJ" format="1">
	<unicode hex="0132"/>
	<advance width="600"/>
	<outline>
		<contour>
			<point x="112" y="0" type="line"/>
			<point x="195" y="0" type="line"/>
			<point x="195" y="656" type="line"/>
			<point x="112" y="656" type="line"/>
		</contour>
		<contour>
			<point x="351" y="-165" type="curve" smooth="yes"/>
			<point x="450" y="-165"/>
			<point x="488" y="-102"/>
			<point x="488" y="-3" type="curve" smooth="yes"/>
			<point x="488" y="656" type="line"/>
			<point x="405" y="656" type="line"/>
			<point x="405" y="0" type="line" smooth="yes"/>
			<point x="405" y="-59"/>
			<point x="392" y="-96"/>
			<point x="342" y="-96" type="curve" smooth="yes"/>
			<point x="325" y="-96"/>
			<point x="307" y="-91"/>
			<point x="293" y="-86" type="curve"/>
			<point x="277" y="-152" type="line"/>
			<point x="295" y="-159"/>
			<point x="320" y="-165"/>
		</contour>
	</outline>
</glyph>
<glyph name="kgreenlandic" format="1">
	<unicode hex="0138"/>
	<advance width="600"/>
	<outline>
		<contour>
			<point x="106" y="0" type="line"/>
			<point x="188" y="0" type="line"/>
			<point x="188" y="130" type="line"/>
			<point x="303" y="240" type="line"/>
			<point x="482" y="0" type="line"/>
			<point x="574" y="0" type="line"/>
			<point x="354" y="293" type="line"/>
			<point x="548" y="486" type="line"/>
			<point x="454" y="486" type="line"/>
			<point x="191" y="231" type="line"/>
			<point x="188" y="230" type="line"/>
			<point x="188" y="486" type="line"/>
			<point x="106" y="486" type="line"/>
		</contour>
	</outline>
</glyph>
<glyph name="Lslash" format="1">
  <advance width="600"/>
  <unicode hex="0141"/>
  <outline>
    <contour>
      <point x="39" y="181" type="line"/>
      <point x="142" y="237" type="line"/>
      <point x="209" y="265" type="line"/>
      <point x="456" y="397" type="line"/>
      <point x="427" y="450" type="line"/>
      <point x="209" y="333" type="line"/>
      <point x="142" y="304" type="line"/>
      <point x="10" y="234" type="line"/>
    </contour>
    <component base="L"/>
    <contour>
      <point x="189" y="676" type="move" name="aboveUC"/>
    </contour>
    <contour>
      <point x="349" y="-20" type="move" name="belowLC"/>
    </contour>
  </outline>
</glyph>
<glyph name="Eng" format="1">
  <advance width="600"/>
  <unicode hex="014A"/>
  <outline>
    <contour>
      <point x="378" y="-12" type="curve" smooth="yes"/>
      <point x="486" y="-12"/>
      <point x="549" y="83"/>
      <point x="549" y="335" type="curve" smooth="yes"/>
      <point x="549" y="580"/>
      <point x="457" y="668"/>
      <point x="333" y="668" type="curve" smooth="yes"/>
      <point x="269" y="668"/>
      <point x="209" y="628"/>
      <point x="166" y="579" type="curve"/>
      <point x="166" y="656" type="line"/>
      <point x="85" y="656" type="line"/>
      <point x="85" y="0" type="line"/>
      <point x="168" y="0" type="line"/>
      <point x="168" y="501" type="line"/>
      <point x="205" y="554"/>
      <point x="266" y="595"/>
      <point x="315" y="595" type="curve" smooth="yes"/>
      <point x="404" y="595"/>
      <point x="463" y="532"/>
      <point x="463" y="335" type="curve" smooth="yes"/>
      <point x="463" y="127"/>
      <point x="423" y="67"/>
      <point x="369" y="67" type="curve" smooth="yes"/>
      <point x="350" y="67"/>
      <point x="336" y="71"/>
      <point x="324" y="77" type="curve"/>
      <point x="303" y="2" type="line"/>
      <point x="321" y="-7"/>
      <point x="353" y="-12"/>
    </contour>
    <contour>
      <point x="322" y="676" type="move" name="aboveUC"/>
    </contour>
    <contour>
      <point x="306" y="-20" type="move" name="belowLC"/>
    </contour>
  </outline>
</glyph>
<glyph name="eng" format="1">
	<unicode hex="014B"/>
	<advance width="600"/>
	<outline>
		<contour>
			<point x="387" y="-183" type="curve" smooth="yes"/>
			<point x="484" y="-183"/>
			<point x="523" y="-118"/>
			<point x="523" y="-14" type="curve" smooth="yes"/>
			<point x="523" y="302" type="line" smooth="yes"/>
			<point x="523" y="430"/>
			<point x="470" y="498"/>
			<point x="355" y="498" type="curve" smooth="yes"/>
			<point x="279" y="498"/>
			<point x="223" y="457"/>
			<point x="172" y="403" type="curve"/>
			<point x="168" y="403" type="line"/>
			<point x="161" y="486" type="line"/>
			<point x="93" y="486" type="line"/>
			<point x="93" y="0" type="line"/>
			<point x="175" y="0" type="line"/>
			<point x="175" y="339" type="line"/>
			<point x="232" y="398"/>
			<point x="271" y="427"/>
			<point x="329" y="427" type="curve" smooth="yes"/>
			<point x="409" y="427"/>
			<point x="441" y="383"/>
			<point x="441" y="291" type="curve" smooth="yes"/>
			<point x="441" y="-14" type="line" smooth="yes"/>
			<point x="441" y="-77"/>
			<point x="428" y="-116"/>
			<point x="378" y="-116" type="curve" smooth="yes"/>
			<point x="359" y="-116"/>
			<point x="341" y="-111"/>
			<point x="327" y="-106" type="curve"/>
			<point x="311" y="-169" type="line"/>
			<point x="329" y="-176"/>
			<point x="357" y="-183"/>
		</contour>
		<contour>
			<point name="aboveLC" x="318" y="507" type="move"/>
		</contour>
		<contour>
			<point name="belowLC" x="361" y="-219" type="move"/>
		</contour>
	</outline>
</glyph>
<glyph name="Tbar" format="1">
  <advance width="600"/>
  <unicode hex="0166"/>
  <outline>
    <contour>
      <point x="117" y="313" type="line"/>
      <point x="483" y="313" type="line"/>
      <point x="483" y="360" type="line"/>
      <point x="205" y="360" type="line"/>
      <point x="117" y="357" type="line"/>
    </contour>
    <component base="T"/>
  </outline>
</glyph>
<glyph name="tbar" format="1">
  <advance width="600"/>
  <unicode hex="0167"/>
  <outline>
    <contour>
      <point x="69" y="230" type="line"/>
      <point x="507" y="230" type="line"/>
      <point x="507" y="277" type="line"/>
      <point x="211" y="277" type="line"/>
      <point x="69" y="272" type="line"/>
    </contour>
    <component base="t"/>
    <contour>
      <point x="256" y="643" type="move" name="aboveLC"/>
    </contour>
    <contour>
      <point x="380" y="-20" type="move" name="belowLC"/>
    </contour>
  </outline>
</glyph>
<glyph name="Schwa" format="1">
  <advance width="600"/>
  <unicode hex="018F"/>
  <outline>
    <contour>
      <point x="300" y="-12" type="curve" smooth="yes"/>
      <point x="448" y="-12"/>
      <point x="550" y="120"/>
      <point x="550" y="330" type="curve" smooth="yes"/>
      <point x="550" y="540"/>
      <point x="456" y="668"/>
      <point x="301" y="668" type="curve" smooth="yes"/>
      <point x="224" y="668"/>
      <point x="166" y="637"/>
      <point x="125" y="595" type="curve"/>
      <point x="165" y="538" type="line"/>
      <point x="198" y="572"/>
      <point x="243" y="596"/>
      <point x="297" y="596" type="curve" smooth="yes"/>
      <point x="408" y="596"/>
      <point x="467" y="499"/>
      <point x="467" y="330" type="curve" smooth="yes"/>
      <point x="467" y="153"/>
      <point x="401" y="60"/>
      <point x="300" y="60" type="curve" smooth="yes"/>
      <point x="201" y="60"/>
      <point x="140" y="150"/>
      <point x="140" y="330" type="curve"/>
      <point x="119" y="286" type="line"/>
      <point x="486" y="286" type="line"/>
      <point x="486" y="350" type="line"/>
      <point x="60" y="350" type="line"/>
      <point x="59" y="342"/>
      <point x="59" y="335"/>
      <point x="59" y="327" type="curve" smooth="yes"/>
      <point x="59" y="123"/>
      <point x="153" y="-12"/>
    </contour>
    <contour>
      <point x="317" y="676" type="move" name="aboveUC"/>
    </contour>
    <contour>
      <point x="310" y="0" type="move" name="ogonekUC"/>
    </contour>
    <contour>
      <point x="310" y="0" type="move" name="baseLC"/>
    </contour>
    <contour>
      <point x="304" y="-20" type="move" name="belowLC"/>
    </contour>
  </outline>
</glyph>
<glyph name="Ohorn" format="1">
  <advance width="600"/>
  <unicode hex="01A0"/>
  <outline>
    <contour>
      <point x="452" y="604" type="line"/>
      <point x="522" y="622"/>
      <point x="562" y="664"/>
      <point x="562" y="732" type="curve" smooth="yes"/>
      <point x="562" y="762"/>
      <point x="553" y="791"/>
      <point x="539" y="813" type="curve"/>
      <point x="474" y="784" type="line"/>
      <point x="483" y="768"/>
      <point x="489" y="746"/>
      <point x="489" y="726" type="curve" smooth="yes"/>
      <point x="489" y="678"/>
      <point x="462" y="649"/>
      <point x="404" y="639" type="curve"/>
    </contour>
    <component base="O"/>
    <contour>
      <point x="300" y="676" type="move" name="aboveUC"/>
    </contour>
    <contour>
      <point x="300" y="-20" type="move" name="belowLC"/>
    </contour>
  </outline>
</glyph>
<glyph name="Aringacute" format="1">
	<unicode hex="01FA"/>
	<advance width="600"/>
	<outline>
		<contour>
			<point x="263" y="840" type="line"/>
			<point x="409" y="918" type="line"/>
			<point x="372" y="968" type="line"/>
			<point x="233" y="857" type="line"/>
		</contour>
		<component base="Aring"/>
	</outline>
</glyph>
<glyph name="aringacute" format="1">
  <advance width="600"/>
  <unicode hex="01FB"/>
  <outline>
    <contour>
      <point x="288" y="727" type="line"/>
      <point x="425" y="793" type="line"/>
      <point x="390" y="843" type="line"/>
      <point x="250" y="741" type="line"/>
    </contour>
    <component base="aring"/>
  </outline>
</glyph>
<glyph name="aturned" format="1">
	<unicode hex="0250"/>
	<advance width="600"/>
	<outline>
		<contour>
			<point x="292" y="-12" type="curve" smooth="yes"/>
			<point x="377" y="-12"/>
			<point x="459" y="26"/>
			<point x="508" y="58" type="curve"/>
			<point x="476" y="114" type="line"/>
			<point x="431" y="86"/>
			<point x="369" y="56"/>
			<point x="305" y="56" type="curve" smooth="yes"/>
			<point x="212" y="56"/>
			<point x="179" y="112"/>
			<point x="177" y="179" type="curve"/>
			<point x="427" y="198"/>
			<point x="529" y="251"/>
			<point x="529" y="360" type="curve" smooth="yes"/>
			<point x="529" y="448"/>
			<point x="455" y="498"/>
			<point x="363" y="498" type="curve" smooth="yes"/>
			<point x="295" y="498"/>
			<point x="225" y="462"/>
			<point x="172" y="420" type="curve"/>
			<point x="169" y="420" type="line"/>
			<point x="162" y="486" type="line"/>
			<point x="94" y="486" type="line"/>
			<point x="94" y="188" type="line" smooth="yes"/>
			<point x="94" y="67"/>
			<point x="159" y="-12"/>
		</contour>
		<contour>
			<point x="177" y="232" type="curve"/>
			<point x="177" y="360" type="line"/>
			<point x="232" y="406"/>
			<point x="286" y="432"/>
			<point x="342" y="432" type="curve" smooth="yes"/>
			<point x="398" y="432"/>
			<point x="449" y="409"/>
			<point x="449" y="354" type="curve" smooth="yes"/>
			<point x="449" y="290"/>
			<point x="385" y="249"/>
		</contour>
		<contour>
			<point name="aboveLC" x="324" y="507" type="move"/>
		</contour>
		<contour>
			<point name="belowLC" x="306" y="-20" type="move"/>
		</contour>
	</outline>
</glyph>
<glyph name="bhook" format="1">
  <advance width="600"/>
  <unicode hex="0253"/>
  <outline>
    <contour>
      <point x="321" y="-12" type="curve" smooth="yes"/>
      <point x="435" y="-12"/>
      <point x="540" y="83"/>
      <point x="540" y="247" type="curve" smooth="yes"/>
      <point x="540" y="395"/>
      <point x="469" y="491"/>
      <point x="338" y="491" type="curve" smooth="yes"/>
      <point x="281" y="491"/>
      <point x="219" y="462"/>
      <point x="175" y="417" type="curve"/>
      <point x="171" y="417" type="line"/>
      <point x="175" y="539" type="line"/>
      <point x="178" y="613"/>
      <point x="209" y="657"/>
      <point x="281" y="657" type="curve" smooth="yes"/>
      <point x="301" y="657"/>
      <point x="325" y="652"/>
      <point x="347" y="642" type="curve"/>
      <point x="366" y="705" type="line"/>
      <point x="341" y="715"/>
      <point x="307" y="724"/>
      <point x="273" y="724" type="curve" smooth="yes"/>
      <point x="152" y="724"/>
      <point x="93" y="648"/>
      <point x="93" y="537" type="curve"/>
      <point x="93" y="0" type="line"/>
      <point x="159" y="0" type="line"/>
      <point x="166" y="54" type="line"/>
      <point x="169" y="54" type="line"/>
      <point x="215" y="12"/>
      <point x="273" y="-12"/>
    </contour>
    <contour>
      <point x="307" y="57" type="curve" smooth="yes"/>
      <point x="272" y="57"/>
      <point x="221" y="72"/>
      <point x="175" y="114" type="curve"/>
      <point x="175" y="349" type="line"/>
      <point x="224" y="399"/>
      <point x="275" y="422"/>
      <point x="318" y="422" type="curve" smooth="yes"/>
      <point x="415" y="422"/>
      <point x="455" y="351"/>
      <point x="455" y="246" type="curve" smooth="yes"/>
      <point x="455" y="129"/>
      <point x="391" y="57"/>
    </contour>
    <contour>
      <point x="293" y="736" type="move" name="aboveUC"/>
    </contour>
    <contour>
      <point x="316" y="-20" type="move" name="belowLC"/>
    </contour>
  </outline>
</glyph>
<glyph name="ereversed" format="1">
  <advance width="600"/>
  <unicode hex="0258"/>
  <outline>
    <contour>
      <point x="270" y="-12" type="curve" smooth="yes"/>
      <point x="414" y="-12"/>
      <point x="531" y="83"/>
      <point x="531" y="242" type="curve" smooth="yes"/>
      <point x="531" y="401"/>
      <point x="423" y="498"/>
      <point x="295" y="498" type="curve" smooth="yes"/>
      <point x="156" y="498"/>
      <point x="63" y="407"/>
      <point x="63" y="270" type="curve" smooth="yes"/>
      <point x="63" y="253"/>
      <point x="64" y="232"/>
      <point x="66" y="220" type="curve"/>
      <point x="477" y="220" type="line"/>
      <point x="477" y="284" type="line"/>
      <point x="115" y="284" type="line"/>
      <point x="136" y="261" type="line"/>
      <point x="136" y="376"/>
      <point x="201" y="433"/>
      <point x="290" y="433" type="curve" smooth="yes"/>
      <point x="380" y="433"/>
      <point x="450" y="365"/>
      <point x="450" y="244" type="curve" smooth="yes"/>
      <point x="450" y="118"/>
      <point x="368" y="54"/>
      <point x="261" y="54" type="curve" smooth="yes"/>
      <point x="203" y="54"/>
      <point x="157" y="71"/>
      <point x="112" y="99" type="curve"/>
      <point x="83" y="45" type="line"/>
      <point x="131" y="14"/>
      <point x="192" y="-12"/>
    </contour>
    <contour>
      <point x="307" y="507" type="move" name="aboveLC"/>
    </contour>
    <contour>
      <point x="294" y="-20" type="move" name="belowLC"/>
    </contour>
  </outline>
</glyph>
<glyph name="schwa" format="1">
  <advance width="600"/>
  <unicode hex="0259"/>
  <outline>
    <contour>
      <point x="297" y="-12" type="curve" smooth="yes"/>
      <point x="431" y="-12"/>
      <point x="537" y="82"/>
      <point x="537" y="244" type="curve" smooth="yes"/>
      <point x="537" y="403"/>
      <point x="435" y="498"/>
      <point x="288" y="498" type="curve" smooth="yes"/>
      <point x="210" y="498"/>
      <point x="149" y="472"/>
      <point x="100" y="441" type="curve"/>
      <point x="130" y="387" type="line"/>
      <point x="174" y="415"/>
      <point x="221" y="433"/>
      <point x="279" y="433" type="curve" smooth="yes"/>
      <point x="388" y="433"/>
      <point x="456" y="368"/>
      <point x="456" y="242" type="curve" smooth="yes"/>
      <point x="456" y="118"/>
      <point x="391" y="54"/>
      <point x="295" y="54" type="curve" smooth="yes"/>
      <point x="199" y="54"/>
      <point x="142" y="115"/>
      <point x="142" y="233" type="curve"/>
      <point x="122" y="210" type="line"/>
      <point x="483" y="210" type="line"/>
      <point x="483" y="274" type="line"/>
      <point x="73" y="274" type="line"/>
      <point x="71" y="262"/>
      <point x="69" y="241"/>
      <point x="69" y="224" type="curve" smooth="yes"/>
      <point x="69" y="85"/>
      <point x="151" y="-12"/>
    </contour>
    <contour>
      <point x="296" y="0" type="move" name="ogonekLC"/>
    </contour>
    <contour>
      <point x="310" y="507" type="move" name="aboveLC"/>
    </contour>
    <contour>
      <point x="296" y="0" type="move" name="baseLC"/>
    </contour>
    <contour>
      <point x="296" y="-20" type="move" name="belowLC"/>
    </contour>
  </outline>
</glyph>
<glyph name="ghook" format="1">
  <advance width="600"/>
  <unicode hex="0260"/>
  <outline>
    <contour>
      <point x="279" y="-216" type="curve" smooth="yes"/>
      <point x="420" y="-216"/>
      <point x="505" y="-144"/>
      <point x="505" y="-24" type="curve" smooth="yes"/>
      <point x="505" y="470" type="line" smooth="yes"/>
      <point x="505" y="526"/>
      <point x="520" y="562"/>
      <point x="564" y="562" type="curve" smooth="yes"/>
      <point x="576" y="562"/>
      <point x="586" y="560"/>
      <point x="595" y="556" type="curve"/>
      <point x="611" y="619" type="line"/>
      <point x="596" y="625"/>
      <point x="578" y="629"/>
      <point x="555" y="629" type="curve" smooth="yes"/>
      <point x="465" y="629"/>
      <point x="424" y="570"/>
      <point x="424" y="483" type="curve"/>
      <point x="426" y="435" type="line"/>
      <point x="423" y="435" type="line"/>
      <point x="384" y="473"/>
      <point x="338" y="498"/>
      <point x="281" y="498" type="curve" smooth="yes"/>
      <point x="167" y="498"/>
      <point x="60" y="402"/>
      <point x="60" y="250" type="curve" smooth="yes"/>
      <point x="60" y="97"/>
      <point x="144" y="5"/>
      <point x="269" y="5" type="curve" smooth="yes"/>
      <point x="329" y="5"/>
      <point x="386" y="36"/>
      <point x="423" y="75" type="curve"/>
      <point x="426" y="75" type="line"/>
      <point x="422" y="-22" type="line" smooth="yes"/>
      <point x="421" y="-100"/>
      <point x="372" y="-150"/>
      <point x="279" y="-150" type="curve" smooth="yes"/>
      <point x="230" y="-150"/>
      <point x="175" y="-137"/>
      <point x="126" y="-105" type="curve"/>
      <point x="95" y="-163" type="line"/>
      <point x="149" y="-197"/>
      <point x="216" y="-216"/>
    </contour>
    <contour>
      <point x="288" y="73" type="curve" smooth="yes"/>
      <point x="199" y="73"/>
      <point x="145" y="142"/>
      <point x="145" y="251" type="curve" smooth="yes"/>
      <point x="145" y="355"/>
      <point x="212" y="429"/>
      <point x="294" y="429" type="curve" smooth="yes"/>
      <point x="335" y="429"/>
      <point x="378" y="414"/>
      <point x="422" y="372" type="curve"/>
      <point x="422" y="146" type="line"/>
      <point x="379" y="98"/>
      <point x="335" y="73"/>
    </contour>
    <contour>
      <point x="304" y="507" type="move" name="aboveLC"/>
    </contour>
    <contour>
      <point x="294" y="-219" type="move" name="belowLC"/>
    </contour>
  </outline>
</glyph>
<glyph name="gsmall" format="1">
  <advance width="600"/>
  <unicode hex="0262"/>
  <outline>
    <contour>
      <point x="339" y="-12" type="curve" smooth="yes"/>
      <point x="418" y="-12"/>
      <point x="485" y="18"/>
      <point x="526" y="57" type="curve"/>
      <point x="526" y="262" type="line"/>
      <point x="320" y="262" type="line"/>
      <point x="320" y="203" type="line"/>
      <point x="454" y="203" type="line"/>
      <point x="454" y="91" type="line"/>
      <point x="426" y="68"/>
      <point x="387" y="54"/>
      <point x="343" y="54" type="curve" smooth="yes"/>
      <point x="239" y="54"/>
      <point x="162" y="125"/>
      <point x="162" y="243" type="curve" smooth="yes"/>
      <point x="162" y="364"/>
      <point x="248" y="433"/>
      <point x="348" y="433" type="curve" smooth="yes"/>
      <point x="411" y="433"/>
      <point x="449" y="406"/>
      <point x="483" y="376" type="curve"/>
      <point x="524" y="428" type="line"/>
      <point x="484" y="464"/>
      <point x="430" y="498"/>
      <point x="344" y="498" type="curve" smooth="yes"/>
      <point x="201" y="498"/>
      <point x="78" y="402"/>
      <point x="78" y="243" type="curve" smooth="yes"/>
      <point x="78" y="78"/>
      <point x="195" y="-12"/>
    </contour>
    <contour>
      <point x="334" y="507" type="move" name="aboveLC"/>
    </contour>
    <contour>
      <point x="326" y="-20" type="move" name="belowLC"/>
    </contour>
  </outline>
</glyph>
<glyph name="ramshorn" format="1">
	<unicode hex="0264"/>
	<advance width="600"/>
	<outline>
		<contour>
			<point x="300" y="-12" type="curve" smooth="yes"/>
			<point x="414" y="-12"/>
			<point x="486" y="52"/>
			<point x="486" y="157" type="curve" smooth="yes"/>
			<point x="486" y="231"/>
			<point x="432" y="299"/>
			<point x="357" y="363" type="curve"/>
			<point x="398" y="408"/>
			<point x="428" y="430"/>
			<point x="466" y="430" type="curve" smooth="yes"/>
			<point x="484" y="430"/>
			<point x="501" y="425"/>
			<point x="514" y="416" type="curve"/>
			<point x="540" y="476" type="line"/>
			<point x="519" y="490"/>
			<point x="487" y="498"/>
			<point x="456" y="498" type="curve" smooth="yes"/>
			<point x="402" y="498"/>
			<point x="352" y="467"/>
			<point x="300" y="411" type="curve"/>
			<point x="247" y="467"/>
			<point x="198" y="498"/>
			<point x="144" y="498" type="curve" smooth="yes"/>
			<point x="113" y="498"/>
			<point x="81" y="490"/>
			<point x="60" y="476" type="curve"/>
			<point x="86" y="416" type="line"/>
			<point x="99" y="425"/>
			<point x="116" y="430"/>
			<point x="134" y="430" type="curve" smooth="yes"/>
			<point x="171" y="430"/>
			<point x="202" y="408"/>
			<point x="243" y="363" type="curve"/>
			<point x="167" y="299"/>
			<point x="114" y="231"/>
			<point x="114" y="157" type="curve" smooth="yes"/>
			<point x="114" y="52"/>
			<point x="186" y="-12"/>
		</contour>
		<contour>
			<point x="300" y="56" type="curve" smooth="yes"/>
			<point x="234" y="56"/>
			<point x="193" y="99"/>
			<point x="193" y="159" type="curve" smooth="yes"/>
			<point x="193" y="217"/>
			<point x="238" y="271"/>
			<point x="300" y="324" type="curve"/>
			<point x="362" y="271"/>
			<point x="407" y="217"/>
			<point x="407" y="159" type="curve" smooth="yes"/>
			<point x="407" y="99"/>
			<point x="366" y="56"/>
		</contour>
		<contour>
			<point name="aboveLC" x="300" y="507" type="move"/>
		</contour>
		<contour>
			<point name="belowLC" x="300" y="-20" type="move"/>
		</contour>
	</outline>
</glyph>
<glyph name="hturned" format="1">
	<unicode hex="0265"/>
	<advance width="600"/>
	<outline>
		<contour>
			<point x="425" y="-205" type="line"/>
			<point x="507" y="-205" type="line"/>
			<point x="507" y="486" type="line"/>
			<point x="425" y="486" type="line"/>
			<point x="425" y="147" type="line"/>
			<point x="368" y="89"/>
			<point x="329" y="59"/>
			<point x="271" y="59" type="curve" smooth="yes"/>
			<point x="191" y="59"/>
			<point x="159" y="103"/>
			<point x="159" y="195" type="curve" smooth="yes"/>
			<point x="159" y="486" type="line"/>
			<point x="77" y="486" type="line"/>
			<point x="77" y="184" type="line" smooth="yes"/>
			<point x="77" y="56"/>
			<point x="130" y="-12"/>
			<point x="245" y="-12" type="curve" smooth="yes"/>
			<point x="321" y="-12"/>
			<point x="377" y="30"/>
			<point x="429" y="83" type="curve"/>
			<point x="425" y="-31" type="line"/>
		</contour>
		<contour>
			<point name="aboveLC" x="291" y="507" type="move"/>
		</contour>
		<contour>
			<point name="belowLC" x="353" y="-93" type="move"/>
		</contour>
	</outline>
</glyph>
<glyph name="hhook" format="1">
  <advance width="600"/>
  <unicode hex="0266"/>
  <outline>
    <contour>
      <point x="93" y="0" type="line"/>
      <point x="175" y="0" type="line"/>
      <point x="175" y="332" type="line"/>
      <point x="232" y="390"/>
      <point x="271" y="419"/>
      <point x="329" y="419" type="curve" smooth="yes"/>
      <point x="409" y="419"/>
      <point x="441" y="376"/>
      <point x="441" y="284" type="curve" smooth="yes"/>
      <point x="441" y="0" type="line"/>
      <point x="523" y="0" type="line"/>
      <point x="523" y="294" type="line" smooth="yes"/>
      <point x="523" y="423"/>
      <point x="470" y="491"/>
      <point x="355" y="491" type="curve" smooth="yes"/>
      <point x="279" y="491"/>
      <point x="223" y="449"/>
      <point x="173" y="396" type="curve"/>
      <point x="169" y="396" type="line"/>
      <point x="175" y="539" type="line"/>
      <point x="178" y="613"/>
      <point x="209" y="657"/>
      <point x="281" y="657" type="curve" smooth="yes"/>
      <point x="301" y="657"/>
      <point x="325" y="652"/>
      <point x="347" y="642" type="curve"/>
      <point x="366" y="705" type="line"/>
      <point x="341" y="715"/>
      <point x="306" y="724"/>
      <point x="273" y="724" type="curve" smooth="yes"/>
      <point x="152" y="724"/>
      <point x="93" y="648"/>
      <point x="93" y="537" type="curve"/>
    </contour>
    <contour>
      <point x="271" y="736" type="move" name="aboveUC"/>
    </contour>
    <contour>
      <point x="316" y="-20" type="move" name="belowLC"/>
    </contour>
  </outline>
</glyph>
<glyph name="henghook" format="1">
  <advance width="600"/>
  <unicode hex="0267"/>
  <outline>
    <contour>
      <point x="384" y="-183" type="curve" smooth="yes"/>
      <point x="485" y="-183"/>
      <point x="523" y="-118"/>
      <point x="523" y="-14" type="curve"/>
      <point x="523" y="294" type="line" smooth="yes"/>
      <point x="523" y="423"/>
      <point x="470" y="491"/>
      <point x="355" y="491" type="curve" smooth="yes"/>
      <point x="279" y="491"/>
      <point x="223" y="449"/>
      <point x="173" y="396" type="curve"/>
      <point x="169" y="396" type="line"/>
      <point x="175" y="506" type="line"/>
      <point x="175" y="539" type="line"/>
      <point x="178" y="613"/>
      <point x="209" y="657"/>
      <point x="281" y="657" type="curve" smooth="yes"/>
      <point x="301" y="657"/>
      <point x="324" y="652"/>
      <point x="347" y="642" type="curve"/>
      <point x="366" y="705" type="line"/>
      <point x="340" y="715"/>
      <point x="307" y="724"/>
      <point x="273" y="724" type="curve" smooth="yes"/>
      <point x="152" y="724"/>
      <point x="93" y="648"/>
      <point x="93" y="537" type="curve"/>
      <point x="93" y="0" type="line"/>
      <point x="175" y="0" type="line"/>
      <point x="175" y="332" type="line"/>
      <point x="232" y="390"/>
      <point x="271" y="419"/>
      <point x="329" y="419" type="curve" smooth="yes"/>
      <point x="409" y="419"/>
      <point x="441" y="376"/>
      <point x="441" y="284" type="curve" smooth="yes"/>
      <point x="441" y="-14" type="line"/>
      <point x="441" y="-77"/>
      <point x="428" y="-116"/>
      <point x="375" y="-116" type="curve" smooth="yes"/>
      <point x="355" y="-116"/>
      <point x="336" y="-111"/>
      <point x="322" y="-106" type="curve"/>
      <point x="306" y="-169" type="line"/>
      <point x="324" y="-176"/>
      <point x="352" y="-183"/>
    </contour>
    <contour>
      <point x="271" y="736" type="move" name="aboveUC"/>
    </contour>
    <contour>
      <point x="361" y="-219" type="move" name="belowLC"/>
    </contour>
  </outline>
</glyph>
<glyph name="ismall" format="1">
  <advance width="600"/>
  <unicode hex="026A"/>
  <outline>
    <contour>
      <point x="86" y="0" type="line"/>
      <point x="514" y="0" type="line"/>
      <point x="514" y="67" type="line"/>
      <point x="340" y="67" type="line"/>
      <point x="340" y="419" type="line"/>
      <point x="514" y="419" type="line"/>
      <point x="514" y="486" type="line"/>
      <point x="86" y="486" type="line"/>
      <point x="86" y="419" type="line"/>
      <point x="258" y="419" type="line"/>
      <point x="258" y="67" type="line"/>
      <point x="86" y="67" type="line"/>
    </contour>
    <contour>
      <point x="300" y="507" type="move" name="aboveLC"/>
    </contour>
    <contour>
      <point x="300" y="-20" type="move" name="belowLC"/>
    </contour>
  </outline>
</glyph>
<glyph name="lmiddletilde" format="1">
	<unicode hex="026B"/>
	<advance width="600"/>
	<outline>
		<component base="l"/>
		<component base="tildeoverlaycmb" xOffset="-12" yOffset="142"/>
		<contour>
			<point name="aboveUC" x="285" y="736" type="move"/>
		</contour>
		<contour>
			<point name="belowLC" x="385" y="-20" type="move"/>
		</contour>
	</outline>
</glyph>
<glyph name="lezh" format="1">
  <advance width="600"/>
  <unicode hex="026E"/>
  <outline>
    <contour>
      <point x="79" y="0" type="line"/>
      <point x="161" y="0" type="line"/>
      <point x="161" y="712" type="line"/>
      <point x="79" y="712" type="line"/>
    </contour>
    <contour>
      <point x="358" y="-217" type="curve" smooth="yes"/>
      <point x="468" y="-217"/>
      <point x="571" y="-138"/>
      <point x="571" y="2" type="curve" smooth="yes"/>
      <point x="571" y="120"/>
      <point x="485" y="214"/>
      <point x="327" y="186" type="curve"/>
      <point x="339" y="165" type="line"/>
      <point x="549" y="442" type="line"/>
      <point x="549" y="486" type="line"/>
      <point x="157" y="486" type="line"/>
      <point x="157" y="419" type="line"/>
      <point x="446" y="419" type="line"/>
      <point x="251" y="161" type="line"/>
      <point x="285" y="117" type="line"/>
      <point x="307" y="127"/>
      <point x="321" y="132"/>
      <point x="355" y="132" type="curve" smooth="yes"/>
      <point x="437" y="132"/>
      <point x="487" y="82"/>
      <point x="487" y="0" type="curve" smooth="yes"/>
      <point x="487" y="-90"/>
      <point x="426" y="-149"/>
      <point x="351" y="-149" type="curve" smooth="yes"/>
      <point x="277" y="-149"/>
      <point x="231" y="-120"/>
      <point x="196" y="-87" type="curve"/>
      <point x="155" y="-139" type="line"/>
      <point x="197" y="-179"/>
      <point x="258" y="-217"/>
    </contour>
    <contour>
      <point x="123" y="736" type="move" name="aboveUC"/>
    </contour>
    <contour>
      <point x="357" y="-219" type="move" name="belowLC"/>
    </contour>
  </outline>
</glyph>
<glyph name="mturned" format="1">
  <advance width="600"/>
  <unicode hex="026F"/>
  <outline>
    <component base="m" xScale="-1.0" yScale="-1.0" xOffset="600" yOffset="486"/>
    <contour>
      <point x="294" y="508" type="move" name="aboveLC"/>
    </contour>
    <contour>
      <point x="294" y="-20" type="move" name="belowLC"/>
    </contour>
  </outline>
</glyph>
<glyph name="nretroflex" format="1">
  <advance width="600"/>
  <unicode hex="0273"/>
  <outline>
    <contour>
      <point x="560" y="-183" type="curve" smooth="yes"/>
      <point x="585" y="-183"/>
      <point x="607" y="-177"/>
      <point x="621" y="-170" type="curve"/>
      <point x="605" y="-107" type="line"/>
      <point x="595" y="-111"/>
      <point x="582" y="-116"/>
      <point x="569" y="-116" type="curve" smooth="yes"/>
      <point x="530" y="-116"/>
      <point x="519" y="-83"/>
      <point x="519" y="-28" type="curve"/>
      <point x="519" y="302" type="line" smooth="yes"/>
      <point x="519" y="430"/>
      <point x="466" y="498"/>
      <point x="351" y="498" type="curve" smooth="yes"/>
      <point x="277" y="498"/>
      <point x="223" y="457"/>
      <point x="172" y="403" type="curve"/>
      <point x="168" y="403" type="line"/>
      <point x="161" y="486" type="line"/>
      <point x="93" y="486" type="line"/>
      <point x="93" y="0" type="line"/>
      <point x="175" y="0" type="line"/>
      <point x="175" y="339" type="line"/>
      <point x="232" y="398"/>
      <point x="270" y="427"/>
      <point x="327" y="427" type="curve" smooth="yes"/>
      <point x="404" y="427"/>
      <point x="437" y="386"/>
      <point x="437" y="291" type="curve" smooth="yes"/>
      <point x="437" y="-28" type="line" smooth="yes"/>
      <point x="437" y="-124"/>
      <point x="470" y="-183"/>
    </contour>
    <contour>
      <point x="324" y="507" type="move" name="aboveLC"/>
    </contour>
    <contour>
      <point x="430" y="-219" type="move" name="belowLC"/>
    </contour>
  </outline>
</glyph>
<glyph name="nsmall" format="1">
  <advance width="600"/>
  <unicode hex="0274"/>
  <outline>
    <contour>
      <point x="96" y="0" type="line"/>
      <point x="174" y="0" type="line"/>
      <point x="174" y="202" type="line" smooth="yes"/>
      <point x="174" y="254"/>
      <point x="170" y="316"/>
      <point x="166" y="379" type="curve"/>
      <point x="170" y="379" type="line"/>
      <point x="190" y="347"/>
      <point x="217" y="305"/>
      <point x="237" y="275" type="curve" smooth="yes"/>
      <point x="425" y="0" type="line"/>
      <point x="504" y="0" type="line"/>
      <point x="504" y="486" type="line"/>
      <point x="426" y="486" type="line"/>
      <point x="426" y="284" type="line" smooth="yes"/>
      <point x="426" y="232"/>
      <point x="430" y="170"/>
      <point x="434" y="107" type="curve"/>
      <point x="430" y="107" type="line"/>
      <point x="409" y="138"/>
      <point x="383" y="181"/>
      <point x="363" y="211" type="curve" smooth="yes"/>
      <point x="175" y="486" type="line"/>
      <point x="96" y="486" type="line"/>
    </contour>
    <contour>
      <point x="309" y="507" type="move" name="aboveLC"/>
    </contour>
    <contour>
      <point x="302" y="-20" type="move" name="belowLC"/>
    </contour>
  </outline>
</glyph>
<glyph name="obar" format="1">
  <advance width="600"/>
  <unicode hex="0275"/>
  <outline>
    <contour>
      <point x="300" y="-12" type="curve" smooth="yes"/>
      <point x="429" y="-12"/>
      <point x="540" y="75"/>
      <point x="540" y="242" type="curve" smooth="yes"/>
      <point x="540" y="411"/>
      <point x="429" y="498"/>
      <point x="300" y="498" type="curve" smooth="yes"/>
      <point x="171" y="498"/>
      <point x="60" y="411"/>
      <point x="60" y="242" type="curve" smooth="yes"/>
      <point x="60" y="75"/>
      <point x="171" y="-12"/>
    </contour>
    <contour>
      <point x="300" y="53" type="curve" smooth="yes"/>
      <point x="204" y="53"/>
      <point x="138" y="123"/>
      <point x="138" y="242" type="curve" smooth="yes"/>
      <point x="138" y="362"/>
      <point x="204" y="434"/>
      <point x="300" y="434" type="curve" smooth="yes"/>
      <point x="396" y="434"/>
      <point x="462" y="362"/>
      <point x="462" y="242" type="curve" smooth="yes"/>
      <point x="462" y="123"/>
      <point x="396" y="53"/>
    </contour>
    <contour>
      <point x="120" y="220" type="line"/>
      <point x="476" y="220" type="line"/>
      <point x="476" y="284" type="line"/>
      <point x="120" y="284" type="line"/>
    </contour>
    <contour>
      <point x="300" y="507" type="move" name="aboveLC"/>
    </contour>
    <contour>
      <point x="300" y="-20" type="move" name="belowLC"/>
    </contour>
  </outline>
</glyph>
<glyph name="oesmall" format="1">
  <advance width="600"/>
  <unicode hex="0276"/>
  <outline>
    <contour>
      <point x="238" y="-12" type="curve" smooth="yes"/>
      <point x="270" y="-12"/>
      <point x="299" y="-9"/>
      <point x="336" y="0" type="curve"/>
      <point x="587" y="0" type="line"/>
      <point x="587" y="68" type="line"/>
      <point x="387" y="68" type="line"/>
      <point x="387" y="220" type="line"/>
      <point x="540" y="220" type="line"/>
      <point x="540" y="284" type="line"/>
      <point x="387" y="284" type="line"/>
      <point x="387" y="418" type="line"/>
      <point x="577" y="418" type="line"/>
      <point x="577" y="486" type="line"/>
      <point x="336" y="486" type="line"/>
      <point x="297" y="496"/>
      <point x="270" y="498"/>
      <point x="238" y="498" type="curve" smooth="yes"/>
      <point x="126" y="498"/>
      <point x="33" y="410"/>
      <point x="33" y="243" type="curve" smooth="yes"/>
      <point x="33" y="76"/>
      <point x="126" y="-12"/>
    </contour>
    <contour>
      <point x="245" y="55" type="curve" smooth="yes"/>
      <point x="174" y="55"/>
      <point x="118" y="114"/>
      <point x="118" y="243" type="curve" smooth="yes"/>
      <point x="118" y="369"/>
      <point x="174" y="430"/>
      <point x="245" y="430" type="curve" smooth="yes"/>
      <point x="266" y="430"/>
      <point x="291" y="424"/>
      <point x="311" y="418" type="curve"/>
      <point x="311" y="67" type="line"/>
      <point x="290" y="61"/>
      <point x="265" y="55"/>
    </contour>
    <contour>
      <point x="354" y="507" type="move" name="aboveLC"/>
    </contour>
    <contour>
      <point x="350" y="-20" type="move" name="belowLC"/>
    </contour>
  </outline>
</glyph>
<glyph name="philatin" format="1">
  <advance width="600"/>
  <unicode hex="0278"/>
  <outline>
    <contour>
      <point x="274" y="-9" type="curve"/>
      <point x="271" y="56" type="line"/>
      <point x="190" y="57"/>
      <point x="128" y="126"/>
      <point x="128" y="244" type="curve" smooth="yes"/>
      <point x="128" y="361"/>
      <point x="190" y="429"/>
      <point x="271" y="430" type="curve"/>
      <point x="274" y="495" type="line"/>
      <point x="152" y="495"/>
      <point x="44" y="406"/>
      <point x="44" y="244" type="curve" smooth="yes"/>
      <point x="44" y="81"/>
      <point x="152" y="-9"/>
    </contour>
    <contour>
      <point x="326" y="-9" type="line"/>
      <point x="448" y="-9"/>
      <point x="556" y="81"/>
      <point x="556" y="244" type="curve" smooth="yes"/>
      <point x="556" y="406"/>
      <point x="448" y="495"/>
      <point x="326" y="495" type="curve"/>
      <point x="329" y="430" type="line"/>
      <point x="410" y="429"/>
      <point x="472" y="361"/>
      <point x="472" y="244" type="curve" smooth="yes"/>
      <point x="472" y="126"/>
      <point x="410" y="57"/>
      <point x="329" y="56" type="curve"/>
    </contour>
    <contour>
      <point x="260" y="-205" type="line"/>
      <point x="340" y="-205" type="line"/>
      <point x="340" y="712" type="line"/>
      <point x="260" y="712" type="line"/>
    </contour>
    <contour>
      <point x="300" y="736" type="move" name="aboveUC"/>
    </contour>
    <contour>
      <point x="300" y="-219" type="move" name="belowLC"/>
    </contour>
  </outline>
</glyph>
<glyph name="rfishhook" format="1">
  <advance width="600"/>
  <unicode hex="027E"/>
  <outline>
    <contour>
      <point x="146" y="0" type="line"/>
      <point x="228" y="0" type="line"/>
      <point x="228" y="232" type="line" smooth="yes"/>
      <point x="228" y="367"/>
      <point x="313" y="425"/>
      <point x="410" y="425" type="curve" smooth="yes"/>
      <point x="448" y="425"/>
      <point x="477" y="421"/>
      <point x="518" y="407" type="curve"/>
      <point x="537" y="478" type="line"/>
      <point x="502" y="491"/>
      <point x="455" y="498"/>
      <point x="401" y="498" type="curve" smooth="yes"/>
      <point x="245" y="498"/>
      <point x="146" y="410"/>
      <point x="146" y="249" type="curve" smooth="yes"/>
    </contour>
    <contour>
      <point x="356" y="507" type="move" name="aboveLC"/>
    </contour>
    <contour>
      <point x="191" y="-20" type="move" name="belowLC"/>
    </contour>
  </outline>
</glyph>
<glyph name="esh" format="1">
	<unicode hex="0283"/>
	<advance width="600"/>
	<outline>
		<contour>
			<point x="187" y="-217" type="curve" smooth="yes"/>
			<point x="300" y="-217"/>
			<point x="342" y="-147"/>
			<point x="342" y="-30" type="curve" smooth="yes"/>
			<point x="342" y="538" type="line" smooth="yes"/>
			<point x="342" y="611"/>
			<point x="361" y="659"/>
			<point x="435" y="659" type="curve" smooth="yes"/>
			<point x="465" y="659"/>
			<point x="489" y="649"/>
			<point x="518" y="634" type="curve"/>
			<point x="541" y="695" type="line"/>
			<point x="505" y="713"/>
			<point x="474" y="726"/>
			<point x="426" y="726" type="curve" smooth="yes"/>
			<point x="306" y="726"/>
			<point x="260" y="655"/>
			<point x="260" y="538" type="curve" smooth="yes"/>
			<point x="260" y="-29" type="line" smooth="yes"/>
			<point x="260" y="-102"/>
			<point x="245" y="-150"/>
			<point x="177" y="-150" type="curve" smooth="yes"/>
			<point x="143" y="-150"/>
			<point x="112" y="-138"/>
			<point x="82" y="-124" type="curve"/>
			<point x="56" y="-185" type="line"/>
			<point x="94" y="-204"/>
			<point x="134" y="-217"/>
		</contour>
		<contour>
			<point name="aboveUC" x="362" y="736" type="move"/>
		</contour>
		<contour>
			<point name="belowLC" x="256" y="-219" type="move"/>
		</contour>
	</outline>
</glyph>
<glyph name="ubar" format="1">
	<unicode hex="0289"/>
	<advance width="600"/>
	<outline>
		<contour>
			<point x="246" y="-12" type="curve" smooth="yes"/>
			<point x="313" y="-12"/>
			<point x="362" y="22"/>
			<point x="408" y="76" type="curve"/>
			<point x="410" y="76" type="line"/>
			<point x="416" y="0" type="line"/>
			<point x="484" y="0" type="line"/>
			<point x="484" y="486" type="line"/>
			<point x="402" y="486" type="line"/>
			<point x="402" y="142" type="line"/>
			<point x="356" y="84"/>
			<point x="322" y="60"/>
			<point x="272" y="60" type="curve" smooth="yes"/>
			<point x="208" y="60"/>
			<point x="180" y="98"/>
			<point x="180" y="188" type="curve" smooth="yes"/>
			<point x="180" y="486" type="line"/>
			<point x="98" y="486" type="line"/>
			<point x="98" y="178" type="line" smooth="yes"/>
			<point x="98" y="54"/>
			<point x="144" y="-12"/>
		</contour>
		<contour>
			<point x="2" y="254" type="line"/>
			<point x="586" y="254" type="line"/>
			<point x="586" y="318" type="line"/>
			<point x="98" y="318" type="line"/>
			<point x="2" y="312" type="line"/>
		</contour>
		<contour>
			<point name="aboveLC" x="295" y="507" type="move"/>
		</contour>
		<contour>
			<point name="baseLC" x="443" y="0" type="move"/>
		</contour>
		<contour>
			<point name="belowLC" x="300" y="-20" type="move"/>
		</contour>
	</outline>
</glyph>
<glyph name="vhook" format="1">
  <advance width="600"/>
  <unicode hex="028B"/>
  <outline>
    <contour>
      <point x="297" y="-12" type="curve" smooth="yes"/>
      <point x="457" y="-12"/>
      <point x="540" y="117"/>
      <point x="540" y="293" type="curve" smooth="yes"/>
      <point x="540" y="433"/>
      <point x="479" y="498"/>
      <point x="384" y="498" type="curve" smooth="yes"/>
      <point x="352" y="498"/>
      <point x="338" y="495"/>
      <point x="319" y="490" type="curve"/>
      <point x="332" y="426" type="line"/>
      <point x="345" y="430"/>
      <point x="349" y="432"/>
      <point x="367" y="432" type="curve" smooth="yes"/>
      <point x="427" y="432"/>
      <point x="455" y="379"/>
      <point x="455" y="281" type="curve" smooth="yes"/>
      <point x="455" y="153"/>
      <point x="400" y="56"/>
      <point x="300" y="56" type="curve" smooth="yes"/>
      <point x="222" y="56"/>
      <point x="160" y="102"/>
      <point x="160" y="219" type="curve" smooth="yes"/>
      <point x="160" y="486" type="line"/>
      <point x="77" y="486" type="line"/>
      <point x="77" y="212" type="line" smooth="yes"/>
      <point x="77" y="57"/>
      <point x="171" y="-12"/>
    </contour>
    <contour>
      <point x="303" y="507" type="move" name="aboveLC"/>
    </contour>
    <contour>
      <point x="303" y="-20" type="move" name="belowLC"/>
    </contour>
  </outline>
</glyph>
<glyph name="ysmall" format="1">
  <advance width="600"/>
  <unicode hex="028F"/>
  <outline>
    <contour>
      <point x="260" y="0" type="line"/>
      <point x="342" y="0" type="line"/>
      <point x="342" y="164" type="line"/>
      <point x="545" y="486" type="line"/>
      <point x="457" y="486" type="line"/>
      <point x="373" y="348" type="line"/>
      <point x="347" y="305"/>
      <point x="326" y="270"/>
      <point x="304" y="226" type="curve"/>
      <point x="300" y="226" type="line"/>
      <point x="278" y="270"/>
      <point x="254" y="306"/>
      <point x="231" y="348" type="curve"/>
      <point x="146" y="486" type="line"/>
      <point x="57" y="486" type="line"/>
      <point x="260" y="164" type="line"/>
    </contour>
    <contour>
      <point x="300" y="507" type="move" name="aboveLC"/>
    </contour>
    <contour>
      <point x="300" y="-20" type="move" name="belowLC"/>
    </contour>
  </outline>
</glyph>
<glyph name="zretroflex" format="1">
	<unicode hex="0290"/>
	<advance width="600"/>
	<outline>
		<contour>
			<point x="559" y="-183" type="curve" smooth="yes"/>
			<point x="584" y="-183"/>
			<point x="606" y="-177"/>
			<point x="620" y="-170" type="curve"/>
			<point x="604" y="-107" type="line"/>
			<point x="594" y="-111"/>
			<point x="581" y="-116"/>
			<point x="568" y="-116" type="curve" smooth="yes"/>
			<point x="529" y="-116"/>
			<point x="517" y="-83"/>
			<point x="517" y="-28" type="curve"/>
			<point x="517" y="67" type="line"/>
			<point x="188" y="67" type="line"/>
			<point x="515" y="442" type="line"/>
			<point x="515" y="486" type="line"/>
			<point x="108" y="486" type="line"/>
			<point x="108" y="419" type="line"/>
			<point x="397" y="419" type="line"/>
			<point x="71" y="44" type="line"/>
			<point x="71" y="0" type="line"/>
			<point x="435" y="0" type="line"/>
			<point x="435" y="-36" type="line" smooth="yes"/>
			<point x="435" y="-124"/>
			<point x="468" y="-183"/>
		</contour>
		<contour>
			<point name="aboveLC" x="320" y="507" type="move"/>
		</contour>
	</outline>
</glyph>
<glyph name="glottalstop" format="1">
  <advance width="600"/>
  <unicode hex="0294"/>
  <outline>
    <contour>
      <point x="239" y="0" type="line"/>
      <point x="321" y="0" type="line"/>
      <point x="321" y="275" type="line"/>
      <point x="431" y="346"/>
      <point x="510" y="408"/>
      <point x="510" y="524" type="curve" smooth="yes"/>
      <point x="510" y="656"/>
      <point x="409" y="724"/>
      <point x="283" y="724" type="curve" smooth="yes"/>
      <point x="181" y="724"/>
      <point x="115" y="677"/>
      <point x="71" y="628" type="curve"/>
      <point x="115" y="575" type="line"/>
      <point x="150" y="617"/>
      <point x="201" y="656"/>
      <point x="277" y="656" type="curve" smooth="yes"/>
      <point x="372" y="656"/>
      <point x="426" y="604"/>
      <point x="426" y="523" type="curve" smooth="yes"/>
      <point x="426" y="436"/>
      <point x="370" y="385"/>
      <point x="239" y="311" type="curve"/>
    </contour>
    <contour>
      <point x="300" y="736" type="move" name="aboveUC"/>
    </contour>
    <contour>
      <point x="279" y="-20" type="move" name="belowLC"/>
    </contour>
  </outline>
</glyph>
<glyph name="clickbilabial" format="1">
  <advance width="600"/>
  <unicode hex="0298"/>
  <outline>
    <contour>
      <point x="300" y="-12" type="curve" smooth="yes"/>
      <point x="446" y="-12"/>
      <point x="541" y="102"/>
      <point x="541" y="359" type="curve" smooth="yes"/>
      <point x="541" y="597"/>
      <point x="446" y="724"/>
      <point x="300" y="724" type="curve" smooth="yes"/>
      <point x="154" y="724"/>
      <point x="60" y="597"/>
      <point x="60" y="359" type="curve" smooth="yes"/>
      <point x="60" y="102"/>
      <point x="154" y="-12"/>
    </contour>
    <contour>
      <point x="300" y="56" type="curve" smooth="yes"/>
      <point x="208" y="56"/>
      <point x="138" y="136"/>
      <point x="138" y="359" type="curve" smooth="yes"/>
      <point x="138" y="563"/>
      <point x="208" y="656"/>
      <point x="300" y="656" type="curve" smooth="yes"/>
      <point x="392" y="656"/>
      <point x="462" y="563"/>
      <point x="462" y="359" type="curve" smooth="yes"/>
      <point x="462" y="136"/>
      <point x="392" y="56"/>
    </contour>
    <contour>
      <point x="300" y="296" type="curve" smooth="yes"/>
      <point x="333" y="296"/>
      <point x="362" y="323"/>
      <point x="362" y="359" type="curve" smooth="yes"/>
      <point x="362" y="398"/>
      <point x="333" y="423"/>
      <point x="300" y="423" type="curve" smooth="yes"/>
      <point x="267" y="423"/>
      <point x="238" y="398"/>
      <point x="238" y="359" type="curve" smooth="yes"/>
      <point x="238" y="323"/>
      <point x="267" y="296"/>
    </contour>
  </outline>
</glyph>
<glyph name="kturned" format="1">
  <advance width="600"/>
  <unicode hex="029E"/>
  <outline>
    <contour>
      <point x="412" y="-205" type="line"/>
      <point x="494" y="-205" type="line"/>
      <point x="494" y="486" type="line"/>
      <point x="412" y="486" type="line"/>
      <point x="412" y="354" type="line"/>
      <point x="52" y="0" type="line"/>
      <point x="146" y="0" type="line"/>
      <point x="408" y="256" type="line"/>
      <point x="412" y="256" type="line"/>
    </contour>
    <contour>
      <point x="258" y="174" type="line"/>
      <point x="308" y="227" type="line"/>
      <point x="118" y="486" type="line"/>
      <point x="26" y="486" type="line"/>
    </contour>
    <contour>
      <point x="284" y="507" type="move" name="aboveLC"/>
    </contour>
    <contour>
      <point x="450" y="-219" type="move" name="belowLC"/>
    </contour>
  </outline>
</glyph>
<glyph name="dezh" format="1">
  <advance width="600"/>
  <unicode hex="02A4"/>
  <outline>
    <contour>
      <point x="155" y="-12" type="curve" smooth="yes"/>
      <point x="202" y="-12"/>
      <point x="238" y="22"/>
      <point x="259" y="58" type="curve"/>
      <point x="262" y="58" type="line"/>
      <point x="269" y="0" type="line"/>
      <point x="328" y="0" type="line"/>
      <point x="328" y="712" type="line"/>
      <point x="252" y="712" type="line"/>
      <point x="252" y="535" type="line"/>
      <point x="256" y="442" type="line"/>
      <point x="254" y="442" type="line"/>
      <point x="234" y="476"/>
      <point x="204" y="498"/>
      <point x="164" y="498" type="curve" smooth="yes"/>
      <point x="77" y="498"/>
      <point x="0" y="398"/>
      <point x="0" y="242" type="curve" smooth="yes"/>
      <point x="0" y="82"/>
      <point x="65" y="-12"/>
    </contour>
    <contour>
      <point x="172" y="57" type="curve" smooth="yes"/>
      <point x="113" y="57"/>
      <point x="82" y="128"/>
      <point x="82" y="243" type="curve" smooth="yes"/>
      <point x="82" y="353"/>
      <point x="121" y="429"/>
      <point x="178" y="429" type="curve" smooth="yes"/>
      <point x="210" y="429"/>
      <point x="230" y="408"/>
      <point x="252" y="372" type="curve"/>
      <point x="252" y="132" type="line"/>
      <point x="232" y="88"/>
      <point x="207" y="57"/>
    </contour>
    <contour>
      <point x="450" y="-217" type="curve" smooth="yes"/>
      <point x="544" y="-217"/>
      <point x="618" y="-138"/>
      <point x="618" y="0" type="curve" smooth="yes"/>
      <point x="618" y="124"/>
      <point x="544" y="224"/>
      <point x="419" y="188" type="curve"/>
      <point x="436" y="160" type="line"/>
      <point x="597" y="442" type="line"/>
      <point x="597" y="486" type="line"/>
      <point x="305" y="486" type="line"/>
      <point x="305" y="419" type="line"/>
      <point x="510" y="419" type="line"/>
      <point x="364" y="169" type="line"/>
      <point x="397" y="117" type="line"/>
      <point x="415" y="127"/>
      <point x="426" y="132"/>
      <point x="447" y="132" type="curve" smooth="yes"/>
      <point x="505" y="132"/>
      <point x="536" y="84"/>
      <point x="536" y="0" type="curve" smooth="yes"/>
      <point x="536" y="-100"/>
      <point x="498" y="-149"/>
      <point x="444" y="-149" type="curve" smooth="yes"/>
      <point x="401" y="-149"/>
      <point x="374" y="-132"/>
      <point x="347" y="-106" type="curve"/>
      <point x="308" y="-158" type="line"/>
      <point x="343" y="-192"/>
      <point x="384" y="-217"/>
    </contour>
    <contour>
      <point x="280" y="730" type="move" name="aboveUC"/>
    </contour>
    <contour>
      <point x="330" y="-219" type="move" name="belowLC"/>
    </contour>
  </outline>
</glyph>
<glyph name="tesh" format="1">
  <advance width="600"/>
  <unicode hex="02A7"/>
  <outline>
    <contour>
      <point x="257" y="-12" type="curve" smooth="yes"/>
      <point x="287" y="-12"/>
      <point x="318" y="-3"/>
      <point x="345" y="6" type="curve"/>
      <point x="330" y="68" type="line"/>
      <point x="312" y="61"/>
      <point x="291" y="55"/>
      <point x="272" y="55" type="curve" smooth="yes"/>
      <point x="220" y="55"/>
      <point x="203" y="89"/>
      <point x="203" y="149" type="curve" smooth="yes"/>
      <point x="203" y="419" type="line"/>
      <point x="428" y="419" type="line"/>
      <point x="428" y="486" type="line"/>
      <point x="203" y="486" type="line"/>
      <point x="203" y="622" type="line"/>
      <point x="134" y="622" type="line"/>
      <point x="124" y="486" type="line"/>
      <point x="48" y="481" type="line"/>
      <point x="48" y="419" type="line"/>
      <point x="120" y="419" type="line"/>
      <point x="120" y="150" type="line" smooth="yes"/>
      <point x="120" y="54"/>
      <point x="155" y="-12"/>
    </contour>
    <contour>
      <point x="353" y="-217" type="curve" smooth="yes"/>
      <point x="447" y="-217"/>
      <point x="484" y="-154"/>
      <point x="484" y="-55" type="curve" smooth="yes"/>
      <point x="484" y="563" type="line" smooth="yes"/>
      <point x="484" y="622"/>
      <point x="497" y="659"/>
      <point x="551" y="659" type="curve" smooth="yes"/>
      <point x="564" y="659"/>
      <point x="577" y="654"/>
      <point x="587" y="650" type="curve"/>
      <point x="603" y="713" type="line"/>
      <point x="588" y="720"/>
      <point x="568" y="726"/>
      <point x="543" y="726" type="curve" smooth="yes"/>
      <point x="441" y="726"/>
      <point x="402" y="663"/>
      <point x="402" y="564" type="curve" smooth="yes"/>
      <point x="402" y="-55" type="line"/>
      <point x="402" y="-114"/>
      <point x="391" y="-150"/>
      <point x="346" y="-150" type="curve" smooth="yes"/>
      <point x="329" y="-150"/>
      <point x="312" y="-146"/>
      <point x="300" y="-142" type="curve"/>
      <point x="283" y="-204" type="line"/>
      <point x="300" y="-211"/>
      <point x="324" y="-217"/>
    </contour>
    <contour>
      <point x="293" y="730" type="move" name="aboveUC"/>
    </contour>
    <contour>
      <point x="331" y="-219" type="move" name="belowLC"/>
    </contour>
  </outline>
</glyph>
<glyph name="ringhalfleftmod" format="1">
	<unicode hex="02BF"/>
	<advance width="600"/>
	<outline>
		<contour>
			<point x="374" y="538" type="curve"/>
			<point x="374" y="588" type="line"/>
			<point x="297" y="588"/>
			<point x="256" y="623"/>
			<point x="256" y="682" type="curve" smooth="yes"/>
			<point x="256" y="742"/>
			<point x="297" y="777"/>
			<point x="374" y="777" type="curve"/>
			<point x="374" y="826" type="line"/>
			<point x="253" y="830"/>
			<point x="190" y="773"/>
			<point x="190" y="682" type="curve" smooth="yes"/>
			<point x="190" y="591"/>
			<point x="253" y="534"/>
		</contour>
	</outline>
</glyph>
<glyph name="glottalstopreversedmod" format="1">
  <advance width="600"/>
  <unicode hex="02C1"/>
  <outline>
    <contour>
      <point x="282" y="395" type="line"/>
      <point x="345" y="395" type="line"/>
      <point x="345" y="600" type="line"/>
      <point x="264" y="643"/>
      <point x="224" y="684"/>
      <point x="224" y="739" type="curve" smooth="yes"/>
      <point x="224" y="788"/>
      <point x="263" y="818"/>
      <point x="320" y="818" type="curve" smooth="yes"/>
      <point x="363" y="818"/>
      <point x="393" y="797"/>
      <point x="418" y="772" type="curve"/>
      <point x="452" y="812" type="line"/>
      <point x="423" y="843"/>
      <point x="378" y="871"/>
      <point x="315" y="871" type="curve" smooth="yes"/>
      <point x="233" y="871"/>
      <point x="160" y="825"/>
      <point x="160" y="741" type="curve" smooth="yes"/>
      <point x="160" y="665"/>
      <point x="215" y="619"/>
      <point x="282" y="575" type="curve"/>
    </contour>
  </outline>
</glyph>
<glyph name="verticallinelowmod" format="1">
  <advance width="600"/>
  <unicode hex="02CC"/>
  <outline>
    <contour>
      <point x="249" y="-254" type="line"/>
      <point x="351" y="-254" type="line"/>
      <point x="328" y="66" type="line"/>
      <point x="272" y="66" type="line"/>
    </contour>
  </outline>
</glyph>
<glyph name="colontriangularhalfmod" format="1">
	<unicode hex="02D1"/>
	<advance width="600"/>
	<outline>
		<contour>
			<point x="295" y="343" type="line"/>
			<point x="305" y="343" type="line"/>
			<point x="398" y="503" type="line"/>
			<point x="202" y="503" type="line"/>
		</contour>
	</outline>
</glyph>
<glyph name="hookrhoticmod" format="1">
	<unicode hex="02DE"/>
	<advance width="600"/>
	<outline>
		<contour>
			<point x="329" y="230" type="curve" smooth="yes"/>
			<point x="358" y="230"/>
			<point x="379" y="242"/>
			<point x="395" y="254" type="curve"/>
			<point x="373" y="297" type="line"/>
			<point x="363" y="289"/>
			<point x="351" y="282"/>
			<point x="335" y="282" type="curve" smooth="yes"/>
			<point x="308" y="282"/>
			<point x="287" y="304"/>
			<point x="274" y="406" type="curve"/>
			<point x="128" y="346" type="line"/>
			<point x="128" y="283" type="line"/>
			<point x="233" y="326" type="line"/>
			<point x="251" y="255"/>
			<point x="287" y="230"/>
		</contour>
	</outline>
</glyph>
<glyph name="tildecmb" format="1">
	<unicode hex="0303"/>
	<advance width="600"/>
	<outline>
		<contour>
			<point x="372" y="577" type="curve" smooth="yes"/>
			<point x="441" y="577"/>
			<point x="470" y="635"/>
			<point x="473" y="712" type="curve"/>
			<point x="418" y="716" type="line"/>
			<point x="415" y="670"/>
			<point x="401" y="637"/>
			<point x="372" y="637" type="curve" smooth="yes"/>
			<point x="325" y="637"/>
			<point x="299" y="721"/>
			<point x="228" y="721" type="curve" smooth="yes"/>
			<point x="159" y="721"/>
			<point x="130" y="663"/>
			<point x="127" y="585" type="curve"/>
			<point x="182" y="582" type="line"/>
			<point x="185" y="629"/>
			<point x="199" y="661"/>
			<point x="229" y="661" type="curve" smooth="yes"/>
			<point x="275" y="661"/>
			<point x="301" y="577"/>
		</contour>
		<contour>
			<point name="_aboveLC" x="300" y="507" type="move"/>
		</contour>
		<contour>
			<point name="aboveLC" x="300" y="588" type="move"/>
		</contour>
	</outline>
</glyph>
<glyph name="overlinecmb" format="1">
	<unicode hex="0305"/>
	<advance width="600"/>
	<outline>
		<component base="macroncmb"/>
		<contour>
			<point name="_aboveLC" x="300" y="507" type="move"/>
		</contour>
		<contour>
			<point name="aboveLC" x="300" y="574" type="move"/>
		</contour>
	</outline>
</glyph>
<glyph name="dotaccentcmb" format="1">
  <advance width="600"/>
  <unicode hex="0307"/>
  <outline>
    <contour>
      <point x="300" y="586" type="curve" smooth="yes"/>
      <point x="337" y="586"/>
      <point x="366" y="611"/>
      <point x="366" y="649" type="curve" smooth="yes"/>
      <point x="366" y="688"/>
      <point x="337" y="713"/>
      <point x="300" y="713" type="curve" smooth="yes"/>
      <point x="263" y="713"/>
      <point x="234" y="688"/>
      <point x="234" y="649" type="curve" smooth="yes"/>
      <point x="234" y="611"/>
      <point x="263" y="586"/>
    </contour>
    <contour>
      <point x="300" y="507" type="move" name="_aboveLC"/>
    </contour>
    <contour>
      <point x="300" y="706" type="move" name="aboveLC"/>
    </contour>
  </outline>
</glyph>
<glyph name="candrabinducmb" format="1">
  <advance width="600"/>
  <unicode hex="0310"/>
  <outline>
    <contour>
      <point x="300" y="571" type="curve" smooth="yes"/>
      <point x="409" y="571"/>
      <point x="455" y="648"/>
      <point x="461" y="722" type="curve"/>
      <point x="413" y="730" type="line"/>
      <point x="406" y="677"/>
      <point x="368" y="622"/>
      <point x="300" y="622" type="curve" smooth="yes"/>
      <point x="231" y="622"/>
      <point x="194" y="677"/>
      <point x="187" y="730" type="curve"/>
      <point x="139" y="722" type="line"/>
      <point x="145" y="648"/>
      <point x="191" y="571"/>
    </contour>
    <contour>
      <point x="300" y="701" type="curve" smooth="yes"/>
      <point x="332" y="701"/>
      <point x="356" y="723"/>
      <point x="356" y="757" type="curve" smooth="yes"/>
      <point x="356" y="791"/>
      <point x="332" y="813"/>
      <point x="300" y="813" type="curve" smooth="yes"/>
      <point x="268" y="813"/>
      <point x="244" y="791"/>
      <point x="244" y="757" type="curve" smooth="yes"/>
      <point x="244" y="723"/>
      <point x="268" y="701"/>
    </contour>
    <contour>
      <point x="300" y="507" type="move" name="_aboveLC"/>
    </contour>
  </outline>
</glyph>
<glyph name="uptackbelowcmb" format="1">
  <advance width="600"/>
  <unicode hex="031D"/>
  <outline>
    <contour>
      <point x="184" y="-211" type="line"/>
      <point x="416" y="-211" type="line"/>
      <point x="416" y="-164" type="line"/>
      <point x="327" y="-164" type="line"/>
      <point x="327" y="-58" type="line"/>
      <point x="273" y="-58" type="line"/>
      <point x="273" y="-164" type="line"/>
      <point x="184" y="-164" type="line"/>
    </contour>
    <contour>
      <point x="300" y="-20" type="move" name="_belowLC"/>
    </contour>
  </outline>
</glyph>
<glyph name="dieresisbelowcmb" format="1">
  <advance width="600"/>
  <unicode hex="0324"/>
  <outline>
    <component base="dieresiscmb" yOffset="-796"/>
    <contour>
      <point x="300" y="-20" type="move" name="_belowLC"/>
    </contour>
  </outline>
</glyph>
<glyph name="commabelowcmb" format="1">
  <advance width="600"/>
  <unicode hex="0326"/>
  <outline>
    <contour>
      <point x="213" y="-226" type="line"/>
      <point x="319" y="-221"/>
      <point x="378" y="-193"/>
      <point x="378" y="-135" type="curve" smooth="yes"/>
      <point x="378" y="-90"/>
      <point x="348" y="-68"/>
      <point x="261" y="-58" type="curve"/>
      <point x="243" y="-96" type="line"/>
      <point x="289" y="-100"/>
      <point x="314" y="-112"/>
      <point x="314" y="-138" type="curve" smooth="yes"/>
      <point x="314" y="-165"/>
      <point x="289" y="-180"/>
      <point x="205" y="-186" type="curve"/>
    </contour>
    <contour>
      <point x="300" y="-20" type="move" name="_belowLC"/>
    </contour>
  </outline>
</glyph>
<glyph name="ogonekcmb" format="1">
  <advance width="600"/>
  <unicode hex="0328"/>
  <outline>
    <contour>
      <point x="312" y="-225" type="curve" smooth="yes"/>
      <point x="352" y="-225"/>
      <point x="384" y="-210"/>
      <point x="407" y="-189" type="curve"/>
      <point x="383" y="-150" type="line"/>
      <point x="371" y="-161"/>
      <point x="353" y="-171"/>
      <point x="329" y="-171" type="curve" smooth="yes"/>
      <point x="300" y="-171"/>
      <point x="271" y="-154"/>
      <point x="271" y="-116" type="curve" smooth="yes"/>
      <point x="271" y="-72"/>
      <point x="303" y="-33"/>
      <point x="353" y="3" type="curve"/>
      <point x="295" y="3" type="line"/>
      <point x="257" y="-25"/>
      <point x="210" y="-71"/>
      <point x="210" y="-132" type="curve" smooth="yes"/>
      <point x="210" y="-195"/>
      <point x="254" y="-225"/>
    </contour>
    <contour>
      <point x="300" y="0" type="move" name="_ogonekLC"/>
    </contour>
  </outline>
</glyph>
<glyph name="brevebelowcmb" format="1">
	<unicode hex="032E"/>
	<advance width="600"/>
	<outline>
		<component base="brevecmb" yOffset="-802"/>
		<contour>
			<point name="_belowLC" x="300" y="-20" type="move"/>
		</contour>
	</outline>
</glyph>
<glyph name="breveinvertedbelowcmb" format="1">
	<unicode hex="032F"/>
	<advance width="600"/>
	<outline>
		<component base="breveinvertedcmb" yOffset="-805"/>
		<contour>
			<point name="_belowLC" x="300" y="-20" type="move"/>
		</contour>
	</outline>
</glyph>
<glyph name="macrondoublebelowcmb" format="1">
	<unicode hex="035F"/>
	<advance width="600"/>
	<outline>
		<contour>
			<point x="-193" y="-171" type="line"/>
			<point x="793" y="-171" type="line"/>
			<point x="793" y="-113" type="line"/>
			<point x="-193" y="-113" type="line"/>
		</contour>
	</outline>
</glyph>
<glyph name="lownumeralsign" format="1">
	<unicode hex="0375"/>
	<advance width="600"/>
	<outline>
		<contour>
			<point x="240" y="0" type="line"/>
			<point x="321" y="0" type="line"/>
			<point x="343" y="242" type="line"/>
			<point x="289" y="242" type="line"/>
			<point x="254" y="92" type="line"/>
		</contour>
	</outline>
</glyph>
<glyph name="Alphatonos" format="1">
  <advance width="600"/>
  <unicode hex="0386"/>
  <outline>
    <contour>
      <point x="54" y="0" type="line"/>
      <point x="139" y="0" type="line"/>
      <point x="248" y="367" type="line" smooth="yes"/>
      <point x="270" y="440"/>
      <point x="287" y="501"/>
      <point x="308" y="580" type="curve"/>
      <point x="312" y="580" type="line"/>
      <point x="332" y="501"/>
      <point x="351" y="440"/>
      <point x="372" y="367" type="curve" smooth="yes"/>
      <point x="480" y="0" type="line"/>
      <point x="568" y="0" type="line"/>
      <point x="358" y="656" type="line"/>
      <point x="264" y="656" type="line"/>
    </contour>
    <contour>
      <point x="170" y="200" type="line"/>
      <point x="449" y="200" type="line"/>
      <point x="449" y="267" type="line"/>
      <point x="170" y="267" type="line"/>
    </contour>
    <component base="tonos.cap" xOffset="-204"/>
  </outline>
</glyph>
<glyph name="Upsilontonos" format="1">
	<unicode hex="038E"/>
	<advance width="600"/>
	<outline>
		<contour>
			<point x="357" y="0" type="line"/>
			<point x="433" y="0" type="line"/>
			<point x="433" y="234" type="line"/>
			<point x="602" y="656" type="line"/>
			<point x="528" y="656" type="line"/>
			<point x="453" y="461" type="line" smooth="yes"/>
			<point x="435" y="409"/>
			<point x="416" y="359"/>
			<point x="398" y="308" type="curve"/>
			<point x="394" y="308" type="line"/>
			<point x="376" y="359"/>
			<point x="358" y="406"/>
			<point x="338" y="461" type="curve" smooth="yes"/>
			<point x="265" y="656" type="line"/>
			<point x="188" y="656" type="line"/>
			<point x="357" y="234" type="line"/>
		</contour>
		<component base="tonos.cap" xOffset="-200"/>
	</outline>
</glyph>
<glyph name="Omegatonos" format="1">
  <advance width="600"/>
  <unicode hex="038F"/>
  <outline>
    <contour>
      <point x="134" y="0" type="line"/>
      <point x="306" y="0" type="line"/>
      <point x="306" y="61" type="line"/>
      <point x="254" y="140"/>
      <point x="226" y="225"/>
      <point x="226" y="352" type="curve" smooth="yes"/>
      <point x="226" y="498"/>
      <point x="270" y="595"/>
      <point x="347" y="595" type="curve" smooth="yes"/>
      <point x="424" y="595"/>
      <point x="468" y="498"/>
      <point x="468" y="352" type="curve" smooth="yes"/>
      <point x="468" y="225"/>
      <point x="440" y="140"/>
      <point x="388" y="61" type="curve"/>
      <point x="388" y="0" type="line"/>
      <point x="560" y="0" type="line"/>
      <point x="560" y="68" type="line"/>
      <point x="461" y="68" type="line"/>
      <point x="461" y="72" type="line"/>
      <point x="516" y="152"/>
      <point x="549" y="240"/>
      <point x="549" y="365" type="curve" smooth="yes"/>
      <point x="549" y="540"/>
      <point x="471" y="668"/>
      <point x="347" y="668" type="curve" smooth="yes"/>
      <point x="224" y="668"/>
      <point x="145" y="540"/>
      <point x="145" y="365" type="curve" smooth="yes"/>
      <point x="145" y="240"/>
      <point x="178" y="152"/>
      <point x="233" y="72" type="curve"/>
      <point x="233" y="68" type="line"/>
      <point x="134" y="68" type="line"/>
    </contour>
    <component base="tonos.cap" xOffset="-216"/>
  </outline>
</glyph>
<glyph name="Gamma" format="1">
  <advance width="600"/>
  <unicode hex="0393"/>
  <outline>
    <contour>
      <point x="140" y="0" type="line"/>
      <point x="223" y="0" type="line"/>
      <point x="223" y="586" type="line"/>
      <point x="525" y="586" type="line"/>
      <point x="525" y="656" type="line"/>
      <point x="140" y="656" type="line"/>
    </contour>
  </outline>
</glyph>
<glyph name="Epsilon" format="1">
	<unicode hex="0395"/>
	<advance width="600"/>
	<outline>
		<component base="E"/>
		<contour>
			<point name="aboveUC" x="331" y="676" type="move"/>
		</contour>
	</outline>
</glyph>
<glyph name="Lambda" format="1">
	<unicode hex="039B"/>
	<advance width="600"/>
	<outline>
		<contour>
			<point x="43" y="0" type="line"/>
			<point x="128" y="0" type="line"/>
			<point x="233" y="355" type="line" smooth="yes"/>
			<point x="255" y="432"/>
			<point x="272" y="495"/>
			<point x="296" y="572" type="curve"/>
			<point x="300" y="572" type="line"/>
			<point x="324" y="495"/>
			<point x="340" y="432"/>
			<point x="363" y="355" type="curve" smooth="yes"/>
			<point x="469" y="0" type="line"/>
			<point x="557" y="0" type="line"/>
			<point x="348" y="656" type="line"/>
			<point x="251" y="656" type="line"/>
		</contour>
	</outline>
</glyph>
<glyph name="Omicron" format="1">
	<unicode hex="039F"/>
	<advance width="600"/>
	<outline>
		<component base="O"/>
		<contour>
			<point name="aboveUC" x="300" y="676" type="move"/>
		</contour>
	</outline>
</glyph>
<glyph name="Pi" format="1">
	<unicode hex="03A0"/>
	<advance width="600"/>
	<outline>
		<contour>
			<point x="79" y="0" type="line"/>
			<point x="163" y="0" type="line"/>
			<point x="163" y="586" type="line"/>
			<point x="437" y="586" type="line"/>
			<point x="437" y="0" type="line"/>
			<point x="521" y="0" type="line"/>
			<point x="521" y="656" type="line"/>
			<point x="79" y="656" type="line"/>
		</contour>
	</outline>
</glyph>
<glyph name="Sigma" format="1">
	<unicode hex="03A3"/>
	<advance width="600"/>
	<outline>
		<contour>
			<point x="75" y="0" type="line"/>
			<point x="532" y="0" type="line"/>
			<point x="532" y="71" type="line"/>
			<point x="181" y="71" type="line"/>
			<point x="386" y="335" type="line"/>
			<point x="185" y="586" type="line"/>
			<point x="502" y="586" type="line"/>
			<point x="502" y="656" type="line"/>
			<point x="79" y="656" type="line"/>
			<point x="79" y="607" type="line"/>
			<point x="301" y="333" type="line"/>
			<point x="75" y="50" type="line"/>
		</contour>
	</outline>
</glyph>
<glyph name="Upsilon" format="1">
	<unicode hex="03A5"/>
	<advance width="600"/>
	<outline>
		<component base="Y"/>
		<contour>
			<point name="aboveUC" x="300" y="676" type="move"/>
		</contour>
	</outline>
</glyph>
<glyph name="Phi" format="1">
  <advance width="600"/>
  <unicode hex="03A6"/>
  <outline>
    <contour>
      <point x="284" y="65" type="curve"/>
      <point x="316" y="65" type="line" smooth="yes"/>
      <point x="471" y="65"/>
      <point x="574" y="165"/>
      <point x="574" y="331" type="curve" smooth="yes"/>
      <point x="574" y="496"/>
      <point x="471" y="592"/>
      <point x="316" y="592" type="curve" smooth="yes"/>
      <point x="284" y="592" type="line" smooth="yes"/>
      <point x="129" y="592"/>
      <point x="26" y="496"/>
      <point x="26" y="331" type="curve" smooth="yes"/>
      <point x="26" y="165"/>
      <point x="129" y="65"/>
    </contour>
    <contour>
      <point x="280" y="130" type="line" smooth="yes"/>
      <point x="172" y="130"/>
      <point x="104" y="210"/>
      <point x="104" y="331" type="curve" smooth="yes"/>
      <point x="104" y="451"/>
      <point x="172" y="527"/>
      <point x="280" y="527" type="curve" smooth="yes"/>
      <point x="320" y="527" type="line" smooth="yes"/>
      <point x="427" y="527"/>
      <point x="496" y="451"/>
      <point x="496" y="331" type="curve" smooth="yes"/>
      <point x="496" y="210"/>
      <point x="427" y="130"/>
      <point x="320" y="130" type="curve" smooth="yes"/>
    </contour>
    <contour>
      <point x="267" y="-22" type="line"/>
      <point x="333" y="-22" type="line"/>
      <point x="333" y="678" type="line"/>
      <point x="267" y="678" type="line"/>
    </contour>
  </outline>
</glyph>
<glyph name="Psi" format="1">
  <advance width="600"/>
  <unicode hex="03A8"/>
  <outline>
    <contour>
      <point x="281" y="242" type="curve"/>
      <point x="319" y="242" type="line" smooth="yes"/>
      <point x="466" y="242"/>
      <point x="556" y="317"/>
      <point x="556" y="480" type="curve" smooth="yes"/>
      <point x="556" y="656" type="line"/>
      <point x="476" y="656" type="line"/>
      <point x="476" y="484" type="line" smooth="yes"/>
      <point x="476" y="367"/>
      <point x="425" y="309"/>
      <point x="322" y="309" type="curve" smooth="yes"/>
      <point x="278" y="309" type="line" smooth="yes"/>
      <point x="175" y="309"/>
      <point x="124" y="367"/>
      <point x="124" y="484" type="curve" smooth="yes"/>
      <point x="124" y="656" type="line"/>
      <point x="44" y="656" type="line"/>
      <point x="44" y="480" type="line" smooth="yes"/>
      <point x="44" y="317"/>
      <point x="134" y="242"/>
    </contour>
    <contour>
      <point x="258" y="0" type="line"/>
      <point x="342" y="0" type="line"/>
      <point x="342" y="656" type="line"/>
      <point x="258" y="656" type="line"/>
    </contour>
  </outline>
</glyph>
<glyph name="alpha" format="1">
  <advance width="600"/>
  <unicode hex="03B1"/>
  <outline>
    <contour>
      <point x="253" y="-12" type="curve" smooth="yes"/>
      <point x="319" y="-12"/>
      <point x="370" y="20"/>
      <point x="413" y="87" type="curve"/>
      <point x="416" y="87" type="line"/>
      <point x="416" y="19"/>
      <point x="454" y="-12"/>
      <point x="511" y="-12" type="curve" smooth="yes"/>
      <point x="540" y="-12"/>
      <point x="561" y="-5"/>
      <point x="575" y="1" type="curve"/>
      <point x="563" y="64" type="line"/>
      <point x="553" y="60"/>
      <point x="540" y="56"/>
      <point x="529" y="56" type="curve" smooth="yes"/>
      <point x="502" y="56"/>
      <point x="481" y="74"/>
      <point x="481" y="107" type="curve" smooth="yes"/>
      <point x="481" y="196"/>
      <point x="516" y="358"/>
      <point x="542" y="486" type="curve"/>
      <point x="460" y="486" type="line"/>
      <point x="440" y="371" type="line"/>
      <point x="437" y="371" type="line"/>
      <point x="409" y="465"/>
      <point x="340" y="498"/>
      <point x="275" y="498" type="curve" smooth="yes"/>
      <point x="161" y="498"/>
      <point x="57" y="401"/>
      <point x="57" y="234" type="curve" smooth="yes"/>
      <point x="57" y="75"/>
      <point x="137" y="-12"/>
    </contour>
    <contour>
      <point x="270" y="57" type="curve" smooth="yes"/>
      <point x="190" y="57"/>
      <point x="142" y="122"/>
      <point x="142" y="235" type="curve" smooth="yes"/>
      <point x="142" y="363"/>
      <point x="214" y="429"/>
      <point x="288" y="429" type="curve" smooth="yes"/>
      <point x="332" y="429"/>
      <point x="391" y="406"/>
      <point x="418" y="299" type="curve"/>
      <point x="411" y="208" type="line" smooth="yes"/>
      <point x="404" y="126"/>
      <point x="338" y="57"/>
    </contour>
    <contour>
      <point x="324" y="507" type="move" name="aboveLC"/>
    </contour>
    <contour>
      <point x="278" y="-20" type="move" name="belowLC"/>
    </contour>
  </outline>
</glyph>
<glyph name="beta" format="1">
  <advance width="600"/>
  <unicode hex="03B2"/>
  <outline>
    <contour>
      <point x="93" y="-179" type="line"/>
      <point x="176" y="-179" type="line"/>
      <point x="175" y="-97"/>
      <point x="173" y="-20"/>
      <point x="170" y="62" type="curve"/>
      <point x="221" y="7"/>
      <point x="285" y="-12"/>
      <point x="347" y="-12" type="curve" smooth="yes"/>
      <point x="449" y="-12"/>
      <point x="544" y="62"/>
      <point x="544" y="193" type="curve" smooth="yes"/>
      <point x="544" y="295"/>
      <point x="478" y="366"/>
      <point x="379" y="381" type="curve"/>
      <point x="379" y="385" type="line"/>
      <point x="448" y="425"/>
      <point x="485" y="479"/>
      <point x="485" y="551" type="curve" smooth="yes"/>
      <point x="485" y="668"/>
      <point x="393" y="724"/>
      <point x="295" y="724" type="curve" smooth="yes"/>
      <point x="158" y="724"/>
      <point x="93" y="626"/>
      <point x="93" y="495" type="curve" smooth="yes"/>
    </contour>
    <contour>
      <point x="327" y="57" type="curve" smooth="yes"/>
      <point x="276" y="57"/>
      <point x="218" y="72"/>
      <point x="171" y="133" type="curve"/>
      <point x="171" y="249"/>
      <point x="172" y="363"/>
      <point x="173" y="480" type="curve" smooth="yes"/>
      <point x="174" y="598"/>
      <point x="221" y="657"/>
      <point x="296" y="657" type="curve" smooth="yes"/>
      <point x="354" y="657"/>
      <point x="404" y="620"/>
      <point x="404" y="545" type="curve" smooth="yes"/>
      <point x="404" y="481"/>
      <point x="364" y="413"/>
      <point x="258" y="391" type="curve"/>
      <point x="271" y="328" type="line"/>
      <point x="287" y="332"/>
      <point x="304" y="334"/>
      <point x="321" y="334" type="curve" smooth="yes"/>
      <point x="415" y="334"/>
      <point x="462" y="275"/>
      <point x="462" y="198" type="curve" smooth="yes"/>
      <point x="462" y="109"/>
      <point x="401" y="57"/>
    </contour>
  </outline>
</glyph>
<glyph name="gamma" format="1">
  <advance width="600"/>
  <unicode hex="03B3"/>
  <outline>
    <contour>
      <point x="255" y="-179" type="curve"/>
      <point x="339" y="-179" type="line"/>
      <point x="339" y="-123"/>
      <point x="337" y="-53"/>
      <point x="329" y="5" type="curve"/>
      <point x="458" y="204"/>
      <point x="506" y="321"/>
      <point x="538" y="486" type="curve"/>
      <point x="456" y="486" type="line"/>
      <point x="438" y="351"/>
      <point x="383" y="223"/>
      <point x="311" y="97" type="curve"/>
      <point x="307" y="97" type="line"/>
      <point x="272" y="250"/>
      <point x="200" y="411"/>
      <point x="130" y="498" type="curve"/>
      <point x="48" y="477" type="line"/>
      <point x="156" y="343"/>
      <point x="259" y="97"/>
      <point x="259" y="-58" type="curve" smooth="yes"/>
      <point x="259" y="-112"/>
      <point x="258" y="-135"/>
    </contour>
  </outline>
</glyph>
<glyph name="delta" format="1">
  <advance width="600"/>
  <unicode hex="03B4"/>
  <outline>
    <contour>
      <point x="300" y="-12" type="curve" smooth="yes"/>
      <point x="448" y="-12"/>
      <point x="535" y="81"/>
      <point x="535" y="219" type="curve" smooth="yes"/>
      <point x="535" y="336"/>
      <point x="459" y="400"/>
      <point x="362" y="460" type="curve" smooth="yes"/>
      <point x="264" y="521"/>
      <point x="198" y="557"/>
      <point x="198" y="610" type="curve" smooth="yes"/>
      <point x="198" y="637"/>
      <point x="224" y="660"/>
      <point x="282" y="660" type="curve" smooth="yes"/>
      <point x="337" y="660"/>
      <point x="406" y="649"/>
      <point x="504" y="615" type="curve"/>
      <point x="524" y="680" type="line"/>
      <point x="430" y="712"/>
      <point x="353" y="724"/>
      <point x="283" y="724" type="curve" smooth="yes"/>
      <point x="169" y="724"/>
      <point x="117" y="673"/>
      <point x="117" y="615" type="curve" smooth="yes"/>
      <point x="117" y="529"/>
      <point x="201" y="477"/>
      <point x="297" y="417" type="curve" smooth="yes"/>
      <point x="380" y="366"/>
      <point x="454" y="312"/>
      <point x="454" y="218" type="curve" smooth="yes"/>
      <point x="454" y="121"/>
      <point x="402" y="56"/>
      <point x="302" y="56" type="curve" smooth="yes"/>
      <point x="220" y="56"/>
      <point x="145" y="116"/>
      <point x="145" y="211" type="curve" smooth="yes"/>
      <point x="145" y="309"/>
      <point x="215" y="377"/>
      <point x="333" y="401" type="curve"/>
      <point x="292" y="449" type="line"/>
      <point x="170" y="418"/>
      <point x="65" y="338"/>
      <point x="65" y="209" type="curve" smooth="yes"/>
      <point x="65" y="70"/>
      <point x="180" y="-12"/>
    </contour>
  </outline>
</glyph>
<glyph name="epsilon" format="1">
  <advance width="600"/>
  <unicode hex="03B5"/>
  <outline>
    <contour>
      <point x="321" y="-12" type="curve" smooth="yes"/>
      <point x="403" y="-12"/>
      <point x="463" y="4"/>
      <point x="534" y="58" type="curve"/>
      <point x="499" y="113" type="line"/>
      <point x="441" y="66"/>
      <point x="389" y="54"/>
      <point x="330" y="54" type="curve" smooth="yes"/>
      <point x="224" y="54"/>
      <point x="174" y="87"/>
      <point x="174" y="141" type="curve" smooth="yes"/>
      <point x="174" y="194"/>
      <point x="224" y="223"/>
      <point x="324" y="223" type="curve" smooth="yes"/>
      <point x="348" y="223"/>
      <point x="371" y="223"/>
      <point x="399" y="221" type="curve"/>
      <point x="399" y="285" type="line"/>
      <point x="375" y="283"/>
      <point x="358" y="282"/>
      <point x="338" y="282" type="curve" smooth="yes"/>
      <point x="240" y="282"/>
      <point x="198" y="313"/>
      <point x="198" y="357" type="curve" smooth="yes"/>
      <point x="198" y="407"/>
      <point x="246" y="433"/>
      <point x="328" y="433" type="curve" smooth="yes"/>
      <point x="385" y="433"/>
      <point x="436" y="416"/>
      <point x="486" y="381" type="curve"/>
      <point x="519" y="436" type="line"/>
      <point x="463" y="476"/>
      <point x="397" y="498"/>
      <point x="325" y="498" type="curve" smooth="yes"/>
      <point x="203" y="498"/>
      <point x="115" y="456"/>
      <point x="115" y="367" type="curve" smooth="yes"/>
      <point x="115" y="322"/>
      <point x="146" y="280"/>
      <point x="202" y="259" type="curve"/>
      <point x="202" y="255" type="line"/>
      <point x="141" y="239"/>
      <point x="92" y="204"/>
      <point x="92" y="134" type="curve" smooth="yes"/>
      <point x="92" y="43"/>
      <point x="178" y="-12"/>
    </contour>
  </outline>
</glyph>
<glyph name="zeta" format="1">
  <advance width="600"/>
  <unicode hex="03B6"/>
  <outline>
    <contour>
      <point x="467" y="-184" type="line"/>
      <point x="507" y="-129"/>
      <point x="524" y="-80"/>
      <point x="524" y="-50" type="curve" smooth="yes"/>
      <point x="524" y="16"/>
      <point x="474" y="38"/>
      <point x="367" y="58" type="curve" smooth="yes"/>
      <point x="264" y="77"/>
      <point x="201" y="111"/>
      <point x="201" y="226" type="curve" smooth="yes"/>
      <point x="201" y="371"/>
      <point x="360" y="552"/>
      <point x="518" y="645" type="curve"/>
      <point x="523" y="645" type="line"/>
      <point x="523" y="712" type="line"/>
      <point x="146" y="712" type="line"/>
      <point x="146" y="645" type="line"/>
      <point x="222" y="649"/>
      <point x="361" y="650"/>
      <point x="427" y="650" type="curve"/>
      <point x="275" y="552"/>
      <point x="116" y="382"/>
      <point x="116" y="222" type="curve" smooth="yes"/>
      <point x="116" y="63"/>
      <point x="211" y="13"/>
      <point x="318" y="-8" type="curve" smooth="yes"/>
      <point x="422" y="-29"/>
      <point x="450" y="-39"/>
      <point x="450" y="-69" type="curve" smooth="yes"/>
      <point x="450" y="-96"/>
      <point x="436" y="-114"/>
      <point x="401" y="-157" type="curve"/>
    </contour>
  </outline>
</glyph>
<glyph name="eta" format="1">
	<unicode hex="03B7"/>
	<advance width="600"/>
	<outline>
		<contour>
			<point x="431" y="-179" type="curve"/>
			<point x="514" y="-179" type="line"/>
			<point x="514" y="308" type="line" smooth="yes"/>
			<point x="514" y="432"/>
			<point x="471" y="498"/>
			<point x="367" y="498" type="curve" smooth="yes"/>
			<point x="288" y="498"/>
			<point x="233" y="466"/>
			<point x="178" y="391" type="curve"/>
			<point x="175" y="391" type="line"/>
			<point x="168" y="486" type="line"/>
			<point x="93" y="486" type="line"/>
			<point x="99" y="435"/>
			<point x="100" y="391"/>
			<point x="100" y="353" type="curve" smooth="yes"/>
			<point x="100" y="0" type="line"/>
			<point x="182" y="0" type="line"/>
			<point x="182" y="324" type="line"/>
			<point x="242" y="405"/>
			<point x="283" y="427"/>
			<point x="343" y="427" type="curve" smooth="yes"/>
			<point x="410" y="427"/>
			<point x="437" y="388"/>
			<point x="437" y="297" type="curve" smooth="yes"/>
			<point x="437" y="157"/>
			<point x="434" y="-20"/>
		</contour>
		<contour>
			<point name="aboveLC" x="326" y="507" type="move"/>
		</contour>
		<contour>
			<point name="belowLC" x="135" y="-20" type="move"/>
		</contour>
	</outline>
</glyph>
<glyph name="iota" format="1">
  <advance width="600"/>
  <unicode hex="03B9"/>
  <outline>
    <contour>
      <point x="400" y="-12" type="curve" smooth="yes"/>
      <point x="453" y="-12"/>
      <point x="491" y="-1"/>
      <point x="525" y="15" type="curve"/>
      <point x="504" y="76" type="line"/>
      <point x="473" y="62"/>
      <point x="443" y="56"/>
      <point x="418" y="56" type="curve" smooth="yes"/>
      <point x="356" y="56"/>
      <point x="324" y="87"/>
      <point x="324" y="157" type="curve" smooth="yes"/>
      <point x="324" y="253"/>
      <point x="328" y="377"/>
      <point x="330" y="486" type="curve"/>
      <point x="81" y="486" type="line"/>
      <point x="81" y="419" type="line"/>
      <point x="247" y="419" type="line"/>
      <point x="247" y="163" type="line" smooth="yes"/>
      <point x="247" y="48"/>
      <point x="292" y="-12"/>
    </contour>
    <contour>
      <point x="282" y="507" type="move" name="aboveLC"/>
    </contour>
  </outline>
</glyph>
<glyph name="kappa" format="1">
  <advance width="600"/>
  <unicode hex="03BA"/>
  <outline>
    <contour>
      <point x="110" y="0" type="line"/>
      <point x="187" y="0" type="line"/>
      <point x="187" y="25" type="line" smooth="yes"/>
      <point x="187" y="88"/>
      <point x="200" y="137"/>
      <point x="224" y="172" type="curve" smooth="yes"/>
      <point x="322" y="308"/>
      <point x="437" y="391"/>
      <point x="542" y="420" type="curve"/>
      <point x="533" y="498" type="line"/>
      <point x="409" y="467"/>
      <point x="275" y="360"/>
      <point x="195" y="221" type="curve"/>
      <point x="191" y="221" type="line"/>
      <point x="191" y="373" type="line" smooth="yes"/>
      <point x="191" y="416"/>
      <point x="189" y="460"/>
      <point x="182" y="486" type="curve"/>
      <point x="100" y="486" type="line"/>
      <point x="109" y="443"/>
      <point x="110" y="391"/>
      <point x="110" y="353" type="curve" smooth="yes"/>
    </contour>
    <contour>
      <point x="484" y="-8" type="curve"/>
      <point x="577" y="0" type="line"/>
      <point x="493" y="91"/>
      <point x="393" y="217"/>
      <point x="340" y="322" type="curve"/>
      <point x="285" y="269" type="line"/>
      <point x="336" y="168"/>
      <point x="422" y="63"/>
    </contour>
  </outline>
</glyph>
<glyph name="lambda" format="1">
	<unicode hex="03BB"/>
	<advance width="600"/>
	<outline>
		<contour>
			<point x="145" y="-8" type="line"/>
			<point x="315" y="403" type="line"/>
			<point x="319" y="403" type="line"/>
			<point x="464" y="0" type="line"/>
			<point x="553" y="0" type="line"/>
			<point x="355" y="519" type="line" smooth="yes"/>
			<point x="305" y="660"/>
			<point x="257" y="724"/>
			<point x="155" y="724" type="curve" smooth="yes"/>
			<point x="112" y="724"/>
			<point x="86" y="716"/>
			<point x="63" y="706" type="curve"/>
			<point x="84" y="638" type="line"/>
			<point x="101" y="646"/>
			<point x="119" y="654"/>
			<point x="146" y="654" type="curve" smooth="yes"/>
			<point x="206" y="654"/>
			<point x="240" y="614"/>
			<point x="272" y="520" type="curve"/>
			<point x="280" y="497" type="line"/>
			<point x="56" y="0" type="line"/>
		</contour>
	</outline>
</glyph>
<glyph name="nu" format="1">
  <advance width="600"/>
  <unicode hex="03BD"/>
  <outline>
    <contour>
      <point x="257" y="0" type="curve"/>
      <point x="338" y="0" type="line"/>
      <point x="444" y="173"/>
      <point x="514" y="317"/>
      <point x="540" y="486" type="curve"/>
      <point x="457" y="486" type="line"/>
      <point x="446" y="355"/>
      <point x="380" y="210"/>
      <point x="313" y="85" type="curve"/>
      <point x="309" y="85" type="line"/>
      <point x="282" y="228"/>
      <point x="204" y="393"/>
      <point x="129" y="498" type="curve"/>
      <point x="47" y="477" type="line"/>
      <point x="136" y="353"/>
      <point x="221" y="191"/>
    </contour>
  </outline>
</glyph>
<glyph name="xi" format="1">
  <advance width="600"/>
  <unicode hex="03BE"/>
  <outline>
    <contour>
      <point x="470" y="-184" type="line"/>
      <point x="511" y="-128"/>
      <point x="527" y="-80"/>
      <point x="527" y="-50" type="curve" smooth="yes"/>
      <point x="527" y="16"/>
      <point x="483" y="37"/>
      <point x="373" y="58" type="curve" smooth="yes"/>
      <point x="272" y="76"/>
      <point x="197" y="100"/>
      <point x="197" y="196" type="curve" smooth="yes"/>
      <point x="197" y="290"/>
      <point x="285" y="345"/>
      <point x="376" y="345" type="curve" smooth="yes"/>
      <point x="406" y="345"/>
      <point x="428" y="346"/>
      <point x="459" y="339" type="curve"/>
      <point x="459" y="409" type="line"/>
      <point x="429" y="402"/>
      <point x="412" y="403"/>
      <point x="381" y="403" type="curve" smooth="yes"/>
      <point x="314" y="403"/>
      <point x="243" y="455"/>
      <point x="243" y="525" type="curve" smooth="yes"/>
      <point x="243" y="602"/>
      <point x="306" y="645"/>
      <point x="379" y="645" type="curve" smooth="yes"/>
      <point x="523" y="645" type="line"/>
      <point x="523" y="712" type="line"/>
      <point x="92" y="712" type="line"/>
      <point x="92" y="645" type="line"/>
      <point x="154" y="649"/>
      <point x="183" y="650"/>
      <point x="238" y="650" type="curve"/>
      <point x="189" y="625"/>
      <point x="160" y="582"/>
      <point x="160" y="527" type="curve" smooth="yes"/>
      <point x="160" y="457"/>
      <point x="207" y="410"/>
      <point x="271" y="383" type="curve"/>
      <point x="271" y="379" type="line"/>
      <point x="186" y="354"/>
      <point x="112" y="281"/>
      <point x="112" y="185" type="curve" smooth="yes"/>
      <point x="112" y="57"/>
      <point x="208" y="15"/>
      <point x="321" y="-8" type="curve" smooth="yes"/>
      <point x="426" y="-28"/>
      <point x="452" y="-39"/>
      <point x="452" y="-69" type="curve" smooth="yes"/>
      <point x="452" y="-96"/>
      <point x="439" y="-114"/>
      <point x="404" y="-157" type="curve"/>
    </contour>
  </outline>
</glyph>
<glyph name="omicron" format="1">
  <advance width="600"/>
  <unicode hex="03BF"/>
  <outline>
    <contour>
      <point x="300" y="-12" type="curve" smooth="yes"/>
      <point x="431" y="-12"/>
      <point x="538" y="80"/>
      <point x="538" y="242" type="curve" smooth="yes"/>
      <point x="538" y="406"/>
      <point x="431" y="498"/>
      <point x="300" y="498" type="curve" smooth="yes"/>
      <point x="169" y="498"/>
      <point x="62" y="406"/>
      <point x="62" y="242" type="curve" smooth="yes"/>
      <point x="62" y="80"/>
      <point x="169" y="-12"/>
    </contour>
    <contour>
      <point x="300" y="56" type="curve" smooth="yes"/>
      <point x="204" y="56"/>
      <point x="147" y="130"/>
      <point x="147" y="242" type="curve" smooth="yes"/>
      <point x="147" y="355"/>
      <point x="204" y="430"/>
      <point x="300" y="430" type="curve" smooth="yes"/>
      <point x="396" y="430"/>
      <point x="453" y="355"/>
      <point x="453" y="242" type="curve" smooth="yes"/>
      <point x="453" y="130"/>
      <point x="396" y="56"/>
    </contour>
  </outline>
</glyph>
<glyph name="rho" format="1">
	<unicode hex="03C1"/>
	<advance width="600"/>
	<outline>
		<contour>
			<point x="93" y="-179" type="line"/>
			<point x="176" y="-179" type="line"/>
			<point x="175" y="-93"/>
			<point x="173" y="-30"/>
			<point x="170" y="57" type="curve"/>
			<point x="216" y="3"/>
			<point x="272" y="-12"/>
			<point x="328" y="-12" type="curve" smooth="yes"/>
			<point x="436" y="-12"/>
			<point x="540" y="85"/>
			<point x="540" y="250" type="curve" smooth="yes"/>
			<point x="540" y="404"/>
			<point x="462" y="498"/>
			<point x="319" y="498" type="curve" smooth="yes"/>
			<point x="195" y="498"/>
			<point x="93" y="417"/>
			<point x="93" y="248" type="curve" smooth="yes"/>
		</contour>
		<contour>
			<point x="314" y="57" type="curve" smooth="yes"/>
			<point x="268" y="57"/>
			<point x="219" y="66"/>
			<point x="172" y="123" type="curve"/>
			<point x="172" y="247" type="line" smooth="yes"/>
			<point x="172" y="369"/>
			<point x="239" y="429"/>
			<point x="316" y="429" type="curve" smooth="yes"/>
			<point x="414" y="429"/>
			<point x="455" y="357"/>
			<point x="455" y="250" type="curve" smooth="yes"/>
			<point x="455" y="130"/>
			<point x="392" y="57"/>
		</contour>
		<contour>
			<point name="aboveLC" x="336" y="507" type="move"/>
		</contour>
	</outline>
</glyph>
<glyph name="sigma" format="1">
	<unicode hex="03C3"/>
	<advance width="600"/>
	<outline>
		<contour>
			<point x="290" y="-12" type="curve" smooth="yes"/>
			<point x="415" y="-12"/>
			<point x="514" y="76"/>
			<point x="514" y="227" type="curve" smooth="yes"/>
			<point x="514" y="318"/>
			<point x="477" y="385"/>
			<point x="414" y="420" type="curve"/>
			<point x="414" y="424" type="line"/>
			<point x="470" y="423"/>
			<point x="515" y="420"/>
			<point x="572" y="416" type="curve"/>
			<point x="572" y="486" type="line"/>
			<point x="294" y="486" type="line" smooth="yes"/>
			<point x="172" y="486"/>
			<point x="60" y="408"/>
			<point x="60" y="238" type="curve" smooth="yes"/>
			<point x="60" y="77"/>
			<point x="165" y="-12"/>
		</contour>
		<contour>
			<point x="290" y="56" type="curve" smooth="yes"/>
			<point x="207" y="56"/>
			<point x="145" y="126"/>
			<point x="145" y="238" type="curve" smooth="yes"/>
			<point x="145" y="359"/>
			<point x="208" y="418"/>
			<point x="292" y="418" type="curve" smooth="yes"/>
			<point x="383" y="418"/>
			<point x="433" y="331"/>
			<point x="433" y="234" type="curve" smooth="yes"/>
			<point x="433" y="125"/>
			<point x="374" y="56"/>
		</contour>
	</outline>
</glyph>
<glyph name="tau" format="1">
  <advance width="600"/>
  <unicode hex="03C4"/>
  <outline>
    <contour>
      <point x="376" y="-12" type="curve" smooth="yes"/>
      <point x="411" y="-12"/>
      <point x="444" y="-5"/>
      <point x="466" y="3" type="curve"/>
      <point x="455" y="67" type="line"/>
      <point x="433" y="60"/>
      <point x="414" y="56"/>
      <point x="394" y="56" type="curve" smooth="yes"/>
      <point x="356" y="56"/>
      <point x="336" y="75"/>
      <point x="336" y="121" type="curve" smooth="yes"/>
      <point x="336" y="213"/>
      <point x="337" y="315"/>
      <point x="340" y="419" type="curve"/>
      <point x="534" y="419" type="line"/>
      <point x="534" y="486" type="line"/>
      <point x="136" y="486" type="line"/>
      <point x="66" y="481" type="line"/>
      <point x="66" y="419" type="line"/>
      <point x="259" y="419" type="line"/>
      <point x="259" y="127" type="line" smooth="yes"/>
      <point x="259" y="36"/>
      <point x="289" y="-12"/>
    </contour>
  </outline>
</glyph>
<glyph name="upsilon" format="1">
  <advance width="600"/>
  <unicode hex="03C5"/>
  <outline>
    <contour>
      <point x="294" y="-12" type="curve" smooth="yes"/>
      <point x="431" y="-12"/>
      <point x="527" y="84"/>
      <point x="527" y="259" type="curve" smooth="yes"/>
      <point x="527" y="340"/>
      <point x="510" y="419"/>
      <point x="483" y="498" type="curve"/>
      <point x="403" y="479" type="line"/>
      <point x="432" y="395"/>
      <point x="443" y="325"/>
      <point x="443" y="257" type="curve" smooth="yes"/>
      <point x="443" y="119"/>
      <point x="380" y="56"/>
      <point x="295" y="56" type="curve" smooth="yes"/>
      <point x="223" y="56"/>
      <point x="160" y="93"/>
      <point x="160" y="192" type="curve" smooth="yes"/>
      <point x="160" y="248"/>
      <point x="166" y="322"/>
      <point x="166" y="373" type="curve" smooth="yes"/>
      <point x="166" y="416"/>
      <point x="166" y="452"/>
      <point x="159" y="486" type="curve"/>
      <point x="79" y="486" type="line"/>
      <point x="86" y="435"/>
      <point x="87" y="391"/>
      <point x="87" y="353" type="curve" smooth="yes"/>
      <point x="87" y="301"/>
      <point x="83" y="249"/>
      <point x="83" y="197" type="curve" smooth="yes"/>
      <point x="83" y="57"/>
      <point x="163" y="-12"/>
    </contour>
    <contour>
      <point x="296" y="507" type="move" name="aboveLC"/>
    </contour>
  </outline>
</glyph>
<glyph name="phi" format="1">
  <advance width="600"/>
  <unicode hex="03C6"/>
  <outline>
    <contour>
      <point x="274" y="-9" type="curve"/>
      <point x="271" y="54" type="line"/>
      <point x="180" y="55"/>
      <point x="117" y="126"/>
      <point x="117" y="244" type="curve" smooth="yes"/>
      <point x="117" y="361"/>
      <point x="180" y="431"/>
      <point x="271" y="432" type="curve"/>
      <point x="274" y="495" type="line"/>
      <point x="149" y="495"/>
      <point x="43" y="406"/>
      <point x="43" y="244" type="curve" smooth="yes"/>
      <point x="43" y="81"/>
      <point x="149" y="-9"/>
    </contour>
    <contour>
      <point x="326" y="-9" type="line"/>
      <point x="451" y="-9"/>
      <point x="557" y="81"/>
      <point x="557" y="244" type="curve" smooth="yes"/>
      <point x="557" y="406"/>
      <point x="451" y="495"/>
      <point x="326" y="495" type="curve"/>
      <point x="329" y="432" type="line"/>
      <point x="421" y="431"/>
      <point x="483" y="361"/>
      <point x="483" y="244" type="curve" smooth="yes"/>
      <point x="483" y="126"/>
      <point x="421" y="55"/>
      <point x="329" y="54" type="curve"/>
    </contour>
    <contour>
      <point x="265" y="-179" type="line"/>
      <point x="335" y="-179" type="line"/>
      <point x="335" y="622" type="line"/>
      <point x="265" y="622" type="line"/>
    </contour>
  </outline>
</glyph>
<glyph name="chi" format="1">
	<unicode hex="03C7"/>
	<advance width="600"/>
	<outline>
		<contour>
			<point x="139" y="-191" type="line"/>
			<point x="301" y="96" type="line"/>
			<point x="305" y="96" type="line"/>
			<point x="480" y="-191" type="line"/>
			<point x="560" y="-170" type="line"/>
			<point x="344" y="164" type="line"/>
			<point x="529" y="486" type="line"/>
			<point x="442" y="486" type="line"/>
			<point x="305" y="236" type="line"/>
			<point x="301" y="236" type="line"/>
			<point x="141" y="498" type="line"/>
			<point x="59" y="477" type="line"/>
			<point x="262" y="163" type="line"/>
			<point x="56" y="-179" type="line"/>
		</contour>
	</outline>
</glyph>
<glyph name="psi" format="1">
  <advance width="600"/>
  <unicode hex="03C8"/>
  <outline>
    <contour>
      <point x="269" y="-12" type="curve"/>
      <point x="267" y="55" type="line"/>
      <point x="176" y="55"/>
      <point x="132" y="116"/>
      <point x="132" y="211" type="curve" smooth="yes"/>
      <point x="132" y="244"/>
      <point x="134" y="317"/>
      <point x="134" y="373" type="curve" smooth="yes"/>
      <point x="134" y="416"/>
      <point x="133" y="452"/>
      <point x="128" y="486" type="curve"/>
      <point x="53" y="486" type="line"/>
      <point x="59" y="435"/>
      <point x="60" y="391"/>
      <point x="60" y="353" type="curve" smooth="yes"/>
      <point x="60" y="215" type="line" smooth="yes"/>
      <point x="60" y="80"/>
      <point x="125" y="-12"/>
    </contour>
    <contour>
      <point x="324" y="-12" type="line"/>
      <point x="468" y="-12"/>
      <point x="553" y="85"/>
      <point x="553" y="258" type="curve" smooth="yes"/>
      <point x="553" y="345"/>
      <point x="540" y="415"/>
      <point x="510" y="498" type="curve"/>
      <point x="435" y="479" type="line"/>
      <point x="467" y="391"/>
      <point x="475" y="331"/>
      <point x="475" y="256" type="curve" smooth="yes"/>
      <point x="475" y="119"/>
      <point x="420" y="55"/>
      <point x="325" y="55" type="curve"/>
    </contour>
    <contour>
      <point x="264" y="-179" type="line"/>
      <point x="333" y="-179" type="line"/>
      <point x="333" y="622" type="line"/>
      <point x="264" y="622" type="line"/>
    </contour>
  </outline>
</glyph>
<glyph name="omega" format="1">
  <advance width="600"/>
  <unicode hex="03C9"/>
  <outline>
    <contour>
      <point x="190" y="-12" type="curve" smooth="yes"/>
      <point x="236" y="-12"/>
      <point x="275" y="13"/>
      <point x="297" y="69" type="curve"/>
      <point x="301" y="69" type="line"/>
      <point x="323" y="13"/>
      <point x="365" y="-12"/>
      <point x="412" y="-12" type="curve" smooth="yes"/>
      <point x="504" y="-12"/>
      <point x="566" y="69"/>
      <point x="566" y="232" type="curve" smooth="yes"/>
      <point x="566" y="345"/>
      <point x="530" y="421"/>
      <point x="479" y="498" type="curve"/>
      <point x="406" y="467" type="line"/>
      <point x="460" y="385"/>
      <point x="482" y="326"/>
      <point x="482" y="227" type="curve" smooth="yes"/>
      <point x="482" y="111"/>
      <point x="450" y="56"/>
      <point x="402" y="56" type="curve" smooth="yes"/>
      <point x="364" y="56"/>
      <point x="334" y="85"/>
      <point x="334" y="178" type="curve" smooth="yes"/>
      <point x="334" y="218"/>
      <point x="336" y="256"/>
      <point x="341" y="308" type="curve"/>
      <point x="256" y="308" type="line"/>
      <point x="261" y="256"/>
      <point x="264" y="218"/>
      <point x="264" y="178" type="curve" smooth="yes"/>
      <point x="264" y="88"/>
      <point x="233" y="56"/>
      <point x="195" y="56" type="curve" smooth="yes"/>
      <point x="148" y="56"/>
      <point x="114" y="113"/>
      <point x="114" y="214" type="curve" smooth="yes"/>
      <point x="114" y="316"/>
      <point x="142" y="384"/>
      <point x="197" y="465" type="curve"/>
      <point x="125" y="498" type="line"/>
      <point x="74" y="422"/>
      <point x="34" y="332"/>
      <point x="34" y="229" type="curve" smooth="yes"/>
      <point x="34" y="68"/>
      <point x="102" y="-12"/>
    </contour>
    <contour>
      <point x="300" y="507" type="move" name="aboveLC"/>
    </contour>
    <contour>
      <point x="300" y="-20" type="move" name="belowLC"/>
    </contour>
  </outline>
</glyph>
<glyph name="kai" format="1">
	<unicode hex="03D7"/>
	<advance width="600"/>
	<outline>
		<contour>
			<point x="441" y="-187" type="line"/>
			<point x="481" y="-141"/>
			<point x="533" y="-70"/>
			<point x="577" y="0" type="curve"/>
			<point x="490" y="3" type="line"/>
			<point x="452" y="-56"/>
			<point x="401" y="-122"/>
			<point x="346" y="-179" type="curve"/>
		</contour>
		<component base="kappa"/>
	</outline>
</glyph>
<glyph name="koppa" format="1">
	<unicode hex="03D9"/>
	<advance width="600"/>
	<outline>
		<contour>
			<point x="300" y="-12" type="curve" smooth="yes"/>
			<point x="430" y="-12"/>
			<point x="538" y="80"/>
			<point x="538" y="242" type="curve" smooth="yes"/>
			<point x="538" y="406"/>
			<point x="430" y="498"/>
			<point x="300" y="498" type="curve" smooth="yes"/>
			<point x="170" y="498"/>
			<point x="62" y="406"/>
			<point x="62" y="242" type="curve" smooth="yes"/>
			<point x="62" y="80"/>
			<point x="170" y="-12"/>
		</contour>
		<contour>
			<point x="300" y="54" type="curve" smooth="yes"/>
			<point x="204" y="54"/>
			<point x="147" y="128"/>
			<point x="147" y="242" type="curve" smooth="yes"/>
			<point x="147" y="355"/>
			<point x="204" y="430"/>
			<point x="300" y="430" type="curve" smooth="yes"/>
			<point x="396" y="430"/>
			<point x="453" y="355"/>
			<point x="453" y="242" type="curve" smooth="yes"/>
			<point x="453" y="128"/>
			<point x="396" y="54"/>
		</contour>
		<contour>
			<point x="263" y="-179" type="line"/>
			<point x="346" y="-179" type="line"/>
			<point x="344" y="-98"/>
			<point x="343" y="-58"/>
			<point x="340" y="23" type="curve"/>
			<point x="263" y="24" type="line"/>
		</contour>
	</outline>
</glyph>
<glyph name="Ieukran" format="1">
	<unicode hex="0404"/>
	<advance width="600"/>
	<outline>
		<contour>
			<point x="352" y="-12" type="curve" smooth="yes"/>
			<point x="437" y="-12"/>
			<point x="502" y="23"/>
			<point x="554" y="83" type="curve"/>
			<point x="508" y="135" type="line"/>
			<point x="466" y="89"/>
			<point x="418" y="61"/>
			<point x="356" y="61" type="curve" smooth="yes"/>
			<point x="226" y="61"/>
			<point x="149" y="152"/>
			<point x="149" y="334" type="curve" smooth="yes"/>
			<point x="149" y="502"/>
			<point x="229" y="595"/>
			<point x="358" y="595" type="curve" smooth="yes"/>
			<point x="413" y="595"/>
			<point x="458" y="570"/>
			<point x="492" y="533" type="curve"/>
			<point x="538" y="587" type="line"/>
			<point x="500" y="630"/>
			<point x="436" y="668"/>
			<point x="356" y="668" type="curve" smooth="yes"/>
			<point x="187" y="668"/>
			<point x="66" y="550"/>
			<point x="66" y="328" type="curve" smooth="yes"/>
			<point x="66" y="105"/>
			<point x="185" y="-12"/>
		</contour>
		<contour>
			<point x="107" y="309" type="line"/>
			<point x="425" y="309" type="line"/>
			<point x="425" y="380" type="line"/>
			<point x="107" y="380" type="line"/>
		</contour>
	</outline>
</glyph>
<glyph name="Nje" format="1">
  <advance width="600"/>
  <unicode hex="040A"/>
  <outline>
    <contour>
      <point x="39" y="0" type="line"/>
      <point x="115" y="0" type="line"/>
      <point x="115" y="309" type="line"/>
      <point x="279" y="309" type="line"/>
      <point x="279" y="381" type="line"/>
      <point x="115" y="381" type="line"/>
      <point x="115" y="656" type="line"/>
      <point x="39" y="656" type="line"/>
    </contour>
    <contour>
      <point x="267" y="0" type="line"/>
      <point x="379" y="0" type="line" smooth="yes"/>
      <point x="497" y="0"/>
      <point x="573" y="62"/>
      <point x="573" y="202" type="curve" smooth="yes"/>
      <point x="573" y="333"/>
      <point x="494" y="387"/>
      <point x="378" y="387" type="curve" smooth="yes"/>
      <point x="343" y="387" type="line"/>
      <point x="343" y="656" type="line"/>
      <point x="267" y="656" type="line"/>
    </contour>
    <contour>
      <point x="343" y="68" type="line"/>
      <point x="343" y="320" type="line"/>
      <point x="369" y="320" type="line" smooth="yes"/>
      <point x="456" y="320"/>
      <point x="499" y="285"/>
      <point x="499" y="200" type="curve" smooth="yes"/>
      <point x="499" y="105"/>
      <point x="456" y="68"/>
      <point x="372" y="68" type="curve" smooth="yes"/>
    </contour>
  </outline>
</glyph>
<glyph name="Tshe" format="1">
  <advance width="600"/>
  <unicode hex="040B"/>
  <outline>
    <contour>
      <point x="173" y="0" type="line"/>
      <point x="256" y="0" type="line"/>
      <point x="256" y="322" type="line"/>
      <point x="281" y="328"/>
      <point x="317" y="332"/>
      <point x="348" y="332" type="curve" smooth="yes"/>
      <point x="439" y="332"/>
      <point x="485" y="298"/>
      <point x="485" y="209" type="curve" smooth="yes"/>
      <point x="485" y="0" type="line"/>
      <point x="567" y="0" type="line"/>
      <point x="567" y="209" type="line" smooth="yes"/>
      <point x="567" y="345"/>
      <point x="490" y="401"/>
      <point x="360" y="401" type="curve" smooth="yes"/>
      <point x="325" y="401"/>
      <point x="286" y="396"/>
      <point x="256" y="391" type="curve"/>
      <point x="256" y="656" type="line"/>
      <point x="173" y="656" type="line"/>
    </contour>
    <contour>
      <point x="5" y="586" type="line"/>
      <point x="466" y="586" type="line"/>
      <point x="466" y="656" type="line"/>
      <point x="5" y="656" type="line"/>
    </contour>
  </outline>
</glyph>
<glyph name="Dzhe" format="1">
	<unicode hex="040F"/>
	<advance width="600"/>
	<outline>
		<contour>
			<point x="75" y="0" type="line"/>
			<point x="525" y="0" type="line"/>
			<point x="525" y="656" type="line"/>
			<point x="441" y="656" type="line"/>
			<point x="441" y="71" type="line"/>
			<point x="159" y="71" type="line"/>
			<point x="159" y="656" type="line"/>
			<point x="75" y="656" type="line"/>
		</contour>
		<contour>
			<point x="266" y="-188" type="line"/>
			<point x="335" y="-188" type="line"/>
			<point x="344" y="16" type="line"/>
			<point x="266" y="0" type="line"/>
		</contour>
	</outline>
</glyph>
<glyph name="Acyr" format="1">
	<unicode hex="0410"/>
	<advance width="600"/>
	<outline>
		<component base="A"/>
		<contour>
			<point name="aboveUC" x="300" y="676" type="move"/>
		</contour>
	</outline>
</glyph>
<glyph name="Be" format="1">
  <advance width="600"/>
  <unicode hex="0411"/>
  <outline>
    <contour>
      <point x="99" y="0" type="line"/>
      <point x="310" y="0" type="line" smooth="yes"/>
      <point x="455" y="0"/>
      <point x="547" y="62"/>
      <point x="547" y="199" type="curve" smooth="yes"/>
      <point x="547" y="330"/>
      <point x="446" y="380"/>
      <point x="306" y="380" type="curve" smooth="yes"/>
      <point x="183" y="380" type="line"/>
      <point x="183" y="586" type="line"/>
      <point x="503" y="586" type="line"/>
      <point x="503" y="656" type="line"/>
      <point x="99" y="656" type="line"/>
    </contour>
    <contour>
      <point x="183" y="66" type="line"/>
      <point x="183" y="316" type="line"/>
      <point x="294" y="316" type="line" smooth="yes"/>
      <point x="406" y="316"/>
      <point x="464" y="281"/>
      <point x="464" y="197" type="curve" smooth="yes"/>
      <point x="464" y="107"/>
      <point x="408" y="66"/>
      <point x="297" y="66" type="curve" smooth="yes"/>
    </contour>
  </outline>
</glyph>
<glyph name="De" format="1">
  <advance width="600"/>
  <unicode hex="0414"/>
  <outline>
    <contour>
      <point x="31" y="-188" type="line"/>
      <point x="104" y="-188" type="line"/>
      <point x="104" y="0" type="line"/>
      <point x="496" y="0" type="line"/>
      <point x="496" y="-188" type="line"/>
      <point x="569" y="-188" type="line"/>
      <point x="578" y="21" type="line"/>
      <point x="578" y="71" type="line"/>
      <point x="22" y="71" type="line"/>
      <point x="22" y="21" type="line"/>
    </contour>
    <contour>
      <point x="422" y="0" type="line"/>
      <point x="505" y="0" type="line"/>
      <point x="505" y="656" type="line"/>
      <point x="192" y="656" type="line"/>
      <point x="171" y="516"/>
      <point x="158" y="437"/>
      <point x="135" y="307" type="curve" smooth="yes"/>
      <point x="105" y="133"/>
      <point x="77" y="81"/>
      <point x="52" y="71" type="curve"/>
      <point x="76" y="22" type="line"/>
      <point x="134" y="32"/>
      <point x="176" y="97"/>
      <point x="210" y="293" type="curve" smooth="yes"/>
      <point x="230" y="406"/>
      <point x="238" y="473"/>
      <point x="257" y="586" type="curve"/>
      <point x="422" y="586" type="line"/>
    </contour>
  </outline>
</glyph>
<glyph name="Ze" format="1">
	<unicode hex="0417"/>
	<advance width="600"/>
	<outline>
		<contour>
			<point x="301" y="-12" type="curve" smooth="yes"/>
			<point x="434" y="-12"/>
			<point x="540" y="60"/>
			<point x="540" y="186" type="curve" smooth="yes"/>
			<point x="540" y="276"/>
			<point x="484" y="333"/>
			<point x="408" y="348" type="curve"/>
			<point x="408" y="352" type="line"/>
			<point x="471" y="375"/>
			<point x="506" y="431"/>
			<point x="506" y="500" type="curve" smooth="yes"/>
			<point x="506" y="605"/>
			<point x="420" y="668"/>
			<point x="295" y="668" type="curve" smooth="yes"/>
			<point x="214" y="668"/>
			<point x="139" y="635"/>
			<point x="91" y="588" type="curve"/>
			<point x="136" y="532" type="line"/>
			<point x="177" y="571"/>
			<point x="231" y="595"/>
			<point x="293" y="595" type="curve" smooth="yes"/>
			<point x="368" y="595"/>
			<point x="424" y="559"/>
			<point x="424" y="490" type="curve" smooth="yes"/>
			<point x="424" y="416"/>
			<point x="375" y="377"/>
			<point x="258" y="377" type="curve" smooth="yes"/>
			<point x="204" y="377" type="line"/>
			<point x="204" y="313" type="line"/>
			<point x="278" y="313" type="line" smooth="yes"/>
			<point x="392" y="313"/>
			<point x="458" y="274"/>
			<point x="458" y="190" type="curve" smooth="yes"/>
			<point x="458" y="107"/>
			<point x="387" y="61"/>
			<point x="300" y="61" type="curve" smooth="yes"/>
			<point x="223" y="61"/>
			<point x="168" y="84"/>
			<point x="109" y="142" type="curve"/>
			<point x="62" y="85" type="line"/>
			<point x="129" y="17"/>
			<point x="205" y="-12"/>
		</contour>
		<contour>
			<point name="aboveUC" x="314" y="676" type="move"/>
		</contour>
	</outline>
</glyph>
<glyph name="El" format="1">
  <advance width="600"/>
  <unicode hex="041B"/>
  <outline>
    <contour>
      <point x="58" y="-12" type="curve" smooth="yes"/>
      <point x="134" y="-12"/>
      <point x="173" y="34"/>
      <point x="212" y="235" type="curve" smooth="yes"/>
      <point x="234" y="355"/>
      <point x="251" y="466"/>
      <point x="272" y="586" type="curve"/>
      <point x="437" y="586" type="line"/>
      <point x="437" y="0" type="line"/>
      <point x="521" y="0" type="line"/>
      <point x="521" y="656" type="line"/>
      <point x="207" y="656" type="line"/>
      <point x="181" y="509"/>
      <point x="161" y="385"/>
      <point x="133" y="244" type="curve" smooth="yes"/>
      <point x="102" y="88"/>
      <point x="80" y="68"/>
      <point x="47" y="68" type="curve" smooth="yes"/>
      <point x="37" y="68"/>
      <point x="29" y="70"/>
      <point x="19" y="74" type="curve"/>
      <point x="2" y="-3" type="line"/>
      <point x="20" y="-10"/>
      <point x="37" y="-12"/>
    </contour>
  </outline>
</glyph>
<glyph name="Ucyr" format="1">
	<unicode hex="0423"/>
	<advance width="600"/>
	<outline>
		<contour>
			<point x="178" y="-12" type="curve" smooth="yes"/>
			<point x="261" y="-12"/>
			<point x="308" y="38"/>
			<point x="341" y="119" type="curve" smooth="yes"/>
			<point x="556" y="656" type="line"/>
			<point x="471" y="656" type="line"/>
			<point x="359" y="364" type="line"/>
			<point x="312" y="235" type="line"/>
			<point x="308" y="235" type="line"/>
			<point x="258" y="364" type="line"/>
			<point x="136" y="656" type="line"/>
			<point x="47" y="656" type="line"/>
			<point x="271" y="154" type="line"/>
			<point x="257" y="119" type="line"/>
			<point x="239" y="82"/>
			<point x="215" y="66"/>
			<point x="173" y="66" type="curve" smooth="yes"/>
			<point x="153" y="66"/>
			<point x="141" y="69"/>
			<point x="131" y="73" type="curve"/>
			<point x="113" y="-2" type="line"/>
			<point x="131" y="-9"/>
			<point x="149" y="-12"/>
		</contour>
		<contour>
			<point name="aboveUC" x="304" y="676" type="move"/>
		</contour>
	</outline>
</glyph>
<glyph name="Tse" format="1">
	<unicode hex="0426"/>
	<advance width="600"/>
	<outline>
		<contour>
			<point x="79" y="0" type="line"/>
			<point x="518" y="0" type="line"/>
			<point x="518" y="656" type="line"/>
			<point x="435" y="656" type="line"/>
			<point x="435" y="71" type="line"/>
			<point x="162" y="71" type="line"/>
			<point x="162" y="656" type="line"/>
			<point x="79" y="656" type="line"/>
		</contour>
		<contour>
			<point x="512" y="-188" type="line"/>
			<point x="580" y="-188" type="line"/>
			<point x="589" y="21" type="line"/>
			<point x="589" y="71" type="line"/>
			<point x="474" y="71" type="line"/>
			<point x="474" y="0" type="line"/>
			<point x="512" y="0" type="line"/>
		</contour>
	</outline>
</glyph>
<glyph name="Che" format="1">
	<unicode hex="0427"/>
	<advance width="600"/>
	<outline>
		<contour>
			<point x="432" y="0" type="line"/>
			<point x="516" y="0" type="line"/>
			<point x="516" y="656" type="line"/>
			<point x="432" y="656" type="line"/>
			<point x="432" y="363" type="line"/>
			<point x="404" y="357"/>
			<point x="366" y="353"/>
			<point x="314" y="353" type="curve" smooth="yes"/>
			<point x="207" y="353"/>
			<point x="147" y="389"/>
			<point x="147" y="500" type="curve" smooth="yes"/>
			<point x="147" y="656" type="line"/>
			<point x="65" y="656" type="line"/>
			<point x="65" y="500" type="line" smooth="yes"/>
			<point x="65" y="340"/>
			<point x="157" y="284"/>
			<point x="307" y="284" type="curve" smooth="yes"/>
			<point x="360" y="284"/>
			<point x="399" y="288"/>
			<point x="432" y="294" type="curve"/>
		</contour>
	</outline>
</glyph>
<glyph name="Hard" format="1">
  <advance width="600"/>
  <unicode hex="042A"/>
  <outline>
    <contour>
      <point x="201" y="0" type="line"/>
      <point x="347" y="0" type="line" smooth="yes"/>
      <point x="485" y="0"/>
      <point x="573" y="62"/>
      <point x="573" y="202" type="curve" smooth="yes"/>
      <point x="573" y="331"/>
      <point x="474" y="387"/>
      <point x="340" y="387" type="curve" smooth="yes"/>
      <point x="285" y="387" type="line"/>
      <point x="285" y="656" type="line"/>
      <point x="19" y="656" type="line"/>
      <point x="19" y="586" type="line"/>
      <point x="201" y="586" type="line"/>
    </contour>
    <contour>
      <point x="285" y="68" type="line"/>
      <point x="285" y="320" type="line"/>
      <point x="329" y="320" type="line" smooth="yes"/>
      <point x="436" y="320"/>
      <point x="493" y="280"/>
      <point x="493" y="200" type="curve" smooth="yes"/>
      <point x="493" y="107"/>
      <point x="439" y="68"/>
      <point x="336" y="68" type="curve" smooth="yes"/>
    </contour>
  </outline>
</glyph>
<glyph name="Yeru" format="1">
  <advance width="600"/>
  <unicode hex="042B"/>
  <outline>
    <contour>
      <point x="55" y="0" type="line"/>
      <point x="168" y="0" type="line" smooth="yes"/>
      <point x="301" y="0"/>
      <point x="386" y="62"/>
      <point x="386" y="202" type="curve" smooth="yes"/>
      <point x="386" y="333"/>
      <point x="298" y="387"/>
      <point x="167" y="387" type="curve" smooth="yes"/>
      <point x="131" y="387" type="line"/>
      <point x="131" y="656" type="line"/>
      <point x="55" y="656" type="line"/>
    </contour>
    <contour>
      <point x="131" y="68" type="line"/>
      <point x="131" y="320" type="line"/>
      <point x="159" y="320" type="line" smooth="yes"/>
      <point x="261" y="320"/>
      <point x="313" y="283"/>
      <point x="313" y="200" type="curve" smooth="yes"/>
      <point x="313" y="107"/>
      <point x="261" y="68"/>
      <point x="161" y="68" type="curve" smooth="yes"/>
    </contour>
    <contour>
      <point x="469" y="0" type="line"/>
      <point x="545" y="0" type="line"/>
      <point x="545" y="656" type="line"/>
      <point x="469" y="656" type="line"/>
    </contour>
    <contour>
      <point x="300" y="676" type="move" name="aboveUC"/>
    </contour>
  </outline>
</glyph>
<glyph name="Ecyr" format="1">
	<unicode hex="042D"/>
	<advance width="600"/>
	<outline>
		<contour>
			<point x="258" y="-12" type="curve" smooth="yes"/>
			<point x="418" y="-12"/>
			<point x="534" y="105"/>
			<point x="534" y="328" type="curve" smooth="yes"/>
			<point x="534" y="550"/>
			<point x="423" y="668"/>
			<point x="258" y="668" type="curve" smooth="yes"/>
			<point x="176" y="668"/>
			<point x="103" y="630"/>
			<point x="62" y="587" type="curve"/>
			<point x="108" y="533" type="line"/>
			<point x="145" y="571"/>
			<point x="197" y="595"/>
			<point x="254" y="595" type="curve" smooth="yes"/>
			<point x="380" y="595"/>
			<point x="451" y="502"/>
			<point x="451" y="334" type="curve" smooth="yes"/>
			<point x="451" y="153"/>
			<point x="376" y="61"/>
			<point x="256" y="61" type="curve" smooth="yes"/>
			<point x="188" y="61"/>
			<point x="137" y="89"/>
			<point x="92" y="135" type="curve"/>
			<point x="46" y="83" type="line"/>
			<point x="101" y="23"/>
			<point x="169" y="-12"/>
		</contour>
		<contour>
			<point x="175" y="309" type="line"/>
			<point x="493" y="309" type="line"/>
			<point x="493" y="380" type="line"/>
			<point x="175" y="380" type="line"/>
		</contour>
		<contour>
			<point name="aboveUC" x="283" y="676" type="move"/>
		</contour>
	</outline>
</glyph>
<glyph name="Ya" format="1">
	<unicode hex="042F"/>
	<advance width="600"/>
	<outline>
		<contour>
			<point x="417" y="0" type="line"/>
			<point x="501" y="0" type="line"/>
			<point x="501" y="656" type="line"/>
			<point x="295" y="656" type="line" smooth="yes"/>
			<point x="161" y="656"/>
			<point x="65" y="608"/>
			<point x="65" y="472" type="curve" smooth="yes"/>
			<point x="65" y="341"/>
			<point x="161" y="281"/>
			<point x="282" y="277" type="curve"/>
			<point x="417" y="277" type="line"/>
		</contour>
		<contour>
			<point x="307" y="345" type="line" smooth="yes"/>
			<point x="205" y="345"/>
			<point x="149" y="387"/>
			<point x="149" y="472" type="curve" smooth="yes"/>
			<point x="149" y="558"/>
			<point x="205" y="589"/>
			<point x="307" y="589" type="curve" smooth="yes"/>
			<point x="417" y="589" type="line"/>
			<point x="417" y="345" type="line"/>
		</contour>
		<contour>
			<point x="30" y="0" type="line"/>
			<point x="126" y="0" type="line"/>
			<point x="310" y="300" type="line"/>
			<point x="246" y="336" type="line"/>
		</contour>
		<contour>
			<point name="aboveUC" x="314" y="676" type="move"/>
		</contour>
	</outline>
</glyph>
<glyph name="acyr" format="1">
	<unicode hex="0430"/>
	<advance width="600"/>
	<outline>
		<component base="a"/>
		<contour>
			<point name="aboveLC" x="320" y="507" type="move"/>
		</contour>
	</outline>
</glyph>
<glyph name="ghe" format="1">
  <advance width="600"/>
  <unicode hex="0433"/>
  <outline>
    <contour>
      <point x="146" y="0" type="line"/>
      <point x="228" y="0" type="line"/>
      <point x="228" y="419" type="line"/>
      <point x="523" y="419" type="line"/>
      <point x="523" y="486" type="line"/>
      <point x="146" y="486" type="line"/>
    </contour>
    <contour>
      <point x="349" y="507" type="move" name="aboveLC"/>
    </contour>
  </outline>
</glyph>
<glyph name="ie" format="1">
	<unicode hex="0435"/>
	<advance width="600"/>
	<outline>
		<component base="e"/>
		<contour>
			<point name="aboveLC" x="316" y="507" type="move"/>
		</contour>
	</outline>
</glyph>
<glyph name="zhe" format="1">
  <advance width="600"/>
  <unicode hex="0436"/>
  <outline>
    <contour>
      <point x="6" y="0" type="line"/>
      <point x="92" y="0" type="line"/>
      <point x="197" y="220" type="line"/>
      <point x="260" y="220" type="line"/>
      <point x="260" y="0" type="line"/>
      <point x="340" y="0" type="line"/>
      <point x="340" y="220" type="line"/>
      <point x="403" y="220" type="line"/>
      <point x="508" y="0" type="line"/>
      <point x="594" y="0" type="line"/>
      <point x="451" y="284" type="line"/>
      <point x="340" y="284" type="line"/>
      <point x="340" y="486" type="line"/>
      <point x="260" y="486" type="line"/>
      <point x="260" y="284" type="line"/>
      <point x="149" y="284" type="line"/>
    </contour>
    <contour>
      <point x="146" y="241" type="line"/>
      <point x="217" y="251" type="line"/>
      <point x="163" y="396" type="line" smooth="yes"/>
      <point x="133" y="476"/>
      <point x="94" y="498"/>
      <point x="42" y="498" type="curve" smooth="yes"/>
      <point x="30" y="498"/>
      <point x="19" y="497"/>
      <point x="12" y="493" type="curve"/>
      <point x="24" y="416" type="line"/>
      <point x="30" y="418"/>
      <point x="34" y="418"/>
      <point x="41" y="418" type="curve" smooth="yes"/>
      <point x="63" y="418"/>
      <point x="84" y="409"/>
      <point x="104" y="355" type="curve" smooth="yes"/>
    </contour>
    <contour>
      <point x="454" y="241" type="line"/>
      <point x="496" y="355" type="line" smooth="yes"/>
      <point x="516" y="409"/>
      <point x="537" y="418"/>
      <point x="559" y="418" type="curve" smooth="yes"/>
      <point x="566" y="418"/>
      <point x="570" y="418"/>
      <point x="576" y="416" type="curve"/>
      <point x="588" y="493" type="line"/>
      <point x="581" y="496"/>
      <point x="570" y="498"/>
      <point x="558" y="498" type="curve" smooth="yes"/>
      <point x="506" y="498"/>
      <point x="467" y="476"/>
      <point x="437" y="396" type="curve" smooth="yes"/>
      <point x="383" y="251" type="line"/>
    </contour>
    <contour>
      <point x="300" y="507" type="move" name="aboveLC"/>
    </contour>
  </outline>
</glyph>
<glyph name="icyr" format="1">
	<unicode hex="0438"/>
	<advance width="600"/>
	<outline>
		<contour>
			<point x="100" y="0" type="line"/>
			<point x="176" y="0" type="line"/>
			<point x="360" y="278" type="line"/>
			<point x="378" y="307"/>
			<point x="406" y="352"/>
			<point x="424" y="382" type="curve"/>
			<point x="428" y="382" type="line"/>
			<point x="425" y="319"/>
			<point x="420" y="254"/>
			<point x="420" y="202" type="curve" smooth="yes"/>
			<point x="420" y="0" type="line"/>
			<point x="500" y="0" type="line"/>
			<point x="500" y="486" type="line"/>
			<point x="424" y="486" type="line"/>
			<point x="240" y="209" type="line"/>
			<point x="222" y="179"/>
			<point x="194" y="135"/>
			<point x="176" y="105" type="curve"/>
			<point x="172" y="105" type="line"/>
			<point x="175" y="167"/>
			<point x="180" y="232"/>
			<point x="180" y="284" type="curve" smooth="yes"/>
			<point x="180" y="486" type="line"/>
			<point x="100" y="486" type="line"/>
		</contour>
		<contour>
			<point name="aboveLC" x="311" y="507" type="move"/>
		</contour>
	</outline>
</glyph>
<glyph name="er" format="1">
	<unicode hex="0440"/>
	<advance width="600"/>
	<outline>
		<component base="p"/>
		<contour>
			<point name="aboveLC" x="321" y="507" type="move"/>
		</contour>
	</outline>
</glyph>
<glyph name="ucyr" format="1">
	<unicode hex="0443"/>
	<advance width="600"/>
	<outline>
		<component base="y"/>
		<contour>
			<point name="aboveLC" x="304" y="507" type="move"/>
		</contour>
	</outline>
</glyph>
<glyph name="ef" format="1">
  <advance width="600"/>
  <unicode hex="0444"/>
  <outline>
    <contour>
      <point x="260" y="-205" type="line"/>
      <point x="340" y="-205" type="line"/>
      <point x="340" y="-50" type="line"/>
      <point x="338" y="24" type="line"/>
      <point x="362" y="4"/>
      <point x="390" y="-12"/>
      <point x="417" y="-12" type="curve" smooth="yes"/>
      <point x="497" y="-12"/>
      <point x="568" y="85"/>
      <point x="568" y="250" type="curve" smooth="yes"/>
      <point x="568" y="401"/>
      <point x="516" y="498"/>
      <point x="426" y="498" type="curve" smooth="yes"/>
      <point x="394" y="498"/>
      <point x="362" y="482"/>
      <point x="338" y="460" type="curve"/>
      <point x="340" y="536" type="line"/>
      <point x="340" y="712" type="line"/>
      <point x="260" y="712" type="line"/>
      <point x="260" y="536" type="line"/>
      <point x="262" y="462" type="line"/>
      <point x="240" y="482"/>
      <point x="215" y="498"/>
      <point x="182" y="498" type="curve" smooth="yes"/>
      <point x="103" y="498"/>
      <point x="32" y="400"/>
      <point x="32" y="242" type="curve" smooth="yes"/>
      <point x="32" y="80"/>
      <point x="92" y="-12"/>
      <point x="182" y="-12" type="curve" smooth="yes"/>
      <point x="215" y="-12"/>
      <point x="240" y="6"/>
      <point x="262" y="24" type="curve"/>
      <point x="260" y="-50" type="line"/>
    </contour>
    <contour>
      <point x="201" y="57" type="curve" smooth="yes"/>
      <point x="142" y="57"/>
      <point x="114" y="127"/>
      <point x="114" y="242" type="curve" smooth="yes"/>
      <point x="114" y="354"/>
      <point x="147" y="429"/>
      <point x="197" y="429" type="curve" smooth="yes"/>
      <point x="221" y="429"/>
      <point x="242" y="418"/>
      <point x="262" y="396" type="curve"/>
      <point x="262" y="92" type="line"/>
      <point x="242" y="68"/>
      <point x="224" y="57"/>
    </contour>
    <contour>
      <point x="401" y="57" type="curve" smooth="yes"/>
      <point x="384" y="57"/>
      <point x="360" y="66"/>
      <point x="338" y="90" type="curve"/>
      <point x="338" y="395" type="line"/>
      <point x="360" y="418"/>
      <point x="382" y="429"/>
      <point x="404" y="429" type="curve" smooth="yes"/>
      <point x="466" y="429"/>
      <point x="486" y="357"/>
      <point x="486" y="250" type="curve" smooth="yes"/>
      <point x="486" y="130"/>
      <point x="455" y="57"/>
    </contour>
  </outline>
</glyph>
<glyph name="soft" format="1">
	<unicode hex="044C"/>
	<advance width="600"/>
	<outline>
		<contour>
			<point x="125" y="0" type="line"/>
			<point x="321" y="0" type="line" smooth="yes"/>
			<point x="439" y="0"/>
			<point x="518" y="47"/>
			<point x="518" y="155" type="curve" smooth="yes"/>
			<point x="518" y="261"/>
			<point x="439" y="307"/>
			<point x="321" y="307" type="curve" smooth="yes"/>
			<point x="208" y="307" type="line"/>
			<point x="208" y="486" type="line"/>
			<point x="125" y="486" type="line"/>
		</contour>
		<contour>
			<point x="208" y="66" type="line"/>
			<point x="208" y="243" type="line"/>
			<point x="312" y="243" type="line" smooth="yes"/>
			<point x="397" y="243"/>
			<point x="437" y="216"/>
			<point x="437" y="155" type="curve" smooth="yes"/>
			<point x="437" y="94"/>
			<point x="397" y="66"/>
			<point x="312" y="66" type="curve" smooth="yes"/>
		</contour>
		<contour>
			<point name="aboveLC" x="169" y="507" type="move"/>
		</contour>
	</outline>
</glyph>
<glyph name="dje" format="1">
  <advance width="600"/>
  <unicode hex="0452"/>
  <outline>
    <contour>
      <point x="334" y="-217" type="curve" smooth="yes"/>
      <point x="460" y="-217"/>
      <point x="538" y="-130"/>
      <point x="538" y="171" type="curve" smooth="yes"/>
      <point x="538" y="375"/>
      <point x="469" y="478"/>
      <point x="344" y="478" type="curve" smooth="yes"/>
      <point x="274" y="478"/>
      <point x="221" y="437"/>
      <point x="173" y="384" type="curve"/>
      <point x="170" y="384" type="line"/>
      <point x="175" y="498" type="line"/>
      <point x="175" y="712" type="line"/>
      <point x="93" y="712" type="line"/>
      <point x="93" y="0" type="line"/>
      <point x="175" y="0" type="line"/>
      <point x="175" y="319" type="line"/>
      <point x="231" y="378"/>
      <point x="268" y="407"/>
      <point x="318" y="407" type="curve" smooth="yes"/>
      <point x="408" y="407"/>
      <point x="453" y="338"/>
      <point x="453" y="162" type="curve" smooth="yes"/>
      <point x="453" y="-86"/>
      <point x="399" y="-150"/>
      <point x="329" y="-150" type="curve" smooth="yes"/>
      <point x="314" y="-150"/>
      <point x="300" y="-146"/>
      <point x="289" y="-142" type="curve"/>
      <point x="273" y="-204" type="line"/>
      <point x="287" y="-211"/>
      <point x="309" y="-217"/>
    </contour>
    <contour>
      <point x="20" y="564" type="line"/>
      <point x="388" y="564" type="line"/>
      <point x="388" y="626" type="line"/>
      <point x="98" y="626" type="line"/>
      <point x="20" y="621" type="line"/>
    </contour>
  </outline>
</glyph>
<glyph name="ieukran" format="1">
	<unicode hex="0454"/>
	<advance width="600"/>
	<outline>
		<contour>
			<point x="346" y="-12" type="curve" smooth="yes"/>
			<point x="418" y="-12"/>
			<point x="486" y="13"/>
			<point x="539" y="60" type="curve"/>
			<point x="505" y="112" type="line"/>
			<point x="466" y="79"/>
			<point x="414" y="54"/>
			<point x="353" y="54" type="curve" smooth="yes"/>
			<point x="234" y="54"/>
			<point x="159" y="117"/>
			<point x="159" y="242" type="curve" smooth="yes"/>
			<point x="159" y="367"/>
			<point x="239" y="433"/>
			<point x="351" y="433" type="curve" smooth="yes"/>
			<point x="407" y="433"/>
			<point x="452" y="412"/>
			<point x="490" y="379" type="curve"/>
			<point x="529" y="431" type="line"/>
			<point x="487" y="469"/>
			<point x="431" y="498"/>
			<point x="351" y="498" type="curve" smooth="yes"/>
			<point x="204" y="498"/>
			<point x="80" y="414"/>
			<point x="80" y="242" type="curve" smooth="yes"/>
			<point x="80" y="72"/>
			<point x="193" y="-12"/>
		</contour>
		<contour>
			<point x="129" y="220" type="line"/>
			<point x="425" y="220" type="line"/>
			<point x="425" y="284" type="line"/>
			<point x="129" y="284" type="line"/>
		</contour>
	</outline>
</glyph>
<glyph name="nje" format="1">
  <advance width="600"/>
  <unicode hex="045A"/>
  <outline>
    <contour>
      <point x="58" y="0" type="line"/>
      <point x="138" y="0" type="line"/>
      <point x="138" y="216" type="line"/>
      <point x="266" y="216" type="line"/>
      <point x="266" y="0" type="line"/>
      <point x="346" y="0" type="line"/>
      <point x="346" y="486" type="line"/>
      <point x="266" y="486" type="line"/>
      <point x="266" y="289" type="line"/>
      <point x="138" y="289" type="line"/>
      <point x="138" y="486" type="line"/>
      <point x="58" y="486" type="line"/>
    </contour>
    <contour>
      <point x="266" y="0" type="line"/>
      <point x="373" y="0" type="line" smooth="yes"/>
      <point x="483" y="0"/>
      <point x="552" y="47"/>
      <point x="552" y="155" type="curve" smooth="yes"/>
      <point x="552" y="261"/>
      <point x="483" y="307"/>
      <point x="373" y="307" type="curve" smooth="yes"/>
      <point x="346" y="307" type="line"/>
      <point x="346" y="486" type="line"/>
      <point x="266" y="486" type="line"/>
    </contour>
    <contour>
      <point x="346" y="66" type="line"/>
      <point x="346" y="243" type="line"/>
      <point x="364" y="243" type="line" smooth="yes"/>
      <point x="442" y="243"/>
      <point x="478" y="217"/>
      <point x="478" y="155" type="curve" smooth="yes"/>
      <point x="478" y="93"/>
      <point x="442" y="66"/>
      <point x="364" y="66" type="curve" smooth="yes"/>
    </contour>
  </outline>
</glyph>
<glyph name="Yat" format="1">
	<unicode hex="0462"/>
	<advance width="600"/>
	<outline>
		<contour>
			<point x="160" y="0" type="line"/>
			<point x="315" y="0" type="line" smooth="yes"/>
			<point x="461" y="0"/>
			<point x="551" y="58"/>
			<point x="551" y="198" type="curve" smooth="yes"/>
			<point x="551" y="323"/>
			<point x="452" y="371"/>
			<point x="309" y="371" type="curve" smooth="yes"/>
			<point x="243" y="371" type="line"/>
			<point x="243" y="700" type="line"/>
			<point x="160" y="700" type="line"/>
		</contour>
		<contour>
			<point x="243" y="66" type="line"/>
			<point x="243" y="309" type="line"/>
			<point x="298" y="309" type="line" smooth="yes"/>
			<point x="415" y="309"/>
			<point x="469" y="276"/>
			<point x="469" y="194" type="curve" smooth="yes"/>
			<point x="469" y="102"/>
			<point x="415" y="66"/>
			<point x="305" y="66" type="curve" smooth="yes"/>
		</contour>
		<contour>
			<point x="24" y="507" type="line"/>
			<point x="465" y="507" type="line"/>
			<point x="465" y="575" type="line"/>
			<point x="24" y="575" type="line"/>
		</contour>
	</outline>
</glyph>
<glyph name="yat" format="1">
  <advance width="600"/>
  <unicode hex="0463"/>
  <outline>
    <contour>
      <point x="194" y="0" type="line"/>
      <point x="352" y="0" type="line" smooth="yes"/>
      <point x="467" y="0"/>
      <point x="545" y="47"/>
      <point x="545" y="155" type="curve" smooth="yes"/>
      <point x="545" y="261"/>
      <point x="467" y="307"/>
      <point x="352" y="307" type="curve" smooth="yes"/>
      <point x="276" y="307" type="line"/>
      <point x="276" y="439" type="line"/>
      <point x="459" y="439" type="line"/>
      <point x="459" y="506" type="line"/>
      <point x="276" y="506" type="line"/>
      <point x="276" y="622" type="line"/>
      <point x="194" y="622" type="line"/>
      <point x="194" y="506" type="line"/>
      <point x="41" y="506" type="line"/>
      <point x="41" y="439" type="line"/>
      <point x="194" y="439" type="line"/>
    </contour>
    <contour>
      <point x="276" y="66" type="line"/>
      <point x="276" y="243" type="line"/>
      <point x="343" y="243" type="line" smooth="yes"/>
      <point x="425" y="243"/>
      <point x="465" y="216"/>
      <point x="465" y="155" type="curve" smooth="yes"/>
      <point x="465" y="94"/>
      <point x="425" y="66"/>
      <point x="343" y="66" type="curve" smooth="yes"/>
    </contour>
  </outline>
</glyph>
<glyph name="Fita" format="1">
	<unicode hex="0472"/>
	<advance width="600"/>
	<outline>
		<contour>
			<point x="300" y="-12" type="curve" smooth="yes"/>
			<point x="449" y="-12"/>
			<point x="552" y="112"/>
			<point x="552" y="331" type="curve" smooth="yes"/>
			<point x="552" y="548"/>
			<point x="449" y="668"/>
			<point x="300" y="668" type="curve" smooth="yes"/>
			<point x="151" y="668"/>
			<point x="48" y="549"/>
			<point x="48" y="331" type="curve" smooth="yes"/>
			<point x="48" y="112"/>
			<point x="151" y="-12"/>
		</contour>
		<contour>
			<point x="300" y="58" type="curve" smooth="yes"/>
			<point x="197" y="58"/>
			<point x="131" y="156"/>
			<point x="131" y="334" type="curve" smooth="yes"/>
			<point x="131" y="503"/>
			<point x="197" y="598"/>
			<point x="300" y="598" type="curve" smooth="yes"/>
			<point x="403" y="598"/>
			<point x="469" y="503"/>
			<point x="469" y="334" type="curve" smooth="yes"/>
			<point x="469" y="156"/>
			<point x="403" y="58"/>
		</contour>
		<contour>
			<point x="105" y="311" type="line"/>
			<point x="500" y="311" type="line"/>
			<point x="500" y="379" type="line"/>
			<point x="105" y="379" type="line"/>
		</contour>
		<contour>
			<point name="aboveUC" x="300" y="676" type="move"/>
		</contour>
	</outline>
</glyph>
<glyph name="Izhitsa" format="1">
	<unicode hex="0474"/>
	<advance width="600"/>
	<outline>
		<contour>
			<point x="248" y="0" type="line"/>
			<point x="350" y="0" type="line"/>
			<point x="498" y="514" type="line" smooth="yes"/>
			<point x="512" y="563"/>
			<point x="527" y="588"/>
			<point x="556" y="588" type="curve" smooth="yes"/>
			<point x="567" y="588"/>
			<point x="575" y="585"/>
			<point x="582" y="582" type="curve"/>
			<point x="599" y="659" type="line"/>
			<point x="583" y="666"/>
			<point x="571" y="668"/>
			<point x="551" y="668" type="curve" smooth="yes"/>
			<point x="481" y="668"/>
			<point x="447" y="626"/>
			<point x="421" y="529" type="curve" smooth="yes"/>
			<point x="357" y="302" type="line"/>
			<point x="335" y="224"/>
			<point x="321" y="162"/>
			<point x="300" y="85" type="curve"/>
			<point x="296" y="85" type="line"/>
			<point x="271" y="162"/>
			<point x="255" y="224"/>
			<point x="233" y="302" type="curve" smooth="yes"/>
			<point x="127" y="656" type="line"/>
			<point x="38" y="656" type="line"/>
		</contour>
		<contour>
			<point name="aboveUC" x="304" y="676" type="move"/>
		</contour>
	</outline>
</glyph>
<glyph name="izhitsa" format="1">
	<unicode hex="0475"/>
	<advance width="600"/>
	<outline>
		<contour>
			<point x="249" y="0" type="line"/>
			<point x="350" y="0" type="line"/>
			<point x="462" y="348" type="line" smooth="yes"/>
			<point x="478" y="397"/>
			<point x="491" y="421"/>
			<point x="519" y="421" type="curve" smooth="yes"/>
			<point x="529" y="421"/>
			<point x="537" y="419"/>
			<point x="543" y="415" type="curve"/>
			<point x="560" y="489" type="line"/>
			<point x="544" y="495"/>
			<point x="532" y="498"/>
			<point x="512" y="498" type="curve" smooth="yes"/>
			<point x="446" y="498"/>
			<point x="417" y="454"/>
			<point x="390" y="358" type="curve" smooth="yes"/>
			<point x="342" y="210" type="line" smooth="yes"/>
			<point x="328" y="162"/>
			<point x="313" y="113"/>
			<point x="301" y="67" type="curve"/>
			<point x="297" y="67" type="line"/>
			<point x="282" y="113"/>
			<point x="266" y="163"/>
			<point x="251" y="210" type="curve"/>
			<point x="154" y="486" type="line"/>
			<point x="70" y="486" type="line"/>
		</contour>
		<contour>
			<point name="aboveLC" x="310" y="507" type="move"/>
		</contour>
	</outline>
</glyph>
